<svg xmlns="http://www.w3.org/2000/svg" viewBox="0 0 72.76 93.68"><defs><style>.cls-1{fill:#966544;}.cls-2{fill:#fdcc9b;}.cls-3{fill:#f4b882;}.cls-4{fill:#352215;}.cls-5{fill:#f1a58d;}.cls-6{fill:#eb82a0;}</style></defs><title>Asset 9</title><g id="Layer_2" data-name="Layer 2"><g id="OBJECTS"><path class="cls-1" d="M65.82,51.61a93.76,93.76,0,0,1-4.36-8.81c-.69.83-1.38,1.2-2,.79A53.43,53.43,0,0,1,57.12,52c-1.17,3.08-17,7.13-28.21,10.32,0-.21.05-.44.06-.65C26.19,58.73,15.9,57.12,14,52a55,55,0,0,1-2.41-8.52c-.55.54-1.23.27-1.92-.47-1.05,2.67-2.24,5.57-3.57,8.61C-2.33,70.73-1.09,83.5,4.92,91.67c1.78-.84,54.28-3.56,62.53.21C74,82.74,75.33,68.62,65.82,51.61Z"/><rect class="cls-2" x="28.97" y="70.6" width="14.82" height="16.71"/><path class="cls-2" d="M12.53,45c0,3.83-2.77,6.95-6.23,7S0,48.86,0,45s2.77-7,6.23-7S12.51,41.12,12.53,45Z"/><path class="cls-3" d="M9.9,45A3.86,3.86,0,0,1,6.29,49a4.05,4.05,0,0,1,0-8.06A3.84,3.84,0,0,1,9.9,45Z"/><path class="cls-2" d="M72.76,44.55c0,3.84-2.77,7-6.23,7s-6.28-3.06-6.3-6.89,2.76-7,6.22-7S72.73,40.72,72.76,44.55Z"/><path class="cls-3" d="M70.13,44.57a3.66,3.66,0,1,1-3.66-4A3.87,3.87,0,0,1,70.13,44.57Z"/><path class="cls-2" d="M66.35,47c.08,14.83-10.82,27-24.21,27.13l-11.53.07c-13.39.09-24.41-12-24.49-26.81L6.06,35.81C6,21,16.87,8.77,30.26,8.68L41.79,8.6c13.4-.08,24.42,12,24.5,26.82Z"/><path class="cls-3" d="M39.73,54.38c0,1.29-1.48,2.35-3.33,2.36S33,55.72,33,54.42s1.48-2.35,3.33-2.36S39.73,53.09,39.73,54.38Z"/><path class="cls-4" d="M54.8,47.26c0,1.9-1,3.45-2.25,3.45s-2.26-1.55-2.26-3.45,1-3.44,2.26-3.44S54.8,45.37,54.8,47.26Z"/><path class="cls-4" d="M22.13,47.26c0,1.9-1,3.45-2.25,3.45s-2.26-1.55-2.26-3.45,1-3.44,2.26-3.44S22.13,45.37,22.13,47.26Z"/><path class="cls-5" d="M28.73,61.92c2.26,5.79,13.42,5.86,15.44-.18a.7.7,0,1,0-1.33-.41c-1.62,4.85-11.17,4.3-12.92-.18-.35-.91-1.54-.13-1.19.77Z"/><path class="cls-2" d="M43.79,79c-1.29,2.36-4.54,7.43-7.72,7.36-3-.08-5.89-5.15-7.1-7.36,0,0-23.55-.6-29,14.72H72.59C67.17,78.36,43.79,79,43.79,79Z"/><path class="cls-1" d="M49,39.23a5.72,5.72,0,0,1,6.75.51c.54.47,1.31-.37.76-.85a6.73,6.73,0,0,0-8-.69c-.62.36-.07,1.39.54,1Z"/><path class="cls-1" d="M23.36,39.23a5.72,5.72,0,0,0-6.75.51c-.53.47-1.3-.37-.76-.85a6.75,6.75,0,0,1,8.06-.69c.61.36.07,1.39-.55,1Z"/><path class="cls-6" d="M59.91,81.88a28.92,28.92,0,0,0-9.6-2.44s-2,5.06-13.93,5.15c-11.9-.09-13.93-5.15-13.93-5.15a29,29,0,0,0-9.61,2.44A12.67,12.67,0,0,1,7.6,93.68H65.16A12.66,12.66,0,0,1,59.91,81.88Z"/><path class="cls-1" d="M7.59,43S9,33.81,10.54,32.31c0,0,10.05-2.6,16.75-1.54,0,0,1.38-7,1.16-11.48a25.08,25.08,0,0,1,3.62,11.45s13.27.45,18.68-.19c0,0,1.17-8-.59-10.57,0,0,4.5,6.5,4.51,10.76,0,0,6.26,1.15,7.55,2.86S64.9,43.82,64.9,43.82s1.32-6.63,4.74-5.13c0,0,2.58-8.38-4.56-22.47S48.42-2.06,37.25.89C37.25.89,28-2,19.56,3.15s-11.39,10.58-14,17.1S1.85,39.18,3.31,38.79C6.1,38.05,7.59,43,7.59,43Z"/></g></g></svg>