<svg xmlns="http://www.w3.org/2000/svg" viewBox="0 0 83.79 113.67"><defs><style>.cls-1{fill:#4b1a0e;}.cls-2{fill:#ead2c5;}.cls-3{fill:#cc9f8f;}.cls-4{fill:#e0b9a9;}.cls-5{fill:#f9c2c2;}.cls-6{fill:#6f4f80;}.cls-7{fill:#331009;}.cls-8{fill:#bed8e3;}</style></defs><title>Asset 5</title><g id="Layer_2" data-name="Layer 2"><g id="OBJECTS"><path class="cls-1" d="M83.64,48.35C83.23,55.85,83,79.45,72.43,81a29.87,29.87,0,0,0,.22-4.08c-1.26,2.18-5.27,4.2-7.45,4.94.26-1,.07-2.21.26-3.2C62.2,85,47.88,83.05,41.93,84.05c-7.55,1.26-19.19,2.88-24.26-4.57.87,1.28.79,3,1.31,4.16-3.27-.19-6.53-2.54-8.31-5.44a18.35,18.35,0,0,1,1.79,2.36c-7.56,3.61-9.53-5.18-10-10.87-1.12-13.22-4.87-28.56,0-41.44C4.8,22,8.91,15.05,14.21,10.83c3.26-2.6,6.74-1.55,10.18-3,2.67-1.16,4.2-3.53,7-4.89,14.19-7,28.27-.29,39.11,8.44C82.22,20.82,84.46,33.75,83.64,48.35Z"/><path class="cls-2" d="M45.56,86.75s-.43-6.23,0-7.16c0,0,8.4-.27,14.87-4,3-1.7,5.3-3.73,9.42-9.66.65-.93,3.93,1,7-1,7.6-4.78,5.07-12.67-3.66-12.11a110.7,110.7,0,0,1,2-13.52V34c-1.69-6.76-4.79-14.65-10.42-19.44A36.26,36.26,0,0,0,41.31,6.73l-3.48.1A37.82,37.82,0,0,0,27.39,9.09L25.18,10a32.86,32.86,0,0,0-7.33,4.51C12.22,19.3,9.12,27.19,7.43,34V39.3a112.68,112.68,0,0,1,2,13.52C.67,52.26-1.87,60.15,5.74,64.93c3.1,2,6.38.07,7,1,4.12,5.93,6.47,8,9.43,9.66,6.46,3.73,14.86,4,14.86,4,.45.93,0,7.16,0,7.16a16.28,16.28,0,0,1-4.44,2.46s6.26,7.09,9.56,7.58c0,0,6.88-6.2,7.65-7.64A13.64,13.64,0,0,1,45.56,86.75Z"/><path class="cls-2" d="M61.78,101.52c.15,2.77.65,9.82.42,11.65-.07.56-2.35.49-6.94.49l-.14-8.5Z"/><path class="cls-3" d="M32.34,63.36s.29.1.78.3L34,64l1.17.32a7.58,7.58,0,0,0,1.38.31l1.56.26c.55.06,1.12,0,1.7.09a11.19,11.19,0,0,0,1.74,0,14.37,14.37,0,0,0,1.76-.1l.84-.08.82-.14c.54-.08,1.05-.23,1.54-.34s.94-.3,1.36-.42.79-.31,1.12-.45.62-.29.85-.42l.72-.4s-.22.21-.62.56a11.71,11.71,0,0,1-1.84,1.24c-.41.18-.86.43-1.36.6a11.85,11.85,0,0,1-1.59.49,10.76,10.76,0,0,1-1.76.32,13.92,13.92,0,0,1-1.81.14A12.39,12.39,0,0,1,39.75,66c-.6,0-1.2-.09-1.77-.18l-1.61-.41a6.42,6.42,0,0,1-1.4-.5c-.43-.18-.81-.36-1.14-.52l-.8-.52Z"/><path class="cls-4" d="M10.11,60.43C9.78,58,7.73,55,5.66,56.27c-.58.35-.67,1.31-.7,1.9-.11,1.85.73,4.2,2.68,4.75S10.33,62.11,10.11,60.43Z"/><path class="cls-4" d="M72.48,60.43c.32-2.4,2.37-5.4,4.44-4.16.59.35.67,1.31.71,1.9.1,1.85-.73,4.2-2.69,4.75S72.25,62.11,72.48,60.43Z"/><path class="cls-3" d="M41,43.93s0,.07,0,.22a4.27,4.27,0,0,1,0,.61c0,.54-.06,1.3,0,2.17a5.52,5.52,0,0,0,.17,1.37l0,.17v.05h0v0h0v0l0,.09.14.38a5.58,5.58,0,0,0,.3.75l.36.7c.14.23.33.44.48.66a2.9,2.9,0,0,0,.54.62l.3.28.13.13.18.13a6.73,6.73,0,0,0,.7.45,4.57,4.57,0,0,1,.86.53,1.29,1.29,0,0,1,.38.55,2.53,2.53,0,0,1,.08.59l-.05.49,0,.12a.5.5,0,0,1,0,.14l-.06.21a3.17,3.17,0,0,1-1,1.53,3.28,3.28,0,0,1-1.42.71,2.72,2.72,0,0,1-1.33,0,2.43,2.43,0,0,1-1.51-1l.17.13a4.07,4.07,0,0,0,.52.3,2.67,2.67,0,0,0,.88.19,2.78,2.78,0,0,0,1.1-.19,2.81,2.81,0,0,0,1.75-1.9l0-.21a.37.37,0,0,0,0-.07v-.09l0-.37a1.64,1.64,0,0,0-.05-.27.34.34,0,0,0-.12-.16,4.23,4.23,0,0,0-.68-.38,5.76,5.76,0,0,1-.82-.51L42.89,53l-.2-.18-.34-.35a3.38,3.38,0,0,1-.63-.73,8.18,8.18,0,0,1-.51-.79c-.12-.29-.25-.57-.38-.85a4.57,4.57,0,0,1-.25-.8l-.11-.39,0-.1v-.06h0v-.06l0-.2a5.66,5.66,0,0,1,0-1.54c.11-.92.35-1.64.42-2.15S41,43.93,41,43.93Z"/><path class="cls-5" d="M20,56.39c1.24.65,4.79,1.16,4.8-1s-3.7-2.3-5.06-1.7C17.9,54.49,18.41,55.58,20,56.39Z"/><path class="cls-1" d="M46.39,33.14a19.19,19.19,0,0,1-8.83-3.94,25.79,25.79,0,0,1-7.78-11c-.46,2.45-7.17,11.93-10.65,13.26A15.67,15.67,0,0,0,20.94,28a9,9,0,0,1,.83-2.25c-1.51,1.66-7.55,7.92-10,15.27C10,46.34,10,51.89,9.42,56c-.24,1.77-1.14-.81-1.14-.81C7.08,50.9,4.94,37.11,5.51,33.51c1.35-8.44,7.54-17.17,7.54-17.17,2.13-3,17.42-9.69,21.83-10.12,6.12-.71,16-.8,21.95,1.48,7.69,3.13,15.23,11.1,17.65,18.93,2.85,8.69,3.15,22.05-2,28.54.38-.48.26-2.37.29-3a11.49,11.49,0,0,0-.35-3.25A18.21,18.21,0,0,0,69.8,43.2c-1.81-2.7-4.68-3.86-7.21-5.75-2.23-1.66-4.27-3.63-6.45-5.38-1.22-1-2.35-2.12-3.48-3.11,1.15,2.72,2.4,3.37,2.4,3.37a26.13,26.13,0,0,1-6.51-2.48,17.16,17.16,0,0,1-5.91-5.11,15.66,15.66,0,0,0,.65,2.75,11.28,11.28,0,0,0,4.22,5.71Z"/><path d="M32.7,50.1c1.57-.31,1.33-2.59.91-3.68a2.49,2.49,0,0,0-1.27-1.53,1.42,1.42,0,0,0-1.7.93C30.24,47.17,30.62,50.52,32.7,50.1Z"/><path class="cls-5" d="M61.87,56.39c-1.24.65-4.79,1.16-4.8-1s3.7-2.3,5.06-1.7C63.93,54.49,63.43,55.58,61.87,56.39Z"/><path d="M49.06,50.1c-1.58-.31-1.34-2.59-.91-3.68a2.46,2.46,0,0,1,1.27-1.53,1.4,1.4,0,0,1,1.69.93C51.51,47.17,51.14,50.52,49.06,50.1Z"/><path class="cls-6" d="M49.78,88.83c3.58,1.16,12.48,5.35,12,12.71-.06.94-6.67,3.29-6.66,4l.14,8.13c-4.85,0-7.65-.11-9.83-.11l-3.76,0-7.64.06c-1.72,0-3.85.08-6.67.07l.15-8.13c0-.7-6.6-3-6.66-4-.49-7.36,8.41-11.55,12-12.71,0,0,7.36,3.41,8.47,3.11C44,91.22,49.78,88.83,49.78,88.83Z"/><path class="cls-2" d="M20.85,101.52c-.16,2.77-.66,9.82-.43,11.65.07.56,2.35.49,6.94.49l.15-8.56Z"/><path class="cls-7" d="M26.69,33.46a6.61,6.61,0,0,1,.48-1,4.5,4.5,0,0,1,.7-.95,3.11,3.11,0,0,1,.56-.44,3.89,3.89,0,0,1,.71-.32,5.59,5.59,0,0,1,.68-.12,2.62,2.62,0,0,1,.75,0,3.05,3.05,0,0,1,1.12.48,4.8,4.8,0,0,1,.87.72,10.58,10.58,0,0,1-1.09-.19L31,31.57a4.38,4.38,0,0,0-.51,0,2.78,2.78,0,0,0-.51,0,4.52,4.52,0,0,0-.58.13,2.89,2.89,0,0,0-.47.19,4.48,4.48,0,0,0-.47.28c-.3.21-.59.43-.84.64A6.61,6.61,0,0,1,26.69,33.46Z"/><path class="cls-7" d="M54.19,33.46a7.41,7.41,0,0,1-.91-.65c-.25-.21-.54-.43-.83-.64a4.48,4.48,0,0,0-.47-.28,3.31,3.31,0,0,0-.47-.19,4.62,4.62,0,0,0-.59-.13,2.67,2.67,0,0,0-.5,0,4.55,4.55,0,0,0-.52,0l-.49.09a10.58,10.58,0,0,1-1.09.19,5.31,5.31,0,0,1,.87-.72,3.11,3.11,0,0,1,1.13-.48,2.55,2.55,0,0,1,.74,0,5,5,0,0,1,.68.12,3.36,3.36,0,0,1,.71.32,3.11,3.11,0,0,1,.56.44,4.25,4.25,0,0,1,.71.95A5.94,5.94,0,0,1,54.19,33.46Z"/><path class="cls-8" d="M30.7,89.65,34,90.94l3.31,1.31c.61.24,1.24.47,1.88.7a12.43,12.43,0,0,0,1.92.55l.22,0h0c.07,0-.08,0-.06,0h0l.06,0,.12,0a4.65,4.65,0,0,0,.49-.17l.89-.39,1.83-.81,3.28-1.43c1.92-.83,3.23-1.34,3.23-1.34s-1.2.73-3.05,1.72c-.93.49-2,1.07-3.18,1.65-.59.29-1.19.59-1.83.88l-1,.44c-.18.08-.34.11-.5.18l-.13,0-.06,0h0s-.14,0-.08,0h0l-.3,0a12.52,12.52,0,0,1-2.07-.61c-.66-.24-1.28-.51-1.89-.77-1.2-.52-2.3-1.08-3.24-1.54C31.9,90.37,30.7,89.65,30.7,89.65Z"/></g></g></svg>