<svg xmlns="http://www.w3.org/2000/svg" viewBox="0 0 84.16 117.65"><defs><style>.cls-1{isolation:isolate;}.cls-2{fill:#d4b0de;}.cls-3{fill:#6f4f80;}.cls-4{fill:#9e6959;}.cls-5{fill:#825043;}.cls-6{opacity:0.65;mix-blend-mode:multiply;}.cls-7{fill:#d4af9f;}</style></defs><title>Asset 4</title><g class="cls-1"><g id="Layer_2" data-name="Layer 2"><g id="OBJECTS"><path class="cls-2" d="M32.83,90.23s16.44-.42,17.68,0-1,1.87-1,1.87S38.41,94.56,35,92.39Z"/><path class="cls-3" d="M41.68,100.77c1.19-1.6,1.79-4.88,3.34-6.61,1.73-1.92,4.19-1.08,5.91-2.06,5.23,1.89,7.13,4.3,9.52,7.65,1.46,2.11,2.13,6,2.33,9.76l-8.85,1.67v6.33l-7.91,0-3.77,0c-2.49,0-9.54,0-12.39,0V111L21,109.51c.2-3.75.88-7.65,2.33-9.76,2.4-3.35,4.29-5.76,9.52-7.65,1,.7,3.67-.11,5.16,2.06s3.19,6.3,3.66,6.61Z"/><path class="cls-4" d="M41.9,10.72A36.2,36.2,0,0,1,65.36,18.5C71,23.28,74.09,31.17,75.78,37.93v5.35a112.68,112.68,0,0,0-2,13.52c8.73-.56,11.27,7.33,3.66,12.12-3.1,2-6.38.06-7,1-4.11,5.92-6.47,8-9.42,9.65-6.46,3.73-14.86,4-14.86,4-.45.93,0,7.17,0,7.17a41.19,41.19,0,0,1,4.79,1.36c-6.12-1-9.25,8.91-9.25,8.91-4.85-11.32-6.2-7.76-8.82-8.91a41.77,41.77,0,0,1,4.79-1.36s.43-6.24,0-7.17a33.79,33.79,0,0,1-13.94-4c-2.95-1.7-6.23-3.76-10.35-9.68-.65-.94-3.93,1-7-1C-1.28,64.13,1.25,56.24,10,56.8A110.7,110.7,0,0,0,8,43.28V37.93C9.7,31.17,12.8,23.28,18.43,18.5a35.68,35.68,0,0,1,20-7.69Z"/><path d="M31.34,37.06c.68-.24,3.06-1,2.83-2.08-.19-.94-2-.75-2.6-.62a4.9,4.9,0,0,0-2.79,2c-.62,1.43.8,1.44,1.93.95Z"/><path d="M51.67,37.06c-.68-.24-3.06-1-2.84-2.08.19-.94,2-.75,2.61-.62a4.93,4.93,0,0,1,2.79,2c.62,1.43-.81,1.44-1.94.95Z"/><path d="M33.28,54.08c1.57-.31,1.34-2.59.91-3.68a2.44,2.44,0,0,0-1.27-1.52,1.4,1.4,0,0,0-1.69.92C30.83,51.15,31.2,54.5,33.28,54.08Z"/><path class="cls-5" d="M37.46,62.46a1.77,1.77,0,0,0,.22.15,3.42,3.42,0,0,0,.63.38,4.41,4.41,0,0,0,1,.41,6.61,6.61,0,0,0,1.42.22,6,6,0,0,0,1.66-.15A4.43,4.43,0,0,0,44,62.72a3.23,3.23,0,0,0,1.1-1.44,3.8,3.8,0,0,0,.2-1.9,3.59,3.59,0,0,0-.22-1,7.83,7.83,0,0,0-.4-.89c-.36-.54-.77-1.13-1.18-1.68a19.32,19.32,0,0,1-1.09-1.7,9.14,9.14,0,0,1-.73-1.66A7.18,7.18,0,0,1,41.4,51c0-.45-.06-.84,0-1.17.06-.64.1-1,.1-1s0,.37.09,1c0,.31.13.68.2,1.11.05.21.15.42.22.66a3.65,3.65,0,0,0,.28.7,12.65,12.65,0,0,0,.83,1.49c.35.5.74,1,1.15,1.55a20.25,20.25,0,0,1,1.31,1.72,8.61,8.61,0,0,1,.5,1.06,4.6,4.6,0,0,1,.28,1.17,4.66,4.66,0,0,1-.3,2.36,3.89,3.89,0,0,1-1.49,1.8,4.76,4.76,0,0,1-2,.76,6.08,6.08,0,0,1-1.86,0,5.74,5.74,0,0,1-1.48-.44,5.18,5.18,0,0,1-1-.6,3.34,3.34,0,0,1-.56-.5Z"/><path class="cls-4" d="M21,109.51a49.74,49.74,0,0,0,.25,7.84c.07.56,4,.15,8.6.16V111Z"/><path d="M49.64,54.08c-1.57-.31-1.33-2.59-.91-3.68A2.47,2.47,0,0,1,50,48.88a1.41,1.41,0,0,1,1.7.92C52.1,51.15,51.72,54.5,49.64,54.08Z"/><path class="cls-4" d="M62.78,109.51a48.43,48.43,0,0,1,0,7.65c-.06.55-4.26.34-8.85.35v-6.33Z"/><path class="cls-5" d="M28.4,65.75a11.41,11.41,0,0,0,1.92,2,15.39,15.39,0,0,0,1.54,1.08,11.81,11.81,0,0,0,2,1,15.66,15.66,0,0,0,2.34.78,10.6,10.6,0,0,0,1.27.27,11.34,11.34,0,0,0,1.32.2,23.36,23.36,0,0,0,5.46,0,12,12,0,0,0,1.32-.18c.43-.08.86-.15,1.27-.27a15,15,0,0,0,4.32-1.75c.29-.18.57-.36.82-.55a8.76,8.76,0,0,0,.71-.54,9.43,9.43,0,0,0,1-1,6.76,6.76,0,0,0,.8-1,5.11,5.11,0,0,1-.64,1.12,9.4,9.4,0,0,1-1,1.16,9.14,9.14,0,0,1-1.47,1.29,14.09,14.09,0,0,1-4.4,2.13,11.74,11.74,0,0,1-1.33.33,9,9,0,0,1-1.39.23,27.07,27.07,0,0,1-2.82.19A24.2,24.2,0,0,1,38.65,72a9.06,9.06,0,0,1-1.38-.25,9.59,9.59,0,0,1-1.33-.34,12.62,12.62,0,0,1-2.41-1,13.83,13.83,0,0,1-2-1.19A10.24,10.24,0,0,1,30.07,68a10.83,10.83,0,0,1-1-1.13A6,6,0,0,1,28.4,65.75Z"/><g class="cls-6"><path class="cls-7" d="M10.69,64.41C10.37,62,8.32,59,6.24,60.25c-.58.35-.66,1.31-.7,1.91-.1,1.85.73,4.19,2.68,4.75S10.92,66.1,10.69,64.41Z"/></g><g class="cls-6"><path class="cls-7" d="M73.06,64.41c.32-2.4,2.37-5.4,4.45-4.16.58.35.66,1.31.7,1.91.1,1.85-.73,4.19-2.68,4.75S72.84,66.1,73.06,64.41Z"/></g><path class="cls-2" d="M41.68,101l-3.22-8.2s-2.75-1.11-5.63-2.58l-4.49,3.49,6.49,4.75,3.31-3.65Z"/><path class="cls-2" d="M41.67,101l3.22-8.2s2.75-1.11,5.62-2.58L55,93.72l-6.49,4.75-3.31-3.65Z"/><rect class="cls-2" x="25.03" y="104.18" width="0.75" height="9.06" transform="translate(-86.08 114.46) rotate(-79.8)"/><rect class="cls-2" x="53.86" y="108.34" width="9.14" height="0.75" transform="translate(-18.2 11.96) rotate(-10.12)"/><path d="M78.27,38.85c5.44-2.71,5.25-8-1.69-9.74C81.27,27,83,22.33,76.4,20.73c3.93-1.73,4.68-9-1.88-8.39,2.64-6.53-6.38-6.29-10.88-5.67C63,.5,57.35,1.36,53.14,3.83c.52-4.34-8.75-5-11.61-2-2.73-3-11-2.33-10.51,2C26.8,1.36,21.13.5,20.51,6.67,16,6.05,7,5.81,9.64,12.34,3.07,11.73,3.82,19,7.76,20.73,1.23,22.32,2.87,27,7.5,29.08l0,.06c-6.83,1.76-7,7-1.58,9.71-5.25,1.36-9.38,8.27-1.5,9.25-1.69,1.48-2.25,3.09-.75,4.81,1.3,1.43,2.83,1.69,4.59,2,0,0,2.12,3.47,2.29,2.82a21.79,21.79,0,0,0,.6-11.34c2.12-.12,3.59-2.81,4.13-4.59,1-2.72-.14-4.73-1.86-6.88,4.73,1.72,9.18-5,6.17-8.9,2.87,3,10-1.29,9-5.16,1.43,5.31,12.76.43,14.77-2.44-.55,4.45,8.32,4.45,10.7,1.84-1.33,2.06,5.17,4.65,8.38,4.06-2.74,3,3.18,7.49,6.17,8C64,33.49,65.9,44.54,71.49,42.82c-3.16,1.14-2.44,12-.29,14.63,1.88,2.42,2.26-.07,2.77-2.05a2.16,2.16,0,0,0,.36-.14c2.44-.62,4.5-.5,6.19-2.35,1.5-1.72.94-3.33-.75-4.81C87.65,47.12,83.52,40.21,78.27,38.85Z"/></g></g></g></svg>