<svg xmlns="http://www.w3.org/2000/svg" viewBox="0 0 78.06 95.79"><defs><style>.cls-1{fill:#966544;}.cls-2{fill:#fdcc9b;}.cls-3{fill:#f4b882;}.cls-4{fill:#fff;}.cls-5{fill:#352215;}.cls-6{fill:#a9bf52;}.cls-7{fill:#6d4d42;}.cls-8{fill:#8c5438;}</style></defs><title>Asset 8</title><g id="Layer_2" data-name="Layer 2"><g id="OBJECTS"><path class="cls-1" d="M11.56,52.3S4.29,60.63,6.77,71.13,3.38,84.63,0,85.13c0,0,24.06,4.41,25.22-17.5S16.13,48.48,11.56,52.3Z"/><rect class="cls-2" x="34.27" y="72.72" width="14.82" height="21.49"/><path class="cls-2" d="M17.83,47.06c0,3.83-2.77,7-6.23,7S5.32,51,5.3,47.14s2.77-7,6.23-7S17.81,43.23,17.83,47.06Z"/><path class="cls-3" d="M15.2,47.08a3.86,3.86,0,0,1-3.62,4.05,4.05,4.05,0,0,1,0-8.06A3.84,3.84,0,0,1,15.2,47.08Z"/><path class="cls-2" d="M78.05,46.67c0,3.83-2.76,7-6.22,7s-6.28-3.07-6.3-6.9,2.76-7,6.22-7S78,42.84,78.05,46.67Z"/><path class="cls-3" d="M75.43,46.69a3.66,3.66,0,1,1-3.66-4A3.86,3.86,0,0,1,75.43,46.69Z"/><path class="cls-2" d="M71.65,49.14C71.73,64,60.83,76.19,47.44,76.27l-11.53.08c-13.39.09-24.41-12-24.49-26.81l-.06-11.61c-.08-14.84,10.81-27,24.2-27.14l11.53-.07c13.4-.09,24.42,12,24.5,26.81Z"/><path class="cls-3" d="M45,56.49c0,1.29-1.48,2.35-3.33,2.37s-3.36-1-3.36-2.32,1.48-2.35,3.33-2.36S45,55.2,45,56.49Z"/><path class="cls-4" d="M41.68,63.2H33.39s.74,6.26,8.29,6.26S50,63.2,50,63.2Z"/><path class="cls-5" d="M56.15,49.38c0-1.13.47-2.74,1.7-2.82s1.65,1.83,1.68,2.82a.57.57,0,1,0,1.13,0c0-1.88-.92-3.94-2.81-4.07s-2.77,2.4-2.82,4.07a.56.56,0,1,0,1.12,0Z"/><path class="cls-5" d="M23.48,49.38c0-1.13.47-2.73,1.7-2.82s1.66,1.83,1.69,2.82a.56.56,0,1,0,1.12,0c0-1.88-.92-3.94-2.81-4.07s-2.77,2.4-2.82,4.07a.56.56,0,1,0,1.12,0Z"/><path class="cls-6" d="M49.09,81.08c-1.29,2.35-7.72,12.13-7.72,12.13s-5.9-9.93-7.1-12.13c0,0-23.55-.61-29,14.71H77.89C72.47,80.47,49.09,81.08,49.09,81.08Z"/><path class="cls-7" d="M54.34,41.35a5.7,5.7,0,0,1,6.75.5c.54.48,1.31-.36.76-.84a6.73,6.73,0,0,0-8.05-.69c-.62.36-.07,1.39.54,1Z"/><path class="cls-7" d="M28.66,41.35a5.7,5.7,0,0,0-6.75.5c-.53.48-1.3-.36-.76-.84a6.75,6.75,0,0,1,8.06-.69c.61.36.07,1.39-.55,1Z"/><path class="cls-8" d="M72.65,45.31S79.55,0,42.63,0C3.24,0,10.34,44.11,10.34,44.11s5.66-5,11.86-6.93l2.08-9.57.52,9.45,7.13-.76,1.59-13L36,36.05S67,35.16,72.65,45.31Z"/></g></g></svg>