<svg xmlns="http://www.w3.org/2000/svg" viewBox="0 0 86.79 110.65"><defs><style>.cls-1{isolation:isolate;}.cls-2{fill:#56331e;}.cls-3{fill:#bb8c7a;}.cls-4{fill:#a84a4a;}.cls-5{opacity:0.65;mix-blend-mode:multiply;}.cls-6{fill:#d4af9f;}.cls-7{fill:#722c20;}.cls-8{fill:#915b4a;}.cls-9{opacity:0.6;}.cls-10{fill:#e8b9cd;}.cls-11{fill:#a9c683;}.cls-12{fill:#d3ae6e;}.cls-13{fill:#f9f9f9;}</style></defs><title>Asset 14</title><g class="cls-1"><g id="Layer_2" data-name="Layer 2"><g id="OBJECTS"><path class="cls-2" d="M29.76,3.51C38.16-1,51.13-.73,60,2c5,1.53,9.44,4.93,13.58,8,9,6.66,11.25,19.65,12.17,30,1,10.91-.08,21.18.7,32.11.49,6.85,2,22-7.78,23.28a11,11,0,0,1,.48-1.77c-1.84,8.37-11.69,9.56-18.59,8.58-4.28-.62-6.3-4.22-11-5.16-3.41-.85-3.56.57-6.55,1.57-1.42.57-2.84,0-4.27.28-3.92.88-8.15,3.32-12.45,3.33-2.09,0-14.51-2.64-14.59-5.42,0,.94-.29,2.11-.21,3C7.8,98.88,5.4,93,7,89.8,5.64,98.33.41,86.31.1,83.34-.44,78,1.32,72.85,2,67.92c2.09-14.44-3.59-33.07,2.69-46.3,4-8.4,15.41-16.91,24.1-17.91C28.82,3.71,28.76,4.08,29.76,3.51Z"/><path class="cls-3" d="M46.4,83.73s-.42-6.23,0-7.16c0,0,8.4-.27,14.87-4,2.95-1.7,5.3-3.73,9.42-9.65.65-.94,3.93,1,7-1,7.6-4.78,5.07-12.67-3.66-12.11a110.7,110.7,0,0,1,2-13.52V30.93c-1.69-6.76-4.79-14.65-10.43-19.44A36.29,36.29,0,0,0,42.16,3.71l-3.48.1A38,38,0,0,0,28.23,6.07L26,7a32.86,32.86,0,0,0-7.33,4.51C13.07,16.28,10,24.17,8.28,30.93v5.35a112.68,112.68,0,0,1,2,13.52C1.52,49.24-1,57.13,6.59,61.91c3.09,2,6.38.07,7,1,4.12,5.92,6.47,8,9.42,9.65,6.47,3.73,14.87,4,14.87,4,.45.93,0,7.16,0,7.16a16.15,16.15,0,0,1-4.45,2.46s6.27,7.09,9.57,7.58c0,0,6.88-6.2,7.65-7.64A13.74,13.74,0,0,1,46.4,83.73Z"/><path class="cls-3" d="M62.63,98.5c.15,2.77.65,9.82.42,11.65-.07.56-2.35.49-6.94.5l-.14-8.5Z"/><path class="cls-4" d="M51.63,60.05c.89-.07-3.31,2.72-9.46,2.72a15.88,15.88,0,0,1-8.77-2.34C42.34,60.79,42.13,60.82,51.63,60.05Z"/><g class="cls-5"><path class="cls-6" d="M11,57.41C10.63,55,8.58,52,6.51,53.25c-.59.35-.67,1.31-.7,1.9-.11,1.85.72,4.2,2.68,4.75S11.18,59.1,11,57.41Z"/></g><g class="cls-5"><path class="cls-6" d="M73.33,57.41c.32-2.4,2.37-5.4,4.44-4.16.59.35.67,1.31.7,1.9.11,1.85-.72,4.2-2.68,4.75S73.1,59.1,73.33,57.41Z"/></g><path class="cls-7" d="M28.82,30.3s0-.09,0-.24a2.62,2.62,0,0,1,0-.27.67.67,0,0,1,.09-.34,3.06,3.06,0,0,1,.23-.43,2.33,2.33,0,0,1,.34-.37,1.31,1.31,0,0,1,.43-.31c.16-.08.32-.18.48-.25l.52-.12a2.29,2.29,0,0,1,.52,0,2.49,2.49,0,0,1,.89.13,1.91,1.91,0,0,1,.57.26l.2.14-.24.06c-.15,0-.34,0-.57.11a2.09,2.09,0,0,1-.36.07c-.13,0-.25.08-.39.11a8.1,8.1,0,0,0-.8.24c-.13,0-.25.1-.38.15a1.63,1.63,0,0,0-.35.17c-.1.07-.24.11-.33.18a1.7,1.7,0,0,1-.26.18.72.72,0,0,0-.24.22c-.06.08-.13.14-.18.2Z"/><path class="cls-8" d="M42,38.55s-.12.34-.27.94a6.4,6.4,0,0,0-.21,1.09A12.07,12.07,0,0,0,41.44,42a12.55,12.55,0,0,0,.16,1.66,10.32,10.32,0,0,0,.51,1.77,8,8,0,0,0,.9,1.71,6.6,6.6,0,0,0,1.31,1.48c.47.43,1.11.8,1.68,1.25a4.59,4.59,0,0,1,.83.82,2.05,2.05,0,0,1,.41,1.21A2.24,2.24,0,0,1,46.92,53a4,4,0,0,1-.62.84,2.83,2.83,0,0,1-1.75.76,4.63,4.63,0,0,1-2.61-.48,2.7,2.7,0,0,1-.61-.43l-.17-.19.21.15A3.32,3.32,0,0,0,42,54a4.79,4.79,0,0,0,2.44.1,2.41,2.41,0,0,0,1.3-.7,2.47,2.47,0,0,0,.61-1.45c0-.46-.42-.88-1-1.28s-1.15-.74-1.74-1.26a7.7,7.7,0,0,1-1.47-1.71,8.06,8.06,0,0,1-.92-1.95,8.37,8.37,0,0,1-.41-2,9.61,9.61,0,0,1,0-1.78,7.36,7.36,0,0,1,.29-1.47,8.27,8.27,0,0,1,.38-1.08,3.91,3.91,0,0,1,.34-.64Z"/><g class="cls-9"><path class="cls-10" d="M20.81,53.37c1.24.65,4.79,1.16,4.8-1s-3.7-2.3-5.06-1.7C18.74,51.47,19.25,52.56,20.81,53.37Z"/></g><path class="cls-2" d="M11.32,42.12c7.1-10.63,11.19-17.58,19.88-27.61,6.59,5.75,15.05,10.45,23.93,11A27.48,27.48,0,0,0,62.32,25a6,6,0,0,0,1.19,2.66,61.2,61.2,0,0,0,4.36,6c1.47,1.83,3.53,3.69,4.57,5.8,2,4,0,8.55.84,12.69,5.2-6.49,4.9-19.85,2-28.53-2.42-7.84-10-15.81-17.65-18.94-6-2.28-15.83-2.19-22-1.48C31.32,3.63,16,10.33,13.9,13.32c0,0-6.19,8.73-7.54,17.17-.58,3.6,1.57,17.39,2.77,21.66,0,0,.71,2.54,1.14.81S11.32,42.12,11.32,42.12Z"/><path d="M31.85,48.08c1.61-.08,1.69-2.37,1.43-3.51a2.46,2.46,0,0,0-1-1.69,1.42,1.42,0,0,0-1.82.67C29.84,44.83,29.73,48.2,31.85,48.08Z"/><path class="cls-7" d="M54.24,30.3l-.17-.16-.19-.2a.69.69,0,0,0-.23-.22,1.81,1.81,0,0,1-.27-.18c-.08-.07-.22-.11-.32-.18a1.89,1.89,0,0,0-.35-.17c-.13-.05-.25-.11-.38-.15s-.54-.19-.8-.24-.27-.09-.39-.11a1.91,1.91,0,0,1-.36-.07c-.23-.07-.42-.07-.57-.11L50,28.45l.2-.14a1.91,1.91,0,0,1,.57-.26,2.45,2.45,0,0,1,.89-.13,2.21,2.21,0,0,1,.51,0l.52.12c.17.07.33.17.49.25a1.48,1.48,0,0,1,.43.31,2.33,2.33,0,0,1,.34.37,3.06,3.06,0,0,1,.23.43.67.67,0,0,1,.09.34,2.62,2.62,0,0,1,0,.27C54.25,30.21,54.24,30.3,54.24,30.3Z"/><g class="cls-9"><path class="cls-10" d="M62.72,53.37c-1.24.65-4.79,1.16-4.8-1s3.7-2.3,5.06-1.7C64.78,51.47,64.27,52.56,62.72,53.37Z"/></g><path d="M51.49,48.08c-1.61-.11-1.66-2.4-1.39-3.53a2.49,2.49,0,0,1,1.06-1.68,1.41,1.41,0,0,1,1.81.7C53.54,44.86,53.6,48.22,51.49,48.08Z"/><path class="cls-11" d="M50.68,85.75l.19.13C53,87.05,55.6,87.49,57.61,89a16,16,0,0,1,3.33,2.69c1.5,1.87,1.84,4.56,1.69,6.87-.06.94-6.67,3.29-6.66,4l.14,8.14c-4.85,0-7.66-.12-9.83-.12l-3.76,0-7.64.07c-1.72,0-3.85.07-6.67.07l.14-8.14c0-.7-6.56-3-6.65-4-.48-5,4-9.26,8.27-11,.9-.36,1.58-.84,2.46-1.2a5.22,5.22,0,0,0,2.42-1.59c.13-.19.33-.17.35-.43s-.39-.39-.37-.61c0-.53.57-.69,1.12-.72-.79-.33-.84-1.28.17-1.11-.72-.39-.61-1.21-.3-1.81,1.31,0,10.16.12,11.29.18,1.58.07.62.53.8,1.62,1.21-.11,1.21.6.51,1.3.71.06,1.75.93.9,1.58C49.35,84.74,50.25,85.44,50.68,85.75Z"/><path class="cls-3" d="M21.69,98.5c-.15,2.77-.65,9.82-.42,11.65.07.56,2.35.49,6.94.5l.14-8.57Z"/><path class="cls-12" d="M8.4,42.83c0,.77,1.55-32,33.76-32.41,32-.38,34,25.72,35.2,38.32,0,0,6.36-47.56-35.2-45C3,6.1,8.11,35.35,8.4,42.83Z"/><path class="cls-13" d="M43,95.48a.12.12,0,0,1-.12-.12.12.12,0,0,1,.12-.13c.33,0,.66,0,1,0a.12.12,0,0,1,.13.11.12.12,0,0,1-.11.14c-.33,0-.67,0-1,0Zm-1,0h0c-.34,0-.68,0-1-.06a.12.12,0,0,1-.11-.14.12.12,0,0,1,.14-.11q.48,0,1,.06a.13.13,0,0,1,.12.13A.14.14,0,0,1,42,95.48Zm3-.17a.12.12,0,0,1-.12-.11.12.12,0,0,1,.1-.14c.33,0,.66-.12,1-.19a.13.13,0,0,1,.15.09.12.12,0,0,1-.09.15c-.32.08-.66.14-1,.2Zm-5,0h0l-1-.19a.13.13,0,0,1-.09-.15.13.13,0,0,1,.15-.1c.32.08.65.14,1,.19a.12.12,0,0,1,.11.14A.14.14,0,0,1,40,95.3ZM38,94.85h0c-.32-.1-.64-.21-1-.33a.12.12,0,0,1-.07-.17.13.13,0,0,1,.16-.07c.3.12.62.23.93.33a.13.13,0,0,1,.09.16A.13.13,0,0,1,38,94.85Zm8.86,0a.13.13,0,0,1-.12-.08.13.13,0,0,1,.09-.16,9.33,9.33,0,0,0,.93-.34.14.14,0,0,1,.16.07.12.12,0,0,1-.07.16c-.3.13-.62.24-1,.35Zm-10.72-.73,0,0a9.58,9.58,0,0,1-.89-.49.14.14,0,0,1,0-.17.12.12,0,0,1,.17,0q.42.25.87.48a.12.12,0,0,1,0,.17A.12.12,0,0,1,36.18,94.12Zm12.57,0a.14.14,0,0,1-.11-.07.12.12,0,0,1,.06-.17l.86-.48a.12.12,0,0,1,.17,0,.13.13,0,0,1,0,.17c-.29.18-.59.34-.88.49Zm-14.27-1-.07,0a10,10,0,0,1-.78-.65.12.12,0,1,1,.16-.18,9.58,9.58,0,0,0,.77.63.12.12,0,0,1,0,.17A.12.12,0,0,1,34.48,93.07Zm16,0a.12.12,0,0,1-.1-.05.12.12,0,0,1,0-.17c.26-.2.52-.41.76-.63a.13.13,0,0,1,.18,0,.12.12,0,0,1,0,.17,9.59,9.59,0,0,1-.78.65ZM33,91.73a.11.11,0,0,1-.09,0,8,8,0,0,1-.65-.77.12.12,0,0,1,.19-.15c.21.26.42.52.64.75a.12.12,0,0,1,0,.18A.11.11,0,0,1,33,91.73Zm18.93,0a.16.16,0,0,1-.09,0,.13.13,0,0,1,0-.18c.21-.23.43-.48.64-.75a.12.12,0,1,1,.19.15c-.21.27-.43.53-.65.77A.12.12,0,0,1,51.93,91.7ZM31.78,90.15a.11.11,0,0,1-.1-.06q-.27-.42-.51-.87a.12.12,0,0,1,.06-.17.12.12,0,0,1,.16,0c.16.3.32.58.5.86a.13.13,0,0,1,0,.17Zm21.37,0a.1.1,0,0,1-.07,0,.13.13,0,0,1,0-.17,8.23,8.23,0,0,0,.49-.86.12.12,0,0,1,.17,0,.12.12,0,0,1,0,.16,7.06,7.06,0,0,1-.5.88A.11.11,0,0,1,53.15,90.12ZM30.86,88.37a.12.12,0,0,1-.11-.07,6.27,6.27,0,0,1-.33-1,.13.13,0,0,1,.09-.15.13.13,0,0,1,.15.1,7.21,7.21,0,0,0,.32.93.13.13,0,0,1-.07.16Zm23.18,0h0a.13.13,0,0,1-.08-.16,4.18,4.18,0,0,0,.23-.89.13.13,0,0,1,.25,0,5.42,5.42,0,0,1-.24.94A.13.13,0,0,1,54,88.33Z"/><path class="cls-13" d="M27.67,101l-.06,0-.86-.52a.12.12,0,0,1,0-.17.12.12,0,0,1,.17,0l.86.51a.14.14,0,0,1,0,.18A.17.17,0,0,1,27.67,101ZM26,100a.07.07,0,0,1-.06,0L25,99.44a.13.13,0,0,1,0-.18.13.13,0,0,1,.17,0l.86.52a.14.14,0,0,1,0,.17A.14.14,0,0,1,26,100Zm-1.71-1-.07,0-.85-.52a.12.12,0,0,1,0-.17.12.12,0,0,1,.17,0l.85.51a.14.14,0,0,1,.05.18A.17.17,0,0,1,24.25,98.94Zm-1.71-1a.1.1,0,0,1-.07,0l-.85-.51a.13.13,0,0,1,0-.18.13.13,0,0,1,.17,0l.85.52a.13.13,0,0,1,0,.17A.14.14,0,0,1,22.54,97.9Z"/><path class="cls-13" d="M56,101.42a.14.14,0,0,1-.11-.06.13.13,0,0,1,0-.17l.85-.52a.13.13,0,0,1,.17,0,.13.13,0,0,1,0,.18l-.86.51Zm1.71-1a.17.17,0,0,1-.11-.06.14.14,0,0,1,0-.18l.85-.51a.12.12,0,1,1,.13.21l-.85.52Zm1.71-1a.11.11,0,0,1-.1-.06.12.12,0,0,1,0-.17l.86-.52a.13.13,0,1,1,.12.22l-.85.51A.08.08,0,0,1,59.39,99.35Zm1.72-1a.11.11,0,0,1-.11-.06.12.12,0,0,1,0-.17l.86-.52a.13.13,0,0,1,.17,0,.13.13,0,0,1,0,.17l-.86.52Z"/><path class="cls-13" d="M42.74,96.56a.57.57,0,1,1-.57-.56A.57.57,0,0,1,42.74,96.56Z"/></g></g></g></svg>