<svg xmlns="http://www.w3.org/2000/svg" xmlns:xlink="http://www.w3.org/1999/xlink" viewBox="0 0 80.17 115.72"><defs><style>.cls-1{fill:none;}.cls-2{fill:#cc8a29;}.cls-3{fill:#a83838;}.cls-4{fill:#ead2c5;}.cls-5{fill:#ce5a8e;}.cls-6{fill:#cc9f8f;}.cls-7{fill:#f99;}.cls-8{fill:#a84a4a;}.cls-9{fill:#e0b9a9;}.cls-10{clip-path:url(#clip-path);}.cls-11{fill:#fff;}.cls-12{fill:#394042;}.cls-13{fill:#e9a532;}</style><clipPath id="clip-path"><path class="cls-1" d="M49.12,90.06c5.23,1.88,7.13,4.3,9.52,7.65,1.46,2.1,2.13,6,2.34,9.76H52.12v8l-7.91,0-3.77,0c-2.48.05-9.54,0-12.39,0v-8H19.2c.21-3.76.88-7.66,2.34-9.76,2.39-3.35,4.28-5.77,9.51-7.65C33.52,91.34,48.15,92,49.12,90.06Z"/></clipPath></defs><title>Asset 13</title><g id="Layer_2" data-name="Layer 2"><g id="OBJECTS"><path class="cls-2" d="M30,84.21s-1.08-.85,9.51-.76,10.9,1.19,10.9,1.19L46.94,95.48,33,96.87Z"/><path class="cls-3" d="M49.12,90.06c5.23,1.88,7.13,4.3,9.52,7.65,1.46,2.1,2.13,6,2.34,9.76H52.12v8l-7.91,0-3.77,0c-2.48.05-9.54,0-12.39,0v-8H19.2c.21-3.76.88-7.66,2.34-9.76,2.39-3.35,4.28-5.77,9.51-7.65C33.52,91.34,48.15,92,49.12,90.06Z"/><path class="cls-4" d="M40.09,8.67a36.2,36.2,0,0,1,23.46,7.78C69.18,21.24,72.28,29.12,74,35.89v5.35a112.1,112.1,0,0,0-2,13.52c8.73-.57,11.27,7.32,3.66,12.11-3.1,2-6.38.07-7,1-4.11,5.92-6.46,8-9.42,9.66-6.46,3.72-14.86,4-14.86,4-.44.91,0,6.87,0,7.16s4.28,1.29,4.81,1.49c.19.08-1.88,1.69-2.11,1.8a17.8,17.8,0,0,1-9.85,1.17,13.66,13.66,0,0,1-6.13-3c.53-.19,4.77-1.1,4.79-1.44,0-.09.43-6.24,0-7.17a33.61,33.61,0,0,1-13.94-4c-2.95-1.7-6.23-3.76-10.35-9.68-.65-.93-3.93,1-7-1-7.6-4.79-5.07-12.68,3.67-12.11a112.13,112.13,0,0,0-2-13.52V35.89C7.89,29.12,11,21.24,16.63,16.45a35.61,35.61,0,0,1,20-7.68Z"/><path class="cls-5" d="M17.5,9.65A36.92,36.92,0,0,1,34.75,2.7C42.26,1.75,52.57,5.29,59,0a12.94,12.94,0,0,1-2.57,6.16c2.33-1.49,5.16-3.1,6.86-5.33a7.72,7.72,0,0,1-.81,5.66,18.78,18.78,0,0,0,3.79-2.68c-1.21,4.85,2,7.57,4.61,9.88,3.73,3.23,5,7.93,6.26,12.91a45.63,45.63,0,0,1,1,17.81c-.51,3.31-2.15,11.25-6.69,11.12,0,0-.61-13.7-.74-14.71A37.79,37.79,0,0,0,67.7,29.56c-.62-1.32-7-11.7-7.23-11.36a16.6,16.6,0,0,1-7.13,5,13.89,13.89,0,0,0,.8-7.09c-3.83,7.24-17.77,10-25.55,9.56.71-.75,1.16-2,1.79-2.71-2.44,1-4.64,2.72-7.16,3.1.21-.73.09-2.1.32-2.77a20.15,20.15,0,0,1-4.11,3.74,22.69,22.69,0,0,1-.55-7,30.24,30.24,0,0,0-7.2,14.17C10.1,40.83,9,51.1,9.54,57.87c-2.06,0-3.33-2.64-4-4.26A46.65,46.65,0,0,1,3.82,46.7,41.39,41.39,0,0,1,3,36.05,34.64,34.64,0,0,1,5.15,26,36,36,0,0,1,17.5,9.65Z"/><path class="cls-5" d="M29.11,35.37c1-.37,2.73-1,2.49-1.71-.45-1.18-2.49-.17-3.15.21-.47.27-1.21.68-1.42,1.21-.47,1.12.92.76,1.46.52Z"/><path class="cls-5" d="M49.88,35.37c-1-.37-2.74-1-2.49-1.71.44-1.18,2.49-.17,3.15.21.46.27,1.21.68,1.42,1.21.46,1.12-.92.76-1.46.52Z"/><path d="M30.4,52.06c1.58-.25,1.45-2.53,1.07-3.64a2.47,2.47,0,0,0-1.2-1.58,1.39,1.39,0,0,0-1.73.85C28.08,49,28.3,52.38,30.4,52.06Z"/><path class="cls-6" d="M38.92,60.1l.26.07a3.2,3.2,0,0,0,.74.16,6.93,6.93,0,0,0,1.16,0l.7-.08.75-.17a3.75,3.75,0,0,0,1.43-.8l.14-.15s.08-.09,0,0L44.2,59c.06-.13.2-.32.17-.4a1.21,1.21,0,0,0,0-.33,1.07,1.07,0,0,0-.1-.41s-.06-.18-.06-.16l-.14-.23a1.38,1.38,0,0,0-.3-.39c-.18-.2-.45-.46-.72-.72s-.25-.26-.43-.46l-.33-.46c-.22-.31-.45-.59-.65-.92a16.42,16.42,0,0,1-1-2.12l-.39-1.06c-.1-.35-.19-.71-.28-1.06a14.19,14.19,0,0,1-.39-2,13.52,13.52,0,0,1-.15-1.84,9.79,9.79,0,0,1,0-1.56c0-.23,0-.45,0-.65s.07-.38.1-.54c.13-.65.21-1,.21-1s0,.38,0,1c0,.16,0,.34,0,.54s0,.4.06.63c.05.45,0,1,.15,1.51s.14,1.15.31,1.76a19.79,19.79,0,0,0,.51,1.93c.1.32.2.66.31,1s.27.65.41,1A16.11,16.11,0,0,0,42.46,54c.17.31.42.61.63.92l.32.46.33.35a10,10,0,0,1,.79.86,2.35,2.35,0,0,1,.32.48l.13.24a2,2,0,0,1,.13.33,2.12,2.12,0,0,1,.11.62,1.51,1.51,0,0,1-.09.68,1.54,1.54,0,0,1-.25.5l-.07.1a1.13,1.13,0,0,1-.14.15l-.21.19a3.9,3.9,0,0,1-1.79.8l-.84.09-.76,0a5.58,5.58,0,0,1-1.19-.23,2.3,2.3,0,0,1-.72-.29Z"/><path class="cls-4" d="M19.2,107.47a49.74,49.74,0,0,0,.25,7.84c.07.55,4,.15,8.6.15v-8Z"/><path d="M49.15,52.08c-1.6-.1-1.67-2.39-1.4-3.53a2.45,2.45,0,0,1,1-1.68,1.43,1.43,0,0,1,1.81.69C51.18,48.84,51.27,52.21,49.15,52.08Z"/><path class="cls-4" d="M61,107.47a50.84,50.84,0,0,1,0,7.64c-.07.55-4.27.35-8.86.35v-8Z"/><path class="cls-7" d="M33.58,68.27a19.54,19.54,0,0,0,6.52,1.07,19.11,19.11,0,0,0,6.95-1.16A12.9,12.9,0,0,0,33.58,68.27Z"/><path class="cls-8" d="M53.15,63.39c-16.29,4.72-26.12,0-26.12,0a12.42,12.42,0,0,0,6.55,4.88,12.9,12.9,0,0,1,13.47-.09C51.63,66.45,53.15,63.39,53.15,63.39Z"/><path class="cls-9" d="M8.88,62.37C8.56,60,6.51,57,4.44,58.21c-.59.35-.67,1.3-.71,1.9-.1,1.85.73,4.2,2.69,4.75S9.11,64.05,8.88,62.37Z"/><path class="cls-9" d="M71.25,62.37c.32-2.4,2.38-5.4,4.45-4.16.58.35.67,1.3.7,1.9.1,1.85-.73,4.2-2.68,4.75S71,64.05,71.25,62.37Z"/><g class="cls-10"><path class="cls-11" d="M39.77,98.89c-10.13,0-16.37-4.42-16.76-4.7l1.18-1.62c.13.1,13.61,9.57,33-.08l.89,1.79A40.87,40.87,0,0,1,39.77,98.89Z"/><path class="cls-11" d="M40,104.24A46.41,46.41,0,0,1,19.58,99.6l1-1.75c.18.11,19.28,10.38,40.1-.87l1,1.76A45,45,0,0,1,40,104.24Z"/><path class="cls-11" d="M40,109.91a49.39,49.39,0,0,1-21.37-4.81l.95-1.76c.2.11,20.2,10.64,41-.62l1,1.76A44.91,44.91,0,0,1,40,109.91Z"/><path class="cls-11" d="M40,115.72a46.4,46.4,0,0,1-20.43-4.64l1-1.75c.19.11,19.28,10.38,40.1-.87l1,1.76A45,45,0,0,1,40,115.72Z"/></g><path class="cls-12" d="M45.67,88.86l3.19,26.61H61.12s.87-15.3-2.78-20C54.23,90.21,47.13,88.44,45.67,88.86Z"/><path class="cls-13" d="M46.63,98.73s-1-6.68-1.82-11.81l5.57-2.28-3.3,16.42Z"/><polygon class="cls-13" points="52.05 102.69 57.44 103.62 56.62 105.02 52.05 104.19 52.05 102.69"/><path class="cls-12" d="M34.35,89.27l-3,26.2H19s-.87-15.3,2.79-20C25.86,90.21,33,89.63,34.35,89.27Z"/><path class="cls-13" d="M33.46,98.73s.65-7.86,1.17-11.77L30,84.21,33,101.06Z"/><polygon class="cls-13" points="28.04 102.69 22.65 103.62 23.48 105.02 28.04 104.19 28.04 102.69"/></g></g></svg>