<svg xmlns="http://www.w3.org/2000/svg" viewBox="0 0 98.37 111.86"><defs><style>.cls-1{fill:#c15925;}.cls-2{fill:#d1f8ef;}.cls-3{fill:#ffd7c7;}.cls-4{fill:#e59a80;}.cls-5{fill:#f2bdaa;}.cls-6{fill:#f9c2c2;}.cls-7{fill:#5db2ae;}.cls-8{fill:#ea71ad;}.cls-9{fill:#f1ce58;}</style></defs><title>Asset 8</title><g id="Layer_2" data-name="Layer 2"><g id="OBJECTS"><path class="cls-1" d="M77.69,85.48c-.91,4.1-5.67,9-10.23,8-1.26-.28-1.77-1.08-2.76-1.73s-.73-.69-1.39.62A6.62,6.62,0,0,1,57,96.14c-2-.13-3.93-1.3-4.12-3.4a4.53,4.53,0,0,1-5,3.44c-2.41-.34-3.24-1.55-4.1-3.57a5.8,5.8,0,0,1-6.47,2.85c-2.06-.51-2.44-2.12-3.45-3.61-1.31.67-2.11,1.65-3.74,1.74a7.5,7.5,0,0,1-4-1.13,12.06,12.06,0,0,1-3.49-3.11c-.33-.44-2.37-3.33-1.89-3.87-5.1,5.74-11.48-.64-12.12-7-6.38,0-7.65-6.38-3.82-10.85C-6.74,63.16,6,49.77,7.92,42.11c3.15-11.52,2.44-24.82,13.13-32.58,4.74-3.44,10.6-5.41,16.23-6.77C41.93,1.64,46.57.31,51.37.05c11.32-.62,22.69,5,30.13,13.38A21.23,21.23,0,0,1,86,21.07c1.92,6.37,2.55,14,4.47,21,1.91,7.66,14.66,21,3.19,25.51,3.82,4.47,2.55,10.85-3.83,10.85C89.17,84.84,82.79,91.22,77.69,85.48Z"/><path class="cls-2" d="M58.14,84.44c.6.92-.84,2-1.47,2.44a5.46,5.46,0,0,1-1.82.91,10.84,10.84,0,0,1-1.49.38,8.81,8.81,0,0,0-1.25.12c-.48.12-1,.19-1.45.27-2.77.4-6.61.33-8.3-2.25-1.8-2.76,3-3,5.07-3.29a23.84,23.84,0,0,1,7.55.29A14.92,14.92,0,0,1,58.14,84.44Z"/><path class="cls-3" d="M54,84.94s-.43-6.23,0-7.16c0,0,8.39-.28,14.86-4,3-1.7,5.31-3.73,9.42-9.66.65-.93,3.93,1,7-1C92.94,58.34,90.4,50.45,81.67,51a110.7,110.7,0,0,1,2-13.52V32.14C82,25.38,78.85,17.49,73.22,12.7A36.26,36.26,0,0,0,49.75,4.92L46.27,5A37.46,37.46,0,0,0,35.83,7.28l-2.21.9a33.27,33.27,0,0,0-7.33,4.52c-5.63,4.79-8.73,12.68-10.42,19.44v5.35a112.68,112.68,0,0,1,2,13.52c-8.73-.56-11.27,7.33-3.66,12.11,3.1,2,6.38.07,7,1,4.11,5.93,6.47,8,9.42,9.66,6.47,3.72,14.86,4,14.86,4,.45.93,0,7.16,0,7.16a16.28,16.28,0,0,1-4.44,2.46s6.27,7.09,9.56,7.58c0,0,6.88-6.2,7.65-7.64A13.64,13.64,0,0,1,54,84.94Z"/><path class="cls-3" d="M70.22,99.7c.15,2.78.66,9.83.42,11.66-.07.56-2.35.49-6.94.49l-.14-8.5Z"/><path class="cls-4" d="M40.5,59.8l.79.42.91.41c.37.13.77.3,1.22.45s.93.3,1.46.41,1.09.21,1.66.32,1.19.11,1.8.19,1.26.06,1.86,0,1.3,0,1.89-.09a16.6,16.6,0,0,0,1.78-.24,13.31,13.31,0,0,0,1.65-.37c.53-.11,1-.32,1.45-.46s.83-.35,1.19-.5l.89-.47c.47-.3.75-.46.75-.46s-.22.23-.64.62l-.81.63c-.34.22-.71.47-1.15.7a9.73,9.73,0,0,1-1.45.65l-.82.3c-.28.09-.58.15-.88.22a12.19,12.19,0,0,1-1.89.34c-.65.11-1.27.08-1.92.13s-1.32-.05-2-.07-1.28-.16-1.88-.29a14.37,14.37,0,0,1-3.19-1.06,13.28,13.28,0,0,1-2-1.23C40.74,60,40.5,59.8,40.5,59.8Z"/><path class="cls-5" d="M18.55,58.62c-.32-2.4-2.37-5.4-4.45-4.16-.58.35-.66,1.31-.7,1.9-.1,1.85.73,4.2,2.68,4.75S18.78,60.3,18.55,58.62Z"/><path class="cls-5" d="M80.92,58.62c.32-2.4,2.37-5.4,4.45-4.16.58.35.66,1.31.7,1.9.1,1.85-.73,4.2-2.69,4.75S80.69,60.3,80.92,58.62Z"/><path class="cls-1" d="M36.81,32.47s0-.09,0-.24,0-.15,0-.25a.6.6,0,0,1,.1-.33c.07-.12.14-.26.23-.4a2.19,2.19,0,0,1,.34-.34,1.35,1.35,0,0,1,.42-.3,4.23,4.23,0,0,1,.48-.23l.5-.13a1.73,1.73,0,0,1,.5-.05,3,3,0,0,1,.87.08,3.24,3.24,0,0,1,.58.22l.2.12-.23,0a3.66,3.66,0,0,0-.58.06l-.36.06a3.14,3.14,0,0,0-.4.08,8.56,8.56,0,0,0-.83.23c-.14.05-.26.12-.39.17a1.43,1.43,0,0,0-.37.19,2.49,2.49,0,0,0-.32.2,2.65,2.65,0,0,1-.26.21,1.79,1.79,0,0,0-.38.44Z"/><path class="cls-4" d="M50.25,45.57s0,.31-.09.85c0,.27,0,.59,0,1a10.67,10.67,0,0,0,0,1.24A7.34,7.34,0,0,0,50.4,50a3.2,3.2,0,0,0,.26.71l.08.18s0,.1,0,0l.07.09.24.36a3,3,0,0,0,.55.46,8.25,8.25,0,0,0,.73.41,6.91,6.91,0,0,1,1.69,1l.2.19.16.24a2.26,2.26,0,0,1,.29.54l.14.44a2.46,2.46,0,0,1,.06.58,2.28,2.28,0,0,1-1,1.88,4.13,4.13,0,0,1-1.71.66,5.66,5.66,0,0,1-1.58.05,4.79,4.79,0,0,1-1.29-.3,2.9,2.9,0,0,1-.5-.23,2.38,2.38,0,0,1-.39-.25,1.64,1.64,0,0,1-.46-.46l-.13-.17.17.14.21.16.31.16a1.45,1.45,0,0,0,.4.16,1.86,1.86,0,0,0,.49.13,5.16,5.16,0,0,0,1.21.08,6.39,6.39,0,0,0,1.4-.2,3.74,3.74,0,0,0,1.35-.64,1.46,1.46,0,0,0,.59-1.14,1.35,1.35,0,0,0,0-.32l-.15-.44a1.58,1.58,0,0,0-.17-.26l-.09-.15L53.34,54a6,6,0,0,0-1.45-.9,6.52,6.52,0,0,1-.82-.51,3.7,3.7,0,0,1-.74-.74l-.23-.37-.05-.09a.36.36,0,0,1-.07-.15l-.08-.22a4,4,0,0,1-.22-.85,6.09,6.09,0,0,1-.1-1.56A9.52,9.52,0,0,1,50,46.38a5.89,5.89,0,0,1,.2-.6Z"/><path class="cls-6" d="M28.4,56.49c1.24.65,4.79,1.17,4.8-1s-3.69-2.3-5.06-1.69C26.34,54.59,26.85,55.68,28.4,56.49Z"/><path class="cls-1" d="M18.92,43.33C30,38.87,36.64,26.73,38.79,15.71c7.83,6.84,19.08,11.11,29.61,9.11a12.77,12.77,0,0,0,2.14,7.83C71.82,34.5,74,37.35,76,38.49a18.81,18.81,0,0,1,4,3.53c.71,1,.82,3.46.89,4.21.2,2.27-.36,5,.07,7.12,5.2-6.48,4.89-19.84,2-28.53C80.5,17,73,9,65.27,5.89c-6-2.28-15.82-2.19-21.95-1.48-4.41.43-19.7,7.13-21.83,10.11,0,0-6.19,8.74-7.54,17.18-.57,3.6,1.57,17.39,2.78,21.65,0,0,.71,2.55,1.13.82S18.92,43.33,18.92,43.33Z"/><path d="M41.14,49.25c1.57-.32,1.33-2.59.91-3.68A2.49,2.49,0,0,0,40.78,44a1.42,1.42,0,0,0-1.7.93C38.69,46.32,39.06,49.66,41.14,49.25Z"/><path d="M38.54,46.69A3,3,0,0,1,37,46.28,1.7,1.7,0,0,1,36.16,45a.26.26,0,0,1,.22-.28.25.25,0,0,1,.28.22,1.16,1.16,0,0,0,.58.88,2.69,2.69,0,0,0,2.22.19.26.26,0,0,1,.32.16.26.26,0,0,1-.16.32A3.59,3.59,0,0,1,38.54,46.69Z"/><path d="M38.42,48.14a2.71,2.71,0,0,1-1-.2.25.25,0,0,1-.14-.33.24.24,0,0,1,.32-.14,1.47,1.47,0,0,0,1.73-.23.24.24,0,0,1,.35,0,.25.25,0,0,1,0,.36A1.78,1.78,0,0,1,38.42,48.14Z"/><path class="cls-1" d="M61.91,32.47l-.15-.18c-.1-.1-.19-.32-.39-.44s-.17-.13-.25-.21a2.63,2.63,0,0,0-.33-.2,1.55,1.55,0,0,0-.36-.19l-.4-.17a8.37,8.37,0,0,0-.82-.23,3.14,3.14,0,0,0-.4-.08l-.37-.06a3.56,3.56,0,0,0-.57-.06l-.23,0,.2-.12a2.83,2.83,0,0,1,.57-.22,3,3,0,0,1,.88-.08,1.63,1.63,0,0,1,.49.05l.51.13a4.09,4.09,0,0,1,.47.23,1.25,1.25,0,0,1,.42.3,1.82,1.82,0,0,1,.34.34,4.42,4.42,0,0,1,.23.4.62.62,0,0,1,.11.33c0,.1,0,.18,0,.25A2,2,0,0,1,61.91,32.47Z"/><path class="cls-6" d="M70.32,56.49c-1.25.65-4.8,1.17-4.81-1s3.7-2.3,5.06-1.69C72.37,54.59,71.87,55.68,70.32,56.49Z"/><path d="M57.5,49.25c-1.57-.32-1.33-2.59-.91-3.68A2.49,2.49,0,0,1,57.86,44a1.42,1.42,0,0,1,1.7.93C60,46.32,59.58,49.66,57.5,49.25Z"/><path d="M60.18,46.69a3.65,3.65,0,0,1-1.09-.17.25.25,0,1,1,.16-.48,2.71,2.71,0,0,0,2.23-.19,1.14,1.14,0,0,0,.57-.88.24.24,0,0,1,.28-.22.25.25,0,0,1,.22.28,1.69,1.69,0,0,1-.8,1.25A3,3,0,0,1,60.18,46.69Z"/><path d="M60.29,47.9a1.82,1.82,0,0,1-1.3-.54A.26.26,0,0,1,59,47a.25.25,0,0,1,.36,0,1.47,1.47,0,0,0,1.72.23.25.25,0,0,1,.33.14.25.25,0,0,1-.14.32A2.51,2.51,0,0,1,60.29,47.9Z"/><path class="cls-7" d="M58.23,87c3.58,1.16,12.53,4.57,12.51,13.86,0,.94-7.19,2.14-7.18,2.84l.14,8.13c-4.84,0-7.65-.11-9.82-.11l-3.77,0-7.64.06c-1.71,0-3.84.08-6.67.07l.15-8.13c0-.7-7-1.9-7-2.84,0-9.79,8.7-12.7,12.28-13.86,0,0,7.46,1.49,8.87,1.48A41.42,41.42,0,0,0,58.23,87Z"/><path class="cls-3" d="M29.27,101.07c-.15,2.77-.64,8.46-.4,10.29.07.56,2.35.49,6.93.49l.15-8.56Z"/><path class="cls-8" d="M87.3,37.63c-.74-.94-2.79-.9-3.83-.93-1.47-.05-2.89.2-4.35.25a66,66,0,0,0-12.31,1.68,59.44,59.44,0,0,0-9.71,2.65c-.68.18-4.32,1.14-5,1.27a17.3,17.3,0,0,1-5.28-.08c-.7-.12-4.95-1.28-5.62-1.45a14.86,14.86,0,0,0-1.71-.44,78.28,78.28,0,0,0-7.82-1.95A65.85,65.85,0,0,0,19.37,37c-1.45-.05-2.87-.3-4.34-.25-1,0-3.09,0-3.83.93-.29.35-.47.84-.16,1.1,7.46,6.38,10.3,12.94,17.81,15.2,5.83,1.75,13,1,16.68-5a6.2,6.2,0,0,0,.65-1.4,3.41,3.41,0,0,1,1.29-1.32,3.54,3.54,0,0,1,4.32.64,5.92,5.92,0,0,1,.56.82A6.64,6.64,0,0,0,53,49c3.68,5.91,10.85,6.71,16.68,5,7.51-2.26,10.35-8.82,17.8-15.2C87.76,38.47,87.58,38,87.3,37.63ZM42.18,50.28a10.32,10.32,0,0,1-4.3,2,14.52,14.52,0,0,1-9.47-.44,13.65,13.65,0,0,1-7.65-7.43c-.66-1.89-.88-4.59,1.6-5.1l2.77.08c3.2.14,17.55,2.77,18.87,6.26C44.56,47.2,43.2,49.34,42.18,50.28Zm35.56-5.83a13.65,13.65,0,0,1-7.65,7.43,14.52,14.52,0,0,1-9.47.44,10.32,10.32,0,0,1-4.3-2c-1-.94-2.39-3.08-1.82-4.59,1.31-3.49,15.66-6.12,18.87-6.26l2.77-.08C78.61,39.86,78.39,42.56,77.74,44.45Z"/><path class="cls-9" d="M77.09,12.84c-2.21,2.17-4.38,4.75-6.85,6.93A7.1,7.1,0,0,0,72,21.59c1.61-1.12,5.57-5.53,6.83-7.1A6.76,6.76,0,0,0,77.09,12.84Z"/><path class="cls-2" d="M43.3,83.84a63.48,63.48,0,0,0,6.85,4.66A9.34,9.34,0,0,1,43,89.75C39.32,89,37.33,85.89,43.3,83.84Z"/><path class="cls-2" d="M56.52,83.77a63.48,63.48,0,0,1-6.85,4.66,8,8,0,0,0,7.14,1.25C60.42,88.59,62.49,85.82,56.52,83.77Z"/><path class="cls-2" d="M29,100.88c-.22.86,0,3.17,1.3,1.51.14,1.16.93,2.24,1.87.79.22,1.45,1.52,2.17,2.16.51.51,1.66,2,1,2-.58A75.76,75.76,0,0,1,29,100.88Z"/><path class="cls-2" d="M70.74,100.88c.21.86,0,3.17-1.3,1.51-.15,1.16-.94,2.24-1.88.79-.21,1.45-1.51,2.17-2.16.51-.5,1.66-2,1-2-.58A75.31,75.31,0,0,0,70.74,100.88Z"/></g></g></svg>