<svg xmlns="http://www.w3.org/2000/svg" viewBox="0 0 81.83 112.4"><defs><style>.cls-1{fill:#ffd7c7;}.cls-2{fill:#f2bdaa;}.cls-3{fill:#e59a80;}.cls-4{fill:#f9c2c2;}.cls-5{fill:#cfcfcf;}.cls-6{fill:#f99;}.cls-7{fill:#a84a4a;}.cls-8{fill:#fff;}.cls-9{fill:#b46639;}.cls-10{fill:#bf6d43;}.cls-11{fill:#e9a532;}</style></defs><title>Asset 11</title><g id="Layer_2" data-name="Layer 2"><g id="OBJECTS"><path d="M80.17,33.89c.2,1.34.37,2.68.52,4,.35,3,.8,6.08,1,9.14.29,3.46-.24,7-.48,10.45-.56,8.19-2,16.38-5.34,23.93-.58,1.31-1.29,3.42-2.92,3.84-2,.52-4.06-1.26-5.92-1.79-2-.58-3.42,1.06-5.29.72-.61-.11-1.18-.6-1.89-.55-.44,0-.84.46-1.23.51-1.41.19-2.69-.58-4.09-.53a13.23,13.23,0,0,1-2.69.18,8.71,8.71,0,0,0-2.65-.35,7.41,7.41,0,0,1-2.54.35c-3.5-.44-7-.8-10.5-1.15a36.43,36.43,0,0,1-7.71-1.86,50.16,50.16,0,0,0-6.61-1.51c-2.31-.43-4.21-1.85-6.39-2.31-1.7-.35-3.67-.13-5.45-1a10.48,10.48,0,0,1-3.38-2.76s0,0,0,0a.18.18,0,0,1,0,.23,5.69,5.69,0,0,1-2.77-1.27C-.57,68.74,0,60.91,0,55.83.05,49,.34,42.11,1,35.3c.64-6.2,1.23-12,5.22-17A66,66,0,0,1,12,11.77c2.8-2.65,5.14-5.31,8.56-7.22A34.84,34.84,0,0,1,31.73.79,79.55,79.55,0,0,1,47.39.09,38.42,38.42,0,0,1,61.66,3.16,26,26,0,0,1,73,12.54C77.11,18.6,79.1,26.72,80.17,33.89Z"/><path class="cls-1" d="M45.23,85.49s-.43-6.23,0-7.16c0,0,8.4-.28,14.87-4,3-1.7,5.31-3.73,9.42-9.66.65-.93,3.93,1,7-1C84.17,58.88,81.63,51,72.9,51.56a110.42,110.42,0,0,1,2-13.52V32.69C73.18,25.93,70.08,18,64.45,13.25A36.26,36.26,0,0,0,41,5.47l-3.49.1A37.46,37.46,0,0,0,27.06,7.83l-2.21.9a33.27,33.27,0,0,0-7.33,4.52C11.89,18,8.79,25.93,7.1,32.69V38a110.42,110.42,0,0,1,2,13.52C.34,51-2.2,58.88,5.41,63.67c3.1,2,6.38.07,7,1,4.11,5.93,6.47,8,9.42,9.66,6.47,3.72,14.86,4,14.86,4,.45.93,0,7.16,0,7.16A16.28,16.28,0,0,1,32.3,88s6.27,7.09,9.56,7.58c0,0,6.88-6.2,7.65-7.65A13.48,13.48,0,0,1,45.23,85.49Z"/><path class="cls-1" d="M61.45,100.25c.16,2.77.66,9.83.42,11.66-.07.56-2.35.49-6.94.49l-.56-8.7Z"/><path class="cls-2" d="M9.78,59.17c-.32-2.4-2.37-5.4-4.45-4.16-.58.35-.67,1.3-.7,1.9-.1,1.85.73,4.2,2.68,4.75S10,60.85,9.78,59.17Z"/><path class="cls-2" d="M72.15,59.17c.32-2.4,2.37-5.4,4.45-4.16.58.35.66,1.3.7,1.9.1,1.85-.73,4.2-2.68,4.75S71.92,60.85,72.15,59.17Z"/><path d="M25,34a2,2,0,0,1,0-.23c0-.07,0-.16,0-.26a.68.68,0,0,1,.11-.33,2.81,2.81,0,0,1,.23-.39,1.82,1.82,0,0,1,.34-.34,1.15,1.15,0,0,1,.42-.3c.15-.08.31-.17.47-.24l.51-.12a2.05,2.05,0,0,1,.49-.06,3,3,0,0,1,.88.09,2.34,2.34,0,0,1,.57.22l.2.11-.23,0a3.56,3.56,0,0,0-.57.06l-.37.06a3.14,3.14,0,0,0-.4.08c-.27,0-.55.15-.83.23l-.39.17a1.55,1.55,0,0,0-.36.19,2.06,2.06,0,0,0-.33.2l-.26.21c-.19.12-.28.34-.38.44Z"/><path class="cls-3" d="M40.76,38.32s0,.34.06.93.07,1.43,0,2.45c0,.51,0,1,0,1.62,0,.28,0,.58,0,.87s.07.6.1.9l.09.93c.06.27.13.63.2.93a4.81,4.81,0,0,0,.32.82l.21.4.28.35.13.18,0,0,0,0,.09.08a2.36,2.36,0,0,0,.35.31c.22.18.52.37.79.57a3.27,3.27,0,0,1,1.37,1.75A3.07,3.07,0,0,1,45,52a2.11,2.11,0,0,1-.5,1.57,3.26,3.26,0,0,1-1.55.91,5,5,0,0,1-1.42.21,5.6,5.6,0,0,1-1.08-.08,2.81,2.81,0,0,1-.68-.18l-.22-.1a3.81,3.81,0,0,0,.91.09,6.09,6.09,0,0,0,2.3-.48,2.77,2.77,0,0,0,1.15-.84,1.24,1.24,0,0,0,.25-.63c0-.11,0-.21,0-.32a3.91,3.91,0,0,0-.11-.43,2.62,2.62,0,0,0-1.08-1.17,6.83,6.83,0,0,1-1.63-1.37L41,48.7l-.25-.5a5.48,5.48,0,0,1-.38-1.05c-.08-.35-.12-.63-.18-1s0-.66,0-1,0-.64,0-1,0-.61.07-.9c0-.59.09-1.14.16-1.64.14-1,.28-1.83.34-2.42S40.76,38.32,40.76,38.32Z"/><path class="cls-4" d="M19.63,55.13c1.24.65,4.79,1.16,4.8-1s-3.69-2.29-5.06-1.69C17.57,53.23,18.08,54.32,19.63,55.13Z"/><path d="M10.23,43.89a24.91,24.91,0,0,1,2.11-5.79,79.18,79.18,0,0,1,3.92-7A55.94,55.94,0,0,0,22.58,17.2a35.47,35.47,0,0,0,6.5,7.63c5.42,4.89,13,6.65,20.26,6.24-.58-.68-3-5.6-3.58-6.24.56,2.37,6.59,5.49,7.66,6.24,4,2.76,8.8,3.89,13.19,5.86,6.52,2.91,4.93,10.86,5.51,16.91,3.15-3.44,3.88-9.17,4-13.63a44.7,44.7,0,0,0-2-14.84c-2.42-7.83-10-15.8-17.65-18.93-6-2.28-15.83-2.19-22-1.48-4.41.43-19.7,7.12-21.83,10.11,0,0-6.19,8.74-7.54,17.18C4.61,35.84,6.75,49.64,8,53.9c0,0,.71,2.55,1.14.82.76-3.08.68-6.45,1-9.6A11,11,0,0,1,10.23,43.89Z"/><path d="M54.9,34l-.15-.17c-.1-.1-.19-.32-.38-.44a2.65,2.65,0,0,1-.26-.21,2.06,2.06,0,0,0-.33-.2,1.23,1.23,0,0,0-.36-.19L53,32.66c-.28-.08-.56-.18-.83-.23s-.27-.08-.4-.09l-.37-.05a3.56,3.56,0,0,0-.57-.06l-.23,0,.2-.11a2.28,2.28,0,0,1,.58-.22,2.87,2.87,0,0,1,.87-.09,2.05,2.05,0,0,1,.49.06l.51.12.48.24a1.21,1.21,0,0,1,.41.3,1.82,1.82,0,0,1,.34.34,2.81,2.81,0,0,1,.23.39.68.68,0,0,1,.11.33c0,.1,0,.19,0,.26A2,2,0,0,1,54.9,34Z"/><path class="cls-4" d="M61.55,55.13c-1.25.65-4.8,1.16-4.81-1s3.7-2.29,5.06-1.69C63.61,53.23,63.1,54.32,61.55,55.13Z"/><path class="cls-5" d="M49.46,87.57c3.58,1.16,12.47,5.34,12,12.71-.06.94-7.42,3.29-7.4,4v8H45.11l-3.77,0-7.64.06c-1.71,0-3.84.08-6.66.07l.14-8.13c0-.7-6.6-3-6.66-4-.48-7.37,8.41-11.55,12-12.71,0,0,7.79,6.19,9.19,6C42.89,93.42,49.46,87.57,49.46,87.57Z"/><path class="cls-1" d="M20.52,100.25c-.16,2.77-.66,9.83-.42,11.66.07.56,2.35.49,6.94.49l.14-8.56Z"/><path class="cls-6" d="M32.82,64.44A18.36,18.36,0,0,0,41,66.21a19.06,19.06,0,0,0,7.39-1.32C44.67,59.64,37,60.75,32.82,64.44Z"/><path class="cls-7" d="M54.05,60.26a100.93,100.93,0,0,1-26.13,0,11.74,11.74,0,0,0,4.9,4.18,13,13,0,0,1,15.57.45A11.06,11.06,0,0,0,54.05,60.26Z"/><path d="M24.83,47A9.57,9.57,0,0,0,31,48.69c-1.25-1.4-4.17-1.67-6-1.81"/><path d="M55.86,47a9.57,9.57,0,0,1-6.12,1.67c1.25-1.4,4.17-1.67,6-1.81"/><path class="cls-8" d="M30.59,87.68a15.57,15.57,0,0,1,2.89-1.16c.34.44,5.48,5.07,6.68,6.14.34.31.67.48.64.93-.07,1-1.18.82-1.86.81a10.36,10.36,0,0,1-5.8-2.19c-.94-.75-3.08-3.19-2.55-4.53"/><path class="cls-8" d="M50.69,87.68a15.57,15.57,0,0,0-2.89-1.16c-.34.44-5.47,5.07-6.68,6.14-.34.31-.67.48-.64.93.07,1,1.18.82,1.86.81a10.36,10.36,0,0,0,5.8-2.19c.94-.75,3.08-3.19,2.55-4.53"/><path class="cls-8" d="M20.47,99.85c-.35.62-.32,3.24.59,1.75.48.86.53,1.82,1.32.59.43.89.79,1.85,1.45.53.34.82.92,2.08,1.69.74,0,.32.19,1,.52,1.1s.67-.22.93-.51a1.85,1.85,0,0,0,.36.78c.28-.13.37-.53.51-.81-.87-1-6.86-4-7.25-4.17"/><path class="cls-8" d="M61.49,99.49c.35.62.32,3.24-.59,1.74-.47.87-.53,1.83-1.32.6-.42.89-.79,1.85-1.45.52-.33.83-.92,2.09-1.69.75,0,.32-.19,1-.51,1.1s-.68-.22-.93-.51a2,2,0,0,1-.36.78c-.29-.13-.37-.53-.52-.81.87-1,6.86-4,7.26-4.17"/><polygon class="cls-9" points="27.72 89.73 27.18 103.84 27.04 112.41 54.93 112.41 54.24 89.73 51.62 88.45 50.6 100.87 30.83 100.78 29.77 88.66 27.72 89.73"/><rect class="cls-10" x="31.11" y="104.27" width="19.37" height="8.14"/><path class="cls-11" d="M29.9,102a1,1,0,1,1-1-1A1,1,0,0,1,29.9,102Z"/><path class="cls-11" d="M53.82,102a1,1,0,0,1-2,0,1,1,0,1,1,2,0Z"/></g></g></svg>