<svg xmlns="http://www.w3.org/2000/svg" xmlns:xlink="http://www.w3.org/1999/xlink" viewBox="0 0 80.56 118.92"><defs><style>.cls-1{fill:none;}.cls-2{fill:#ffd7c7;}.cls-3{fill:#a07f4a;}.cls-4{fill:#e59a80;}.cls-5{fill:#c54343;}.cls-6{fill:#f99;}.cls-7{fill:#a84a4a;}.cls-8{fill:#f2bdaa;}.cls-9{fill:#c4974e;}.cls-10{clip-path:url(#clip-path);}.cls-11{fill:#f1fbff;}.cls-12{fill:#bed8e3;}.cls-13{fill:#a92e2e;}</style><clipPath id="clip-path"><path class="cls-1" d="M50.77,93.63a18.05,18.05,0,0,1-10.18,2.91,18,18,0,0,1-10.17-2.9c-1.44.7-12.33,26.29-6.39,25.23l36.05-.11C63,118.76,52.22,94.33,50.77,93.63Z"/></clipPath></defs><title>Asset 15</title><g id="Layer_2" data-name="Layer 2"><g id="OBJECTS"><path class="cls-2" d="M40.48,12a36.2,36.2,0,0,1,23.46,7.78c5.63,4.79,8.73,12.67,10.42,19.43v5.35a110.58,110.58,0,0,0-2,13.53c8.73-.57,11.27,7.32,3.66,12.11-3.1,2-6.38.07-7,1-4.11,5.92-6.47,8-9.42,9.66-6.47,3.72-14.86,4-14.86,4-.45.93,0,7.17,0,7.17a41.19,41.19,0,0,1,4.79,1.36c-1.22,1.82-.75,3.76-8.22,5H39.86a10.82,10.82,0,0,1-8.42-5A41.19,41.19,0,0,1,36.23,92s.43-6.24,0-7.17a33.76,33.76,0,0,1-13.93-4c-3-1.7-6.24-3.76-10.35-9.68-.65-.93-3.93,1-7-1C-2.7,65.4-.17,57.51,8.56,58.08a112.55,112.55,0,0,0-2-13.53V39.2C8.28,32.44,11.38,24.56,17,19.77a35.64,35.64,0,0,1,20-7.68Z"/><path class="cls-3" d="M29.92,38.33c1-.36,2.73-1,2.48-1.7s-1.36-.26-1.81-.19a4.52,4.52,0,0,0-2.63,1c-.36.37-.91,1.07-.29,1.38a1.87,1.87,0,0,0,1.62-.21Z"/><path d="M31.86,55.36c1.57-.32,1.33-2.59.91-3.69a2.47,2.47,0,0,0-1.27-1.52,1.4,1.4,0,0,0-1.69.92C29.41,52.42,29.78,55.77,31.86,55.36Z"/><path class="cls-4" d="M39.09,64l.21.06a1.26,1.26,0,0,0,.25.07h.34a4.31,4.31,0,0,0,2-.68,5.62,5.62,0,0,0,2-2c.22-.45.2-.8-.1-1s-.94-.71-1.39-1.13a9.56,9.56,0,0,1-1.26-1.46c-.18-.26-.37-.52-.52-.78s-.26-.56-.38-.84a7.07,7.07,0,0,1-.5-1.65A12.1,12.1,0,0,1,39.65,53a12.55,12.55,0,0,1,.19-1.28,3.78,3.78,0,0,1,.29-.93c.19-.51.31-.79.31-.79s0,.32-.12.84a3.54,3.54,0,0,0-.11.93c0,.37,0,.78,0,1.21s.12.91.26,1.39a9.06,9.06,0,0,0,.57,1.45l.38.73.5.68a8.93,8.93,0,0,0,1.12,1.26c.43.42.92.73,1.41,1.18a1.26,1.26,0,0,1,.37.5,1.19,1.19,0,0,1,.14.61,2.06,2.06,0,0,1-.3,1,4.33,4.33,0,0,1-1.22,1.32,6.57,6.57,0,0,1-1.34.77,4.21,4.21,0,0,1-2.25.36,1.39,1.39,0,0,1-.6-.22Z"/><path class="cls-3" d="M50.17,38.33c-1-.36-2.74-1-2.49-1.7s1.36-.26,1.81-.19a4.5,4.5,0,0,1,2.63,1c.36.37.91,1.07.29,1.38a1.87,1.87,0,0,1-1.62-.21Z"/><path d="M48.22,55.36c-1.57-.32-1.33-2.59-.91-3.69a2.47,2.47,0,0,1,1.27-1.52,1.41,1.41,0,0,1,1.7.92C50.68,52.42,50.3,55.77,48.22,55.36Z"/><path class="cls-5" d="M61.36,110.78c-.2-3.75-.87-7.65-2.33-9.76-2.4-3.35-4.29-5.76-9.52-7.65-2.07,3.5-7.17,4.78-9,4.78-3.49,0-7.88-2.61-9-4.78-5.23,1.89-7.12,4.3-9.52,7.65-1.45,2.11-2.13,6-2.33,9.76a48.68,48.68,0,0,0,.25,7.85c.07.55,4,.15,8.6.15,2.85,0,9.9,0,12.39,0l3.77,0,7.91,0c4.59,0,8.78.2,8.85-.35A48.43,48.43,0,0,0,61.36,110.78Z"/><path class="cls-6" d="M31.88,72.16a18.29,18.29,0,0,0,8.18,1.77,19,19,0,0,0,7.38-1.32C43.72,67.36,36,68.47,31.88,72.16Z"/><path class="cls-7" d="M53.1,68A100.84,100.84,0,0,1,27,68a11.65,11.65,0,0,0,4.9,4.18c4.72-3.13,11-3.33,15.56.45A11,11,0,0,0,53.1,68Z"/><path class="cls-8" d="M9.27,65.68c-.32-2.4-2.37-5.4-4.45-4.16-.58.35-.66,1.31-.7,1.91-.1,1.85.73,4.2,2.68,4.75S9.5,67.37,9.27,65.68Z"/><path class="cls-8" d="M71.64,65.68c.32-2.4,2.37-5.4,4.45-4.16.58.35.66,1.31.7,1.91.1,1.85-.73,4.2-2.69,4.75S71.41,67.37,71.64,65.68Z"/><path class="cls-9" d="M53.37,21.69c.74,6.06-7.92,10.72-11.63,14.22,1.24-3.26,2.48-6.29,3.47-9.56-4,6.3-11.59,8.14-19.5,10.24,3-2.69,4-7.11,5.87-10.54a49,49,0,0,1-8.29,9.56c-2.93,2.79-6.14,3.92-9.47,5.89a15.42,15.42,0,0,0-.22-4.9,24,24,0,0,1-.88,6.63,85,85,0,0,0-1.89,9,47.82,47.82,0,0,1-1.52,9c-2.87-6-6.12-12.38-6.62-19.12-.07-.84-.53-6.92.28-7.24a4.72,4.72,0,0,0-2,2c0-2-.07-3.94,1-5.63C1.27,31.8.55,32.4.05,33c-.66-6.67,5.4-14.73,10.28-18.76C14,11.19,20.72,8.4,25.67,8.4c-4.46-1.17-9.16,0-13.61,0,9.65-5.6,29.19-8.63,38.59-.7,0-2.8-.49-5.37,1.48-7.7-.25,3,1,6.06,1.49,9.09,1-3.26,4-7.69,7.42-8.39,0,2.73-2,4.56-2.81,7-.91,2.86,1.41,2.81,3.59,3.52a27,27,0,0,1,8.35,4.1c3,2.28,7,7.66,7.28,11.53a32.09,32.09,0,0,0-3.86-2.75c2.3,1.18,3.33,7,3.62,9.29a36.8,36.8,0,0,1,.27,10.37,50,50,0,0,1-2.66,10.44c-.68,1.8-1.21,4.49-3.25,5.22C71.35,59.49,68,44.1,67.9,43c-.15-1.61-1.6-8.26-.68-9.37-2.22,2.68-1.68,5.74-2.9,5.32-3.79-1.32-5.26-12.55-6.25-15.58-.49,2.33-.74,4.9-1,7.23a5,5,0,0,1-1-1.4Z"/><g class="cls-10"><polygon class="cls-11" points="47.65 118.92 32.99 118.91 33.09 92.96 47.66 92.74 47.65 118.92"/></g><path class="cls-12" d="M40.46,98.68a23.84,23.84,0,0,1-8.09-1.28l.35-.94a22.59,22.59,0,0,0,7.73,1.22,26.63,26.63,0,0,0,8-1.3l.37.93A27.13,27.13,0,0,1,40.46,98.68Z"/><circle class="cls-13" cx="49.84" cy="106.18" r="0.78"/><path class="cls-13" d="M30.7,106.18c0-.12.35-.22.79-.22s.77.1.77.22-.34.23-.77.23S30.7,106.31,30.7,106.18Z"/><circle class="cls-13" cx="49.84" cy="115.75" r="0.78"/><path class="cls-13" d="M30.7,115.75c0-.13.35-.23.79-.23s.77.1.77.23-.34.22-.77.22S30.7,115.87,30.7,115.75Z"/><path class="cls-13" d="M36.42,87.05c-2.47-.13-4.77,1.31-5.89,1.85-.57,1.58-2.85,8.16-3,10-.2,2.72,3.13-3.82,3.77-5.27.82,3.86,1,8,1.77,11.85,0-9.21.09-6.53.43-11A4.62,4.62,0,0,1,36.23,92Z"/><path class="cls-13" d="M44.53,87c2.47-.13,5,1.32,6.13,1.86.56,1.58,2.84,8.16,3,10,.2,2.72-2.88-3.82-3.51-5.27-.82,3.86-1.76,7.91-2.52,11.77,0-9.21.08-6.6-.26-11.1A4.22,4.22,0,0,0,44.72,92Z"/></g></g></svg>