<svg xmlns="http://www.w3.org/2000/svg" viewBox="0 0 83.35 110.76"><defs><style>.cls-1{fill:#f2f7f9;}.cls-2{fill:#5db2ae;}.cls-3{fill:#394042;}.cls-4{fill:#ffd7c7;}.cls-5{fill:#e59a80;}.cls-6{fill:#f2bdaa;}.cls-7{fill:#f9c2c2;}.cls-8{fill:#fff;}.cls-9{fill:#ebb03b;}.cls-10{fill:#5b6468;}.cls-11{fill:#565053;}.cls-12{fill:#272425;}</style></defs><title>Asset 10</title><g id="Layer_2" data-name="Layer 2"><g id="OBJECTS"><path class="cls-1" d="M32.94,85.91V83.79a35.37,35.37,0,0,1,14.63,0c1,.24,0,4.92,0,4.92l-4-.36L32.94,87.7Z"/><path class="cls-2" d="M15.08,65a68.74,68.74,0,0,1-9.83,8.85C2.6,76-1.48,79.17.55,83c.2-.29.53-.51.71-.8A6.81,6.81,0,0,0,1.07,87c.84,2.16,2,1.67,1.4-.21-.62,2.84,4.76,9.43,5,5.26,1.58,1,2.16,3.53,4.61,3.12,1.18-.2,2.25-1.63,3.14-2.35,3.9.88,5.1-.44,6-4.38a22.7,22.7,0,0,0,.48-6.54c-.08-2.24-.93-4.34-1.21-6.55-.67-5.32-2.95-9.1-4.67-14.11"/><path class="cls-3" d="M19.06,69.89a19.22,19.22,0,0,1-3.34-1.73c-.67-.42-1.91-1.74-2.68-1.82s-3.39,2.08-3,2.93c.92,2.19,2.86,3.28,5,4.16,1.28.54,4.71,1.88,5.7,1a3.86,3.86,0,0,0,.58-2.74C21,70.28,20.41,70.39,19.06,69.89Z"/><path class="cls-2" d="M62.56,65a69.1,69.1,0,0,0,10.61,7.9c2.84,1.8,7.2,4.62,5.54,8.6-.23-.26-.58-.46-.79-.72a6.78,6.78,0,0,1,.64,4.76c-.63,2.23-1.85,1.85-1.41-.07.88,2.76-3.86,9.83-4.51,5.7-1.47,1.19-1.82,3.72-4.29,3.54-1.19-.08-2.4-1.41-3.35-2-3.81,1.25-5.12,0-6.38-3.79a23,23,0,0,1-1.08-6.47c-.14-2.24.52-4.41.59-6.64.16-5.36,2.08-9.33,3.33-14.48"/><path class="cls-3" d="M59.05,70.15a18.08,18.08,0,0,0,3.16-2c.64-.49,1.74-1.91,2.5-2.06s3.58,1.75,3.3,2.63c-.72,2.26-2.55,3.53-4.55,4.61-1.23.65-4.51,2.3-5.59,1.5A3.86,3.86,0,0,1,57,72.14C57.18,70.72,57.76,70.78,59.05,70.15Z"/><path class="cls-2" d="M27,3.82a26,26,0,0,1,3.14-1.57,46.15,46.15,0,0,1,28-.16c5,1.54,9.44,4.94,13.59,8,13.44,10,15.66,37.17,4.41,49.44C70.19,66,63.05,72.23,54.28,73.63c-9.8,1.55-23.93,2.25-33.67-.23C8.9,70.43,3.82,60.89,1.49,50-2.61,30.8,5.76,7.6,27,3.82"/><path class="cls-4" d="M44.58,83.85s-.43-6.24,0-7.17c0,0,8.4-.27,14.87-4C62.41,71,64.76,69,68.88,63c.65-.93,3.93,1,7-1,7.6-4.79,5.07-12.68-3.66-12.11a110.14,110.14,0,0,1,2-13.52V31C72.53,24.28,69.43,16.4,63.8,11.61A36.23,36.23,0,0,0,40.33,3.83l-3.48.1A37.81,37.81,0,0,0,26.41,6.18l-2.21.91a32.53,32.53,0,0,0-7.33,4.52C11.24,16.4,8.14,24.28,6.45,31V36.4a112.1,112.1,0,0,1,2,13.52C-.31,49.35-2.85,57.24,4.76,62c3.1,2,6.38.07,7,1,4.11,5.92,6.47,8,9.42,9.66,6.46,3.72,14.86,4,14.86,4,.45.93,0,7.17,0,7.17-2.07,1.73-3.46,1.9-4.44,2.46,0,0,6.26,7.09,9.56,7.58,0,0,6.88-6.2,7.65-7.65A13.48,13.48,0,0,1,44.58,83.85Z"/><path class="cls-5" d="M31.51,59s.28.13.76.39l.88.41,1.17.43c.44.12.9.3,1.41.4l.78.19.82.14c.55.12,1.14.12,1.73.2s1.2.05,1.8.08,1.24,0,1.82-.06,1.16-.07,1.72-.19a14.68,14.68,0,0,0,1.6-.3c.52-.1,1-.26,1.42-.38l1.17-.43.88-.4c.48-.26.76-.39.76-.39s-.23.21-.65.56a12.06,12.06,0,0,1-1.95,1.19,12.71,12.71,0,0,1-1.42.57l-.8.26-.85.19a15.19,15.19,0,0,1-1.83.28c-.63.06-1.21.06-1.87.09s-1.27,0-1.89-.11a14.85,14.85,0,0,1-1.81-.3l-.85-.21-.79-.26a13.85,13.85,0,0,1-1.42-.59,13,13,0,0,1-1.94-1.21C31.74,59.17,31.51,59,31.51,59Z"/><path class="cls-6" d="M9.13,57.52c-.33-2.4-2.38-5.39-4.45-4.15-.58.35-.67,1.3-.7,1.9-.11,1.85.73,4.2,2.68,4.75S9.35,59.21,9.13,57.52Z"/><path class="cls-6" d="M71.5,57.52c.32-2.4,2.37-5.39,4.44-4.15.59.35.67,1.3.71,1.9.1,1.85-.73,4.2-2.69,4.75S71.27,59.21,71.5,57.52Z"/><path class="cls-3" d="M27.39,32.33s0-.09,0-.24a2.62,2.62,0,0,1,0-.27.7.7,0,0,1,.09-.35,4.33,4.33,0,0,1,.22-.42,2.44,2.44,0,0,1,.35-.37,1.61,1.61,0,0,1,.42-.32l.49-.24.52-.13A2.24,2.24,0,0,1,30,30a2.66,2.66,0,0,1,.89.12,1.85,1.85,0,0,1,.58.27,1.72,1.72,0,0,1,.2.14l-.24.05c-.15,0-.34,0-.57.12l-.36.07c-.13,0-.26.08-.39.1s-.53.16-.8.24l-.38.16a1.27,1.27,0,0,0-.35.17c-.1.07-.25.11-.33.17a2.48,2.48,0,0,1-.26.19.81.81,0,0,0-.24.21,1.9,1.9,0,0,1-.18.2Z"/><path class="cls-5" d="M40.19,42.21s0,.27.09.72.1,1.11.17,1.9c.06.38.09.8.17,1.23.05.21.08.43.13.65s.13.42.2.64a4.24,4.24,0,0,0,.65,1.18,2,2,0,0,0,.19.26,1.32,1.32,0,0,0,.26.21,4.14,4.14,0,0,0,.6.37,7.16,7.16,0,0,1,1.41.9,1.84,1.84,0,0,1,.53.85,2.2,2.2,0,0,1,0,1v0h0l0,.07v0l0,.08-.06.17a2.52,2.52,0,0,1-.15.34,5.08,5.08,0,0,1-.47.68c-.18.17-.34.34-.51.49l-.54.37a3.64,3.64,0,0,1-1,.43,2.85,2.85,0,0,1-.86.12,1.44,1.44,0,0,1-.54-.1l-.18-.05h.19a2.08,2.08,0,0,0,.52,0,2.55,2.55,0,0,0,.74-.28,4.68,4.68,0,0,0,.85-.55l.41-.39.39-.47c.11-.16.17-.33.28-.48s.06-.23.1-.33l0-.18,0-.09v0h0s0,.1,0,0h0v0a1,1,0,0,0-.34-1,6.87,6.87,0,0,0-1.24-.74,3.49,3.49,0,0,1-1.34-1.12,4.7,4.7,0,0,1-.72-1.5c0-.26-.11-.51-.16-.76s-.05-.48-.07-.72a11.26,11.26,0,0,1,0-1.3C40,43.25,40.19,42.21,40.19,42.21Z"/><path class="cls-7" d="M19,53.48c1.24.65,4.79,1.17,4.8-1s-3.7-2.3-5.06-1.69C16.92,51.58,17.43,52.67,19,53.48Z"/><path d="M29.45,48.19c1.6-.1,1.67-2.38,1.4-3.52A2.45,2.45,0,0,0,29.79,43a1.39,1.39,0,0,0-1.8.69C27.41,45,27.33,48.33,29.45,48.19Z"/><path class="cls-3" d="M52.49,31.37l-.18-.16c-.05-.06-.12-.12-.18-.2a.72.72,0,0,0-.24-.22,2.4,2.4,0,0,1-.26-.18c-.08-.07-.22-.11-.32-.18a2,2,0,0,0-.36-.17l-.38-.16c-.27-.07-.53-.18-.8-.23s-.26-.09-.39-.11a2.29,2.29,0,0,1-.36-.07c-.23-.07-.42-.07-.57-.11l-.23-.06.19-.14a1.87,1.87,0,0,1,.58-.26,2.45,2.45,0,0,1,.89-.13,1.8,1.8,0,0,1,.51.05l.52.12c.17.07.33.17.49.25a1.62,1.62,0,0,1,.43.31,3.92,3.92,0,0,1,.34.37,4.41,4.41,0,0,1,.22.43.58.58,0,0,1,.09.34,2.62,2.62,0,0,1,0,.27Z"/><path class="cls-7" d="M60.89,53.48c-1.24.65-4.79,1.17-4.8-1s3.7-2.3,5.06-1.69C63,51.58,62.45,52.67,60.89,53.48Z"/><path d="M50.39,48.2c-1.61-.08-1.71-2.37-1.45-3.51A2.5,2.5,0,0,1,50,43a1.42,1.42,0,0,1,1.82.67C52.38,44.94,52.5,48.3,50.39,48.2Z"/><path class="cls-4" d="M60.8,98.61c.15,2.77.65,9.83.42,11.66-.07.55-2.35.48-6.94.49l-.14-8.5Z"/><path class="cls-3" d="M49.34,85.22c3.58,1.16,5.28,4.61,4.8,12-.06,1,0,4.74,0,5.43l.14,8.14c-4.85,0-7.65-.12-9.83-.12l-3.76,0-7.64.07c-1.72,0-3.85.07-6.67.07l.14-8.14c0-.69.07-4.48,0-5.43-.48-7.36,2.35-10.83,5.93-12a18,18,0,0,1,5.62,3.52c1.6,1.63,2,4.34,2.26,4.35l2.29-4.92Z"/><path class="cls-4" d="M19.86,98.61c-.15,2.77-.65,9.83-.42,11.66.07.55,2.35.48,6.94.49l.14-8.57Z"/><path class="cls-8" d="M41.81,96.28a.92.92,0,1,1-.91-.91A.91.91,0,0,1,41.81,96.28Z"/><path class="cls-8" d="M41.81,100.11a.92.92,0,1,1-.91-.92A.91.91,0,0,1,41.81,100.11Z"/><path class="cls-9" d="M29.52,85.91s-7.8,3.06-9.29,9.65-.79,15.2-.79,15.2H29.52Z"/><path class="cls-9" d="M51,85.91s7.79,3.06,9.29,9.65.78,15.2.78,15.2H51Z"/><path class="cls-2" d="M9.69,42.26A21,21,0,0,1,11,36.88a59.29,59.29,0,0,1,4.7-9.52,68.15,68.15,0,0,1,8-9.76c-1,6,8.34,14.12,13.37,14.77-.89-2-3.53-5-4.93-8,6.06,5.95,15.36,12.28,24.53,9.39-1.41-1-6.47-6.83-8.19-9.27a73.41,73.41,0,0,0,11.56,8.62c3,1.61,5.25,3.14,8.33,4.22C71.9,38.58,72,39.21,72,41.93c0,1.74.38,9.17-.56,10.33,5.2-6.48,4.9-19.85,2-28.53-2.42-7.83-10-15.8-17.65-18.93-6-2.28-15.83-2.19-22-1.48-4.41.43-19.7,7.12-21.83,10.11,0,0-6.19,8.73-7.54,17.18C4,34.2,6.1,48,7.3,52.26c0,0,.72,2.55,1.14.81C9.32,49.5,9.23,45.85,9.69,42.26Z"/><path class="cls-10" d="M10.87,63a1.65,1.65,0,0,1-1.43,1.8,1.84,1.84,0,0,1,0-3.59A1.64,1.64,0,0,1,10.87,63Z"/><path class="cls-10" d="M72.66,63a1.47,1.47,0,1,1-1.43-1.79A1.65,1.65,0,0,1,72.66,63Z"/><rect class="cls-11" x="51.66" y="87.06" width="1" height="23.58"/><rect class="cls-11" x="27.75" y="87.06" width="1" height="23.58"/><path class="cls-8" d="M40.33,93.63l-1.62-6.31c-3.52-.14-5.77-3.53-5.77-3.53L27,86.58l5.15,5.07,4.8-3.3Z"/><path class="cls-8" d="M40.19,93.63l1.62-6.31c3.52-.14,5.76-3.53,5.76-3.53l6,2.79-5.15,5.07-4.8-3.3Z"/><path class="cls-12" d="M24.62,56.31A11.68,11.68,0,1,1,36.3,44.63,11.69,11.69,0,0,1,24.62,56.31Zm0-22.36A10.68,10.68,0,1,0,35.3,44.63,10.69,10.69,0,0,0,24.62,34Z"/><path class="cls-12" d="M55.34,56.31A11.68,11.68,0,1,1,67,44.63,11.69,11.69,0,0,1,55.34,56.31Zm0-22.36A10.68,10.68,0,1,0,66,44.63,10.69,10.69,0,0,0,55.34,34Z"/><path class="cls-12" d="M44.16,45.13a.51.51,0,0,1-.39-.19,4.61,4.61,0,0,0-3.42-2c-2.26-.07-4.15,2-4.17,2a.5.5,0,1,1-.75-.67c.09-.1,2.21-2.47,5-2.36a5.49,5.49,0,0,1,4.17,2.38.5.5,0,0,1-.39.82Z"/><rect class="cls-12" x="11.72" y="42.87" width="1.72" height="1.75"/><rect class="cls-12" x="66.52" y="42.87" width="1.72" height="1.75"/><path class="cls-12" d="M6.74,50.42a.51.51,0,0,1-.34-.14.5.5,0,0,1,0-.71l5.84-6.17a.5.5,0,0,1,.71,0,.49.49,0,0,1,0,.7L7.11,50.26A.52.52,0,0,1,6.74,50.42Z"/><path class="cls-12" d="M73,50.39a.52.52,0,0,1-.37-.16L67,44.08a.5.5,0,0,1,.74-.67l5.59,6.14a.5.5,0,0,1,0,.71A.46.46,0,0,1,73,50.39Z"/></g></g></svg>