<svg xmlns="http://www.w3.org/2000/svg" viewBox="0 0 79.63 95.63"><defs><style>.cls-1{fill:#350304;}.cls-2{fill:#bf8158;}.cls-3{fill:#aa6944;}.cls-4{fill:#fff;}.cls-5{fill:#352215;}.cls-6{fill:#fcb316;}</style></defs><title>Asset 6</title><g id="Layer_2" data-name="Layer 2"><g id="OBJECTS"><path class="cls-1" d="M27.14,58.69a11.51,11.51,0,0,0-6.65,2.14,13.73,13.73,0,0,0,.18-2.14c0-6.32-4.63-11.45-10.33-11.45S0,52.37,0,58.69a12,12,0,0,0,3.41,8.48A12.16,12.16,0,0,0,.93,74.6c0,6.32,4.63,11.45,10.34,11.45a9.83,9.83,0,0,0,7.33-3.38,11.83,11.83,0,0,0,8.54,3.75c6.91,0,12.51-6.21,12.51-13.87S34.05,58.69,27.14,58.69Z"/><path class="cls-1" d="M52.5,58.69a11.56,11.56,0,0,1,6.65,2.14A12.61,12.61,0,0,1,59,58.69c0-6.32,4.63-11.45,10.34-11.45s10.33,5.13,10.33,11.45a12,12,0,0,1-3.41,8.48A12.16,12.16,0,0,1,78.7,74.6c0,6.32-4.63,11.45-10.34,11.45A9.83,9.83,0,0,1,61,82.67a11.81,11.81,0,0,1-8.53,3.75C45.58,86.42,40,80.21,40,72.55S45.58,58.69,52.5,58.69Z"/><rect class="cls-2" x="32.17" y="72.55" width="14.82" height="16.71"/><path class="cls-2" d="M15.73,46.89c0,3.84-2.77,7-6.23,7S3.22,50.81,3.2,47,6,40,9.43,40,15.71,43.06,15.73,46.89Z"/><path class="cls-3" d="M13.1,46.91A3.86,3.86,0,0,1,9.49,51a4.05,4.05,0,0,1-.05-8.06A3.84,3.84,0,0,1,13.1,46.91Z"/><path class="cls-2" d="M76,46.5c0,3.83-2.77,7-6.23,7s-6.28-3.06-6.3-6.9,2.77-6.95,6.23-7S75.93,42.67,76,46.5Z"/><path class="cls-3" d="M73.33,46.52a3.66,3.66,0,1,1-3.66-4A3.85,3.85,0,0,1,73.33,46.52Z"/><path class="cls-2" d="M69.55,49c.08,14.83-10.81,27-24.21,27.13l-11.53.07c-13.39.09-24.41-12-24.49-26.81L9.26,37.76c-.08-14.84,10.81-27,24.2-27.13L45,10.55c13.39-.09,24.41,12,24.49,26.82Z"/><path class="cls-3" d="M42.94,56.33c0,1.29-1.49,2.35-3.34,2.36s-3.35-1-3.36-2.32S37.73,54,39.58,54,42.93,55,42.94,56.33Z"/><path class="cls-4" d="M39.59,63H31.3s.73,6.26,8.29,6.26S47.88,63,47.88,63Z"/><path class="cls-5" d="M58,49.21c0,1.9-1,3.45-2.25,3.45s-2.26-1.55-2.26-3.45,1-3.44,2.26-3.44S58,47.32,58,49.21Z"/><path class="cls-5" d="M25.33,49.21c0,1.9-1,3.45-2.25,3.45s-2.26-1.55-2.26-3.45,1-3.44,2.26-3.44S25.33,47.32,25.33,49.21Z"/><path class="cls-6" d="M47,80.91c-1.29,2.36-4.54,7.43-7.72,7.36-3-.08-5.89-5.15-7.1-7.36,0,0-23.55-.61-29,14.71H75.79C70.37,80.3,47,80.91,47,80.91Z"/><path class="cls-1" d="M52.24,41.18a5.72,5.72,0,0,1,6.75.51c.54.47,1.31-.37.77-.85a6.75,6.75,0,0,0-8.06-.69c-.62.36-.07,1.39.54,1Z"/><path class="cls-1" d="M26.57,41.18a5.73,5.73,0,0,0-6.76.51c-.53.47-1.3-.37-.76-.85a6.75,6.75,0,0,1,8.06-.69c.61.36.07,1.39-.54,1Z"/><path class="cls-1" d="M71,27.08A12.49,12.49,0,0,0,72.1,22c0-6.33-4.63-11.45-10.33-11.45a9.43,9.43,0,0,0-4.66,1.24,10.27,10.27,0,0,0-9.23-6.32,9.63,9.63,0,0,0-6.25,2.34A14,14,0,0,0,29.4,0c-7,0-12.8,5.63-13.95,13-5.58.17-10.06,5.22-10.06,11.44a12.27,12.27,0,0,0,1.9,6.6A6.41,6.41,0,0,0,3.7,37c0,3.53,2.58,6.4,5.76,6.4s5.77-2.87,5.77-6.4a6.5,6.5,0,0,0-.09-1.09c.2,0,.39,0,.59,0a10.15,10.15,0,0,0,8.81-5.49,13,13,0,0,0,4.86,1,13.69,13.69,0,0,0,11.29-6.24,9.82,9.82,0,0,0,7.19,3.23,9.53,9.53,0,0,0,4.65-1.24,10.29,10.29,0,0,0,9.24,6.32h0c0,.15,0,.29,0,.44,0,4.08,3,7.39,6.66,7.39S75.1,38,75.1,33.89A7.46,7.46,0,0,0,71,27.08Z"/></g></g></svg>