<svg xmlns="http://www.w3.org/2000/svg" viewBox="0 0 72.76 90.46"><defs><style>.cls-1{fill:#dc5c05;}.cls-2{fill:#fdcc9b;}.cls-3{fill:#f4b882;}.cls-4{fill:#fff;}.cls-5{fill:#352215;}.cls-6{fill:#059d86;}.cls-7{fill:#6d4d42;}</style></defs><title>Asset 1</title><g id="Layer_2" data-name="Layer 2"><g id="OBJECTS"><path class="cls-1" d="M64.56,77.26s-13,6.72-20.77,8.52c-1.18-4.36-.82-10.44-.95-14.86C46,67.8,59,63,61.23,57.53a57.18,57.18,0,0,0,2.84-9.23c1.15.23,2.69-1,3.94-3.52,0-.46-1.78,29,.92,37.23C68.93,82,66,81.36,64.56,77.26Z"/><path class="cls-1" d="M9,77.26s11.63,6.22,19.37,8c1.18-4.36,1-11.33,1.11-15.75-3.18-3.12-15.84-6.55-18.06-12a56.77,56.77,0,0,1-3-9.36c-1.14,1-2.55-.43-3.81-2.92,0,0,2.71,28.55,0,36.76C4.66,82,7.57,81.36,9,77.26Z"/><rect class="cls-2" x="28.97" y="67.39" width="14.82" height="16.71"/><path class="cls-2" d="M12.53,41.73c0,3.83-2.77,7-6.23,7S0,45.64,0,41.81s2.77-7,6.23-7S12.51,37.9,12.53,41.73Z"/><path class="cls-3" d="M9.9,41.74A3.85,3.85,0,0,1,6.29,45.8a4.05,4.05,0,0,1,0-8.06A3.84,3.84,0,0,1,9.9,41.74Z"/><path class="cls-2" d="M72.76,41.33c0,3.84-2.77,7-6.23,7s-6.28-3.06-6.3-6.89,2.76-7,6.22-7S72.73,37.5,72.76,41.33Z"/><path class="cls-3" d="M70.13,41.35a3.66,3.66,0,1,1-3.66-4A3.87,3.87,0,0,1,70.13,41.35Z"/><path class="cls-2" d="M66.35,43.81c.08,14.83-10.81,27-24.21,27.13L30.61,71C17.22,71.1,6.2,59,6.12,44.2L6.06,32.59C6,17.75,16.87,5.55,30.26,5.46l11.53-.08c13.4-.08,24.42,12,24.5,26.82Z"/><path class="cls-3" d="M39.73,51.16c0,1.29-1.48,2.35-3.33,2.36S33,52.5,33,51.2s1.49-2.35,3.33-2.36S39.73,49.87,39.73,51.16Z"/><path class="cls-4" d="M36.39,57.86H28.1s.73,6.26,8.29,6.26,8.29-6.26,8.29-6.26Z"/><path class="cls-5" d="M54.8,44.05c0,1.89-1,3.44-2.25,3.44s-2.26-1.55-2.26-3.44,1-3.45,2.26-3.45S54.8,42.15,54.8,44.05Z"/><path class="cls-5" d="M22.13,44.05c0,1.89-1,3.44-2.25,3.44s-2.26-1.55-2.26-3.44,1-3.45,2.26-3.45S22.13,42.15,22.13,44.05Z"/><path class="cls-6" d="M43.79,75.74c-1.29,2.36-4.54,7.44-7.72,7.36-3-.08-5.89-5.15-7.1-7.36,0,0-23.55-.6-29,14.72H72.59C67.17,75.14,43.79,75.74,43.79,75.74Z"/><path class="cls-7" d="M49,36a5.72,5.72,0,0,1,6.75.51c.54.47,1.31-.37.77-.85A6.76,6.76,0,0,0,48.5,35c-.62.36-.07,1.39.54,1Z"/><path class="cls-7" d="M23.37,36a5.73,5.73,0,0,0-6.76.51c-.53.47-1.3-.37-.76-.85A6.76,6.76,0,0,1,23.91,35c.61.36.07,1.39-.54,1Z"/><path class="cls-1" d="M7.93,37.74S10,30.37,11.5,29c0,0,38.18,6,40.69-14.38,0,0,3.09,10.44,10.92,15.53,1.74,1.13,2.55,7.56,2.55,7.56s2.88-3.89,4.62-1.89c0,0,1.69-8.35-4.32-21.25C59.79,1.37,49.32-1.79,38.16.86c0,0-9.24-2.56-17.66,2s-11.37,9.48-14,15.32S3.53,35.55,4,35.52A4.32,4.32,0,0,1,7.93,37.74Z"/></g></g></svg>