<svg xmlns="http://www.w3.org/2000/svg" viewBox="0 0 72.76 91.5"><defs><style>.cls-1{fill:#fdcc9b;}.cls-2{fill:#f4b882;}.cls-3{fill:#352215;}.cls-4{fill:#2d2c2b;}.cls-5{fill:#f1a58d;}.cls-6{fill:#00acc2;}</style></defs><title>Asset 11</title><g id="Layer_2" data-name="Layer 2"><g id="OBJECTS"><rect class="cls-1" x="28.97" y="68.43" width="14.82" height="16.71"/><path class="cls-1" d="M12.53,42.77c0,3.83-2.77,7-6.23,7S0,46.69,0,42.85s2.77-7,6.23-7S12.51,38.94,12.53,42.77Z"/><path class="cls-2" d="M9.9,42.79a3.86,3.86,0,0,1-3.61,4.05,4.05,4.05,0,0,1,0-8.06A3.84,3.84,0,0,1,9.9,42.79Z"/><path class="cls-1" d="M72.76,42.38c0,3.83-2.77,7-6.23,7s-6.28-3.07-6.3-6.9,2.76-7,6.22-7S72.73,38.55,72.76,42.38Z"/><path class="cls-2" d="M70.13,42.4a3.66,3.66,0,1,1-3.66-4A3.86,3.86,0,0,1,70.13,42.4Z"/><path class="cls-1" d="M66.35,44.85C66.43,59.69,55.53,71.9,42.14,72l-11.53.08c-13.39.09-24.41-12-24.49-26.82l-.06-11.6C6,18.8,16.87,6.59,30.26,6.5l11.53-.07c13.4-.09,24.42,12,24.5,26.81Z"/><path class="cls-2" d="M39.73,52.2c0,1.29-1.48,2.35-3.33,2.37S33,53.54,33,52.25s1.48-2.35,3.33-2.36S39.73,50.91,39.73,52.2Z"/><path class="cls-3" d="M54.8,45.09c0,1.89-1,3.44-2.25,3.44S50.29,47,50.29,45.09s1-3.44,2.26-3.44S54.8,43.19,54.8,45.09Z"/><path class="cls-3" d="M22.13,45.09c0,1.89-1,3.44-2.25,3.44S17.62,47,17.62,45.09s1-3.44,2.26-3.44S22.13,43.19,22.13,45.09Z"/><path class="cls-4" d="M48.37,36.65c2.52-2.39,5.85-2,8.33.23.6.55,1.35-.5.75-1.05-2.87-2.62-6.87-3-9.81-.24-.59.56.14,1.63.73,1.06Z"/><path class="cls-4" d="M24.05,36.65c-2.52-2.39-5.85-2-8.33.23-.6.55-1.35-.5-.75-1.05,2.87-2.62,6.87-3,9.81-.24.59.56-.13,1.63-.73,1.06Z"/><path class="cls-5" d="M28.49,58.74c2.26,5.8,13.42,5.86,15.44-.18a.7.7,0,1,0-1.33-.4C41,63,31.43,62.46,29.68,58c-.35-.9-1.54-.12-1.19.77Z"/><path class="cls-6" d="M43.79,76.78c-2.5,4.57-12.32,4.57-14.82,0,0,0-23.55-.6-29,14.72H72.59C67.17,76.18,43.79,76.78,43.79,76.78Z"/><path class="cls-4" d="M6.23,35.87S16.51,26,19.88,21.67c0,0,18.86,3,29.09-4.34,0,0,10.89,15,17.33,18.16C66.3,35.49,72.76,0,36.2,0,0,0,6.23,35.87,6.23,35.87Z"/></g></g></svg>