<svg xmlns="http://www.w3.org/2000/svg" viewBox="0 0 80.03 100.92"><defs><style>.cls-1{fill:#0b0b0b;}.cls-2{fill:#bf8158;}.cls-3{fill:#aa6944;}.cls-4{fill:#352215;}.cls-5{fill:#a9703b;}.cls-6{fill:#350304;}.cls-7{fill:#1a9bdc;}</style></defs><title>Asset 3</title><g id="Layer_2" data-name="Layer 2"><g id="OBJECTS"><path class="cls-1" d="M28.5,74.46a7,7,0,0,0-2.8.59A8.3,8.3,0,0,0,20,71.32a6.82,6.82,0,0,0,.82-3.26c0-3.54-2.59-6.41-5.79-6.41a5.25,5.25,0,0,0-2.09.44,6.64,6.64,0,0,0,.16-1.42c0-3.4-2.49-6.16-5.56-6.16S2,57.27,2,60.67a6.47,6.47,0,0,0,1.48,4.18A7.4,7.4,0,0,0,0,71.23a7.18,7.18,0,0,0,4.69,7,9.27,9.27,0,0,0-1.37,4.88c0,4.74,3.47,8.59,7.76,8.59a7.36,7.36,0,0,0,5.16-2.18A7.64,7.64,0,0,0,18.9,90a7.73,7.73,0,0,0,4-1.11,7.36,7.36,0,0,0,5.61,2.7c4.26,0,7.71-3.82,7.71-8.54S32.76,74.46,28.5,74.46Z"/><path class="cls-1" d="M41.81,83c0,4.72,3.45,8.54,7.71,8.54a7.36,7.36,0,0,0,5.61-2.7,7.68,7.68,0,0,0,6.65.63,7.36,7.36,0,0,0,5.16,2.18c4.29,0,7.76-3.85,7.76-8.59a9.27,9.27,0,0,0-1.37-4.88,7.18,7.18,0,0,0,4.69-7,7.4,7.4,0,0,0-3.44-6.38,6.47,6.47,0,0,0,1.48-4.18c0-3.4-2.49-6.16-5.56-6.16s-5.56,2.76-5.56,6.16a6.64,6.64,0,0,0,.16,1.42A5.29,5.29,0,0,0,63,61.65c-3.2,0-5.79,2.87-5.79,6.41A6.82,6.82,0,0,0,58,71.32a8.3,8.3,0,0,0-5.72,3.73,7,7,0,0,0-2.8-.59C45.26,74.46,41.81,78.28,41.81,83Z"/><rect class="cls-2" x="32.14" y="77.85" width="14.82" height="16.71"/><path class="cls-2" d="M15.7,52.2c0,3.83-2.77,6.95-6.22,7s-6.29-3.06-6.31-6.89,2.77-7,6.23-7S15.68,48.37,15.7,52.2Z"/><path class="cls-3" d="M13.08,52.21a3.87,3.87,0,0,1-3.62,4.06,4.05,4.05,0,0,1,0-8.06A3.84,3.84,0,0,1,13.08,52.21Z"/><path class="cls-2" d="M75.93,51.8c0,3.83-2.77,7-6.23,7s-6.28-3.06-6.3-6.9,2.77-7,6.23-7S75.91,48,75.93,51.8Z"/><path class="cls-3" d="M73.3,51.82a3.65,3.65,0,1,1-3.65-4A3.86,3.86,0,0,1,73.3,51.82Z"/><path class="cls-2" d="M69.52,54.28c.08,14.83-10.81,27-24.2,27.13l-11.53.07c-13.4.09-24.42-12-24.5-26.81L9.23,43.06C9.15,28.22,20.05,16,33.44,15.93L45,15.85c13.39-.09,24.41,12,24.49,26.82Z"/><path class="cls-3" d="M42.91,61.63c0,1.29-1.49,2.35-3.34,2.36s-3.35-1-3.36-2.32,1.49-2.35,3.34-2.36S42.9,60.34,42.91,61.63Z"/><path class="cls-4" d="M58,54.51c0,1.9-1,3.45-2.25,3.45s-2.26-1.55-2.26-3.45,1-3.44,2.26-3.44S58,52.62,58,54.51Z"/><path class="cls-4" d="M25.3,54.51c0,1.9-1,3.45-2.25,3.45s-2.25-1.55-2.25-3.45,1-3.44,2.25-3.44S25.3,52.62,25.3,54.51Z"/><path class="cls-5" d="M31.9,69.17C34.16,75,45.33,75,47.35,69A.7.7,0,1,0,46,68.58c-1.62,4.85-11.17,4.3-12.91-.18-.36-.91-1.55-.13-1.2.77Z"/><path class="cls-2" d="M47,86.21c-1.29,2.36-4.54,7.43-7.72,7.36-3-.08-5.89-5.15-7.1-7.36,0,0-23.55-.6-29,14.71H75.76C70.35,85.61,47,86.21,47,86.21Z"/><path class="cls-6" d="M52.21,46.48A5.73,5.73,0,0,1,59,47c.53.47,1.3-.37.76-.85a6.75,6.75,0,0,0-8.06-.69c-.61.36-.07,1.39.54,1Z"/><path class="cls-6" d="M26.54,46.48a5.72,5.72,0,0,0-6.75.51c-.54.47-1.31-.37-.77-.85a6.75,6.75,0,0,1,8.06-.69c.62.36.07,1.39-.54,1Z"/><path class="cls-7" d="M62.77,89.13a28.92,28.92,0,0,0-9.6-2.44s-2,5.06-13.93,5.15c-11.9-.09-13.94-5.15-13.94-5.15a29,29,0,0,0-9.6,2.44,12.64,12.64,0,0,1-5.24,11.79H68A12.64,12.64,0,0,1,62.77,89.13Z"/><path class="cls-1" d="M75.57,33.29A7.11,7.11,0,0,0,80,26.79a7.33,7.33,0,0,0-7.52-7.13A8.1,8.1,0,0,0,71,19.8a8.43,8.43,0,0,0,.16-1.6,9.65,9.65,0,0,0-9.89-9.37A9.76,9.76,0,0,0,59.85,9,11.61,11.61,0,0,0,48.33,0,12,12,0,0,0,40,3.34,10.22,10.22,0,0,0,33.05.71a10,10,0,0,0-9.3,6,8.84,8.84,0,0,0-2.32-.32,8.18,8.18,0,0,0-8.33,7.43A7.15,7.15,0,0,0,8,19.36a7.79,7.79,0,0,0-6,7.43,7.41,7.41,0,0,0,.88,3.49,5.67,5.67,0,0,0,0,9.83A6.29,6.29,0,0,0,1,44.56a6.7,6.7,0,0,0,6.87,6.51,6.71,6.71,0,0,0,6.88-6.51c0-.24,0-.48,0-.71l.32,0a5.64,5.64,0,0,0,5.79-5.48c0-.15,0-.3,0-.45A6.28,6.28,0,0,0,26,32.71a9.07,9.07,0,0,0,1.9.21,8.86,8.86,0,0,0,7.36-3.84,8.36,8.36,0,0,0,4.29,1.66,9.79,9.79,0,0,0,9,5.74,10.73,10.73,0,0,0,1.51-.12,9.68,9.68,0,0,0,9.13,6.1h.34a9.65,9.65,0,0,0,9.36,6.74A9.47,9.47,0,0,0,78.62,40,9,9,0,0,0,75.57,33.29Z"/></g></g></svg>