<svg xmlns="http://www.w3.org/2000/svg" viewBox="0 0 72.91 95.19"><defs><style>.cls-1{fill:#fdcc9b;}.cls-2{fill:#f4b882;}.cls-3{fill:#fff;}.cls-4{fill:#352215;}.cls-5{fill:#895837;}.cls-6{fill:#c83432;}</style></defs><title>Asset 5</title><g id="Layer_2" data-name="Layer 2"><g id="OBJECTS"><rect class="cls-1" x="28.97" y="67.71" width="14.82" height="25.91"/><path class="cls-1" d="M12.53,42.05c0,3.83-2.77,7-6.23,7S0,46,0,42.13s2.77-7,6.23-7S12.51,38.22,12.53,42.05Z"/><path class="cls-2" d="M9.9,42.07a3.86,3.86,0,0,1-3.61,4,4.05,4.05,0,0,1,0-8.06A3.84,3.84,0,0,1,9.9,42.07Z"/><path class="cls-1" d="M72.76,41.66c0,3.83-2.77,7-6.23,7s-6.28-3.07-6.3-6.9,2.76-7,6.22-7S72.73,37.83,72.76,41.66Z"/><path class="cls-2" d="M70.13,41.68a3.66,3.66,0,1,1-3.66-4A3.86,3.86,0,0,1,70.13,41.68Z"/><path class="cls-1" d="M66.35,44.13C66.43,59,55.53,71.18,42.14,71.26l-11.53.08c-13.39.09-24.41-12-24.49-26.82l-.06-11.6C6,18.08,16.87,5.87,30.26,5.78l11.53-.07c13.4-.09,24.42,12,24.5,26.81Z"/><path class="cls-2" d="M39.73,51.48c0,1.29-1.48,2.35-3.33,2.37S33,52.82,33,51.53s1.49-2.35,3.33-2.36S39.73,50.19,39.73,51.48Z"/><path class="cls-3" d="M36.38,56.19H26.06S27,65,36.38,65s10.33-8.84,10.33-8.84Z"/><path class="cls-4" d="M50.86,44.37c0-1.13.46-2.74,1.69-2.82s1.66,1.83,1.69,2.82a.56.56,0,1,0,1.12,0c0-1.88-.92-3.94-2.81-4.07s-2.77,2.4-2.82,4.07a.57.57,0,1,0,1.13,0Z"/><path class="cls-4" d="M18.19,44.37c0-1.13.46-2.74,1.69-2.82s1.66,1.83,1.69,2.82a.56.56,0,1,0,1.12,0c-.05-1.88-.92-3.94-2.81-4.07s-2.77,2.4-2.82,4.07a.57.57,0,1,0,1.13,0Z"/><path class="cls-5" d="M48.37,35.94c2.52-2.4,5.85-2,8.33.22.6.55,1.35-.5.75-1-2.87-2.62-6.87-3-9.81-.24-.59.56.14,1.63.73,1.07Z"/><path class="cls-5" d="M24.05,35.94c-2.52-2.4-5.85-2-8.33.22-.6.55-1.35-.5-.75-1,2.87-2.62,6.87-3,9.81-.24.59.56-.13,1.63-.73,1.07Z"/><path class="cls-6" d="M44.11,80.48c-1.29,2.35-7.72,12.13-7.72,12.13s-5.89-9.93-7.1-12.13c0,0-23.55-.61-29,14.71H72.91C67.49,79.87,44.11,80.48,44.11,80.48Z"/><path class="cls-5" d="M6.26,35.16s28.92-7.88,40.45-18.38c0,0,12.09,14.25,19.59,18.37C66.3,35.15,71.65,0,36.62,0,1.74,0,6.26,35.16,6.26,35.16Z"/></g></g></svg>