<svg xmlns="http://www.w3.org/2000/svg" viewBox="0 0 126.71 161.24"><defs><style>.cls-1{fill:#4f3434;}.cls-2{fill:#fbc08f;}.cls-3{fill:#ffd8aa;}.cls-4{fill:#614142;}.cls-5{fill:#482e2e;}.cls-6{fill:#fff;}.cls-7{fill:#f58c73;}.cls-8{fill:#f9ae7e;}.cls-9{fill:#f9b48f;}.cls-10{fill:#ee8b88;}.cls-11{fill:#321a0e;}.cls-12{fill:#84c4ea;}</style></defs><title>Asset 6</title><g id="Layer_2" data-name="Layer 2"><g id="OBJECTS"><path class="cls-1" d="M31,128s37.85-10.92,69.14-1.46c0,0,10.56-12,13.47-25.84s-12-24-13.47-24.74-66.59,8-66.59,8S11.35,93,12.81,93.38,31,128,31,128Z"/><rect class="cls-2" x="50.68" y="114.66" width="27.79" height="43.3"/><ellipse class="cls-2" cx="16.36" cy="78.82" rx="10.92" ry="15.83"/><ellipse class="cls-2" cx="112.61" cy="78.82" rx="10.92" ry="15.83"/><path class="cls-3" d="M64.48,18.69c-51.31,0-48.76,26.93-48.76,57.86s21.83,51.67,48.76,51.67,48.76-20.74,48.76-51.67S115.79,18.69,64.48,18.69Z"/><path class="cls-4" d="M78.67,65.27c-.72,1.06.73,3.27,1.82,3.63s3.64-2.54,6.55-2,2.73,1.82,4,2,3.82-1.63,3.82-2.91S85,56,78.67,65.27Z"/><path class="cls-5" d="M90.68,78.32c0,2.84-1.79,5.14-4,5.14s-4-2.3-4-5.14,1.79-5.14,4-5.14S90.68,75.48,90.68,78.32Z"/><path class="cls-6" d="M86.82,76.27a1.41,1.41,0,1,1-1.41-1.41A1.41,1.41,0,0,1,86.82,76.27Z"/><path class="cls-4" d="M49.37,65.27c.72,1.06-.73,3.27-1.82,3.63s-3.64-2.54-6.55-2-2.73,1.82-4,2S33.17,67.27,33.17,66,43,56,49.37,65.27Z"/><path class="cls-5" d="M45.38,78.32c0,2.84-1.79,5.14-4,5.14s-4-2.3-4-5.14,1.79-5.14,4-5.14S45.38,75.48,45.38,78.32Z"/><path class="cls-6" d="M41.51,76.27a1.41,1.41,0,1,1-1.41-1.41A1.41,1.41,0,0,1,41.51,76.27Z"/><path class="cls-7" d="M64.57,101.75H55.11c0,2.36,1.64,8.55,9.46,8.55S74,104.11,74,101.75Z"/><path class="cls-8" d="M69.67,83c-.9-4.82-2.16-6.67-5.1-6.71h-.09c-2.93,0-4.19,1.89-5.09,6.71S55.6,94.33,64.48,94.37h.09C73.46,94.33,70.57,87.85,69.67,83Z"/><ellipse class="cls-9" cx="88.59" cy="93.38" rx="6.28" ry="4.09"/><ellipse class="cls-9" cx="40.56" cy="93.38" rx="6.28" ry="4.09"/><path class="cls-10" d="M64.58,139v22.2H17.72s5.3-27.11,33-27.11C50.68,134.13,53.47,139,64.58,139Z"/><path class="cls-11" d="M98.06,67.22H76.41A6.21,6.21,0,0,0,70.7,71H58.28a6.21,6.21,0,0,0-5.71-3.82H30.92a6.21,6.21,0,0,0-6.19,6.19v9.28a6.21,6.21,0,0,0,6.19,6.18H52.57a6.21,6.21,0,0,0,6.19-6.18v-9.1H70.22v9.1a6.21,6.21,0,0,0,6.19,6.18H98.06a6.2,6.2,0,0,0,6.18-6.18V73.41A6.21,6.21,0,0,0,98.06,67.22ZM56,81.67a5,5,0,0,1-5.19,4.84H32.66a5,5,0,0,1-5.2-4.84V74.42a5,5,0,0,1,5.2-4.83H50.84A5,5,0,0,1,56,74.42Zm45.49,0a5,5,0,0,1-5.2,4.84H78.14A5,5,0,0,1,73,81.67V74.42a5,5,0,0,1,5.19-4.83H96.32a5,5,0,0,1,5.2,4.83Z"/><path class="cls-12" d="M17.72,161.24H52l-1.29-27.11C23,134.13,17.72,161.24,17.72,161.24Z"/><path class="cls-10" d="M64.58,139v22.2h46.86s-5.3-27.11-33-27.11C78.48,134.13,75.69,139,64.58,139Z"/><path class="cls-12" d="M111.44,161.24H77.19l1.29-27.11C106.14,134.13,111.44,161.24,111.44,161.24Z"/><path class="cls-4" d="M99.78,11.5S83-3,51,.58-1.38,27.51.07,69.72,31,128,31,128c-18.19-48-5.09-74.6-5.09-74.6-2.18,8,1.45,12.37,1.45,12.37,4.37-17.83,25.11-19.65,25.11-19.65a23.72,23.72,0,0,0-8.73,9.46c26.2-2.91,42.58-16,42.58-16s2.54,15.28,12.73,20c0,0,1.46-1.09,1.46-8.37,0,0,15.28,33.12-.37,75.33,0,0,26.2-7.64,26.57-53.13S114,15.14,99.78,11.5Z"/></g></g></svg>