<svg xmlns="http://www.w3.org/2000/svg" viewBox="0 0 118.08 161.87"><defs><style>.cls-1{fill:#fbb773;}.cls-2{fill:#fdcf91;}.cls-3{fill:#f9a51a;}.cls-4{fill:#482e2e;}.cls-5{fill:#fff;}.cls-6{fill:#f58c73;}.cls-7{fill:#22505a;}.cls-8{fill:#9ec8dd;}.cls-9{fill:#65b7ca;}.cls-10{fill:#614142;}</style></defs><title>Asset 4</title><g id="Layer_2" data-name="Layer 2"><g id="OBJECTS"><rect class="cls-1" x="45.24" y="113.11" width="27.79" height="43.3"/><ellipse class="cls-1" cx="10.92" cy="77.26" rx="10.92" ry="15.83"/><ellipse class="cls-1" cx="107.17" cy="77.26" rx="10.92" ry="15.83"/><path class="cls-2" d="M59,17.13C7.73,17.13,10.28,44.06,10.28,75S32.11,126.66,59,126.66,107.8,105.92,107.8,75,110.35,17.13,59,17.13Z"/><path class="cls-3" d="M73.23,63.71c-.73,1.06.73,3.27,1.82,3.64s3.64-2.55,6.55-2,2.73,1.82,4,2,3.82-1.64,3.82-2.91S79.6,54.43,73.23,63.71Z"/><path class="cls-4" d="M85.24,76.76c0,2.84-1.79,5.14-4,5.14s-4-2.3-4-5.14,1.79-5.14,4-5.14S85.24,73.93,85.24,76.76Z"/><path class="cls-5" d="M81.37,74.72A1.41,1.41,0,1,1,80,73.31,1.41,1.41,0,0,1,81.37,74.72Z"/><path class="cls-3" d="M43.93,63.71c.72,1.06-.73,3.27-1.82,3.64s-3.64-2.55-6.55-2-2.73,1.82-4,2-3.82-1.64-3.82-2.91S37.56,54.43,43.93,63.71Z"/><path class="cls-4" d="M39.94,76.76c0,2.84-1.8,5.14-4,5.14s-4-2.3-4-5.14,1.79-5.14,4-5.14S39.94,73.93,39.94,76.76Z"/><path class="cls-5" d="M36.07,74.72a1.41,1.41,0,1,1-1.41-1.41A1.41,1.41,0,0,1,36.07,74.72Z"/><path class="cls-6" d="M59.13,100.19H49.67c0,2.36,1.64,8.55,9.46,8.55s9.46-6.19,9.46-8.55Z"/><path class="cls-1" d="M64.23,81.44c-.9-4.83-2.17-6.68-5.1-6.72H59c-2.93,0-4.19,1.89-5.09,6.72S50.15,92.77,59,92.82h.09C68,92.77,65.13,86.3,64.23,81.44Z"/><path class="cls-6" d="M89.43,91.82c0,2.26-2.81,4.09-6.28,4.09s-6.28-1.83-6.28-4.09,2.81-4.09,6.28-4.09S89.43,89.56,89.43,91.82Z"/><path class="cls-6" d="M41.39,91.82c0,2.26-2.81,4.09-6.27,4.09s-6.28-1.83-6.28-4.09,2.81-4.09,6.28-4.09S41.39,89.56,41.39,91.82Z"/><path class="cls-7" d="M59.14,139.67v22.2H7.37s6-27.11,36.57-27.11C43.94,134.76,46.87,139.67,59.14,139.67Z"/><polygon class="cls-8" points="50.22 144.42 55.39 161.87 59.69 161.87 59.69 139.46 51.02 140.19 50.22 144.42"/><path class="cls-9" d="M59.69,139.48,44.77,153.31s-6.37-14-7.1-16.56,5.1-7.46,7.1-7.1S59.69,139.48,59.69,139.48Z"/><path class="cls-7" d="M60.23,139.67v22.2H112s-6-27.11-36.57-27.11C75.43,134.76,72.51,139.67,60.23,139.67Z"/><polygon class="cls-8" points="69.16 144.42 63.98 161.87 59.69 161.87 59.69 139.46 68.35 140.19 69.16 144.42"/><path class="cls-9" d="M59.69,139.48l14.92,13.83s6.36-14,7.09-16.56-5.09-7.46-7.09-7.1S59.69,139.48,59.69,139.48Z"/><path class="cls-10" d="M92.4,65.8H70.74A6.23,6.23,0,0,0,65,69.62H52.62a6.23,6.23,0,0,0-5.71-3.82H25.26A6.21,6.21,0,0,0,19.07,72v9.28a6.21,6.21,0,0,0,6.19,6.18H46.91a6.21,6.21,0,0,0,6.19-6.18v-9.1H64.56v9.1a6.2,6.2,0,0,0,6.18,6.18H92.4a6.2,6.2,0,0,0,6.18-6.18V72A6.21,6.21,0,0,0,92.4,65.8Zm-42,14.45a5,5,0,0,1-5.2,4.84H27a5,5,0,0,1-5.19-4.84V73A5,5,0,0,1,27,68.17H45.17A5,5,0,0,1,50.37,73Zm45.48,0a5,5,0,0,1-5.19,4.84H72.48a5,5,0,0,1-5.19-4.84V73a5,5,0,0,1,5.19-4.83H90.66A5,5,0,0,1,95.85,73Z"/><path class="cls-3" d="M99.15,14.4S83.05-7.43,41.84,2.67-2.1,64.62,10.18,63c46.61-6.21,75.6-24,75.6-24s14.73,25.39,22.1,27S121,19.59,99.15,14.4Z"/></g></g></svg>