<svg xmlns="http://www.w3.org/2000/svg" viewBox="0 0 124.52 162.41"><defs><style>.cls-1{fill:#f9a51a;}.cls-2{fill:#fbb773;}.cls-3{fill:#fdcf91;}.cls-4{fill:#482e2e;}.cls-5{fill:#fff;}.cls-6{fill:#f58c73;}.cls-7{fill:#744c5c;}.cls-8{fill:#f69e9a;}.cls-9{fill:#f16c6a;}</style></defs><title>Asset 7</title><g id="Layer_2" data-name="Layer 2"><g id="OBJECTS"><path class="cls-1" d="M4.51,88c-.37,25.11-16.74,69.14,15.28,72.41s43.3-6.91,43.3-6.91V60.71L12.51,73.81Z"/><path class="cls-1" d="M120,88c.36,25.11,16.74,69.14-15.29,72.41s-43.3-6.91-43.3-6.91V60.71L112,73.81Z"/><rect class="cls-2" x="49.85" y="115.84" width="27.79" height="43.3"/><ellipse class="cls-2" cx="15.53" cy="79.99" rx="10.92" ry="15.83"/><ellipse class="cls-2" cx="111.77" cy="79.99" rx="10.92" ry="15.83"/><path class="cls-3" d="M63.65,19.86c-51.31,0-48.76,26.93-48.76,57.86s21.83,51.67,48.76,51.67,48.76-20.74,48.76-51.67S115,19.86,63.65,19.86Z"/><path class="cls-1" d="M77.84,66.44c-.73,1.06.73,3.27,1.82,3.64s3.64-2.55,6.55-2,2.73,1.82,4,2S94,68.44,94,67.17,84.21,57.16,77.84,66.44Z"/><path class="cls-4" d="M89.85,79.49c0,2.84-1.79,5.14-4,5.14s-4-2.3-4-5.14,1.8-5.14,4-5.14S89.85,76.65,89.85,79.49Z"/><path class="cls-5" d="M86,77.45A1.41,1.41,0,1,1,84.57,76,1.41,1.41,0,0,1,86,77.45Z"/><path class="cls-1" d="M48.53,66.44c.73,1.06-.72,3.27-1.82,3.64s-3.63-2.55-6.55-2-2.72,1.82-4,2-3.82-1.64-3.82-2.91S42.17,57.16,48.53,66.44Z"/><path class="cls-4" d="M44.55,79.49c0,2.84-1.8,5.14-4,5.14s-4-2.3-4-5.14,1.79-5.14,4-5.14S44.55,76.65,44.55,79.49Z"/><path class="cls-5" d="M40.68,77.45A1.41,1.41,0,1,1,39.27,76,1.41,1.41,0,0,1,40.68,77.45Z"/><path class="cls-6" d="M63.74,102.92H54.28c0,2.36,1.64,8.55,9.46,8.55s9.46-6.19,9.46-8.55Z"/><path class="cls-2" d="M68.84,84.17c-.9-4.83-2.17-6.68-5.1-6.72h-.09c-2.93,0-4.2,1.89-5.09,6.72s-3.8,11.33,5.09,11.38h.09C72.63,95.5,69.74,89,68.84,84.17Z"/><ellipse class="cls-6" cx="87.76" cy="94.55" rx="6.28" ry="4.09"/><ellipse class="cls-6" cx="39.72" cy="94.55" rx="6.28" ry="4.09"/><path class="cls-7" d="M63.83,140.22v22.19H19.65s5.12-27.1,31.21-27.1C50.86,135.31,53.35,140.22,63.83,140.22Z"/><polygon class="cls-8" points="53.78 144.97 59.42 162.41 64.1 162.41 64.1 140 54.66 140.74 53.78 144.97"/><path class="cls-9" d="M63.75,140,50.13,153.85s-5.81-14-6.48-16.55,4.65-7.46,6.48-7.1S63.75,140,63.75,140Z"/><path class="cls-7" d="M64.1,140.22v22.19h44.19s-5.13-27.1-31.22-27.1C77.07,135.31,74.58,140.22,64.1,140.22Z"/><polygon class="cls-8" points="76.13 144.97 69.52 162.41 64.03 162.41 64.03 140 75.09 140.74 76.13 144.97"/><path class="cls-9" d="M63.75,140l13.62,13.82s5.81-14,6.48-16.55-4.65-7.46-6.48-7.1S63.75,140,63.75,140Z"/><path class="cls-1" d="M43.81,48A80,80,0,0,0,80.92,59.62c21.47,1.09,38,18.79,39.8,38.08,0,0,10.06-27.53-7.41-70.47C99.39-7,50.36-2.25,42.35,5.76c0,0-45.12-5.82-37.84,82.24,0,0,13.82-5.46,19.65-18.2S35.07,49.79,43.81,48Z"/></g></g></svg>