<svg xmlns="http://www.w3.org/2000/svg" viewBox="0 0 138.56 166.33"><defs><style>.cls-1{fill:#321a0e;}.cls-2{fill:#b96a44;}.cls-3{fill:#c4784a;}.cls-4{fill:#482e2e;}.cls-5{fill:#fff;}.cls-6{fill:#f58c73;}.cls-7{fill:#b36641;}.cls-8{fill:#79bb43;}.cls-9{fill:#5a9233;}</style></defs><title>Asset 5</title><g id="Layer_2" data-name="Layer 2"><g id="OBJECTS"><path class="cls-1" d="M133.76,85.89s7.09,14.14-4.37,19.36c0,0,5.73,8-3.82,13.22,0,0,1.09,11.67-9.82,9.83,0,0-1.37,7.68-7.92,5.22,0,0-1.36,13.52-12,8.92,0,0-3.82,13.21-14.74,6.45s-5.73-33.19-5.73-33.19S80,98.19,81.08,97.57s15.56-23,16.38-25.2S133.76,85.89,133.76,85.89Z"/><path class="cls-1" d="M7.47,85.89S.38,100,11.84,105.25c0,0-5.73,8,3.82,13.22,0,0-1.09,11.67,9.82,9.83,0,0,1.37,7.68,7.92,5.22,0,0,1.36,13.52,12,8.92,0,0,3.82,13.21,14.73,6.45s5.74-33.19,5.74-33.19-4.64-17.51-5.74-18.13-15.55-23-16.37-25.2S7.47,85.89,7.47,85.89Z"/><rect class="cls-2" x="56.72" y="119.75" width="27.79" height="43.3"/><ellipse class="cls-2" cx="22.39" cy="83.9" rx="10.92" ry="15.83"/><ellipse class="cls-2" cx="118.64" cy="83.9" rx="10.92" ry="15.83"/><path class="cls-3" d="M70.52,23.77c-51.31,0-48.77,26.93-48.77,57.86S43.59,133.3,70.52,133.3s48.76-20.74,48.76-51.67S121.82,23.77,70.52,23.77Z"/><path class="cls-1" d="M84.71,70.35c-.73,1.06.73,3.27,1.82,3.64s3.64-2.55,6.55-2,2.73,1.82,4,2,3.82-1.64,3.82-2.91S91.08,61.07,84.71,70.35Z"/><path class="cls-4" d="M96.72,83.4c0,2.84-1.8,5.14-4,5.14s-4-2.3-4-5.14,1.79-5.14,4-5.14S96.72,80.56,96.72,83.4Z"/><path class="cls-5" d="M92.85,81.36A1.41,1.41,0,1,1,91.44,80,1.41,1.41,0,0,1,92.85,81.36Z"/><path class="cls-1" d="M55.4,70.35c.73,1.06-.73,3.27-1.82,3.64S49.94,71.44,47,72s-2.73,1.82-4,2-3.82-1.64-3.82-2.91S49,61.07,55.4,70.35Z"/><path class="cls-4" d="M51.41,83.4c0,2.84-1.79,5.14-4,5.14s-4-2.3-4-5.14,1.79-5.14,4-5.14S51.41,80.56,51.41,83.4Z"/><path class="cls-5" d="M47.55,81.36A1.42,1.42,0,1,1,46.14,80,1.41,1.41,0,0,1,47.55,81.36Z"/><path class="cls-6" d="M70.61,106.83H61.15c0,2.36,1.63,8.55,9.46,8.55s9.46-6.19,9.46-8.55Z"/><path class="cls-7" d="M75.7,88.08c-.9-4.83-2.16-6.68-5.09-6.72h-.09c-2.94,0-4.2,1.89-5.1,6.72s-3.79,11.33,5.1,11.38h.09C79.49,99.41,76.61,92.94,75.7,88.08Z"/><ellipse class="cls-6" cx="94.62" cy="98.46" rx="6.28" ry="4.09"/><ellipse class="cls-6" cx="46.59" cy="98.46" rx="6.28" ry="4.09"/><path class="cls-8" d="M70.61,144.13v22.2H26.67s3.67-27.11,29.62-27.11C56.29,139.22,60.2,144.13,70.61,144.13Z"/><path class="cls-9" d="M70.61,144.13v6.68s-15.49,1.08-20.58-11c0,0,4-1.43,6.69-1.26C56.72,138.53,61.43,144.13,70.61,144.13Z"/><path class="cls-8" d="M70.61,144.13v22.2h44s-3.67-27.11-29.62-27.11C84.94,139.22,81,144.13,70.61,144.13Z"/><path class="cls-9" d="M70.61,144.13v6.68s15.5,1.08,20.59-11c0,0-4-1.43-6.69-1.26C84.51,138.53,79.8,144.13,70.61,144.13Z"/><path class="cls-1" d="M135.93,56a9,9,0,0,0-2.57-11.88s5.11-7.77-3.62-11.87c0,0-.82-15.55-15.28-12.28,0,0,.54-7.91-9.83-8.19,0,0-.82-11.73-15-5.73C82-5.7,73.24,3.3,73.24,3.3c-7.64-7.37-14.46.82-14.46.82C44.59-4.61,37,10.4,37,10.4c-8.74-1.64-9.83,7.09-9.83,7.09C16.21,17,15.39,28.68,15.39,28.68c-12,5.19-8.74,18.83-8.74,18.83C-5.36,55.7,2.56,68.8,2.56,68.8-5.08,79.17,7.74,85.72,7.74,85.72,18.39,93.64,21.12,80,21.12,80c9.28,2.19,5.73-11.73,5.73-11.73,7.37,3.82,8.73-6.55,8.73-6.55C46,65.25,47.32,52.15,47.32,52.15c6.55,8.74,15-.27,15-.27,9.55,7.64,14.19-4.09,14.19-4.09C85.25,53.25,88.8,44,88.8,44s.55,7.37,10.1,8.73c0,0,1.91,10.92,12,11.46,0,0-3,7.64,5.18,8.19,0,0,2.33,5.57,7.76,5.24.79,3.34,3.08,9.11,9.51,8.13,8.93-1.36,2.57-13.55,2.57-13.55S141.85,65,135.93,56Z"/></g></g></svg>