<svg xmlns="http://www.w3.org/2000/svg" viewBox="0 0 118.08 163.6"><defs><style>.cls-1{fill:#b96a44;}.cls-2{fill:#c4784a;}.cls-3{fill:#321a0e;}.cls-4{fill:#482e2e;}.cls-5{fill:#fff;}.cls-6{fill:#f58c73;}.cls-7{fill:#b36641;}.cls-8{fill:#00adbc;}.cls-9{fill:#00988f;}</style></defs><title>Asset 3</title><g id="Layer_2" data-name="Layer 2"><g id="OBJECTS"><rect class="cls-1" x="45.24" y="114.84" width="27.79" height="43.3"/><ellipse class="cls-1" cx="10.92" cy="78.99" rx="10.92" ry="15.83"/><ellipse class="cls-1" cx="107.17" cy="78.99" rx="10.92" ry="15.83"/><path class="cls-2" d="M59,18.86c-51.31,0-48.76,26.93-48.76,57.86S32.11,128.39,59,128.39s48.76-20.74,48.76-51.67S110.35,18.86,59,18.86Z"/><path class="cls-3" d="M73.23,65.44c-.73,1.06.73,3.27,1.82,3.64s3.64-2.55,6.55-2,2.73,1.82,4,2,3.82-1.64,3.82-2.91S79.6,56.16,73.23,65.44Z"/><path class="cls-4" d="M85.24,78.49c0,2.84-1.79,5.14-4,5.14s-4-2.3-4-5.14,1.79-5.14,4-5.14S85.24,75.65,85.24,78.49Z"/><path class="cls-5" d="M81.37,76.45A1.41,1.41,0,1,1,80,75,1.41,1.41,0,0,1,81.37,76.45Z"/><path class="cls-3" d="M43.93,65.44c.72,1.06-.73,3.27-1.82,3.64s-3.64-2.55-6.55-2-2.73,1.82-4,2-3.82-1.64-3.82-2.91S37.56,56.16,43.93,65.44Z"/><path class="cls-4" d="M39.94,78.49c0,2.84-1.8,5.14-4,5.14s-4-2.3-4-5.14,1.79-5.14,4-5.14S39.94,75.65,39.94,78.49Z"/><path class="cls-5" d="M36.07,76.45A1.41,1.41,0,1,1,34.66,75,1.41,1.41,0,0,1,36.07,76.45Z"/><path class="cls-6" d="M59.13,101.92H49.67c0,2.36,1.64,8.55,9.46,8.55s9.46-6.19,9.46-8.55Z"/><path class="cls-7" d="M64.23,83.17c-.9-4.83-2.17-6.68-5.1-6.72H59c-2.93,0-4.19,1.89-5.09,6.72S50.15,94.5,59,94.55h.09C68,94.5,65.13,88,64.23,83.17Z"/><path class="cls-6" d="M89.43,93.55c0,2.26-2.81,4.09-6.28,4.09s-6.28-1.83-6.28-4.09,2.81-4.09,6.28-4.09S89.43,91.29,89.43,93.55Z"/><path class="cls-6" d="M41.39,93.55c0,2.26-2.81,4.09-6.27,4.09s-6.28-1.83-6.28-4.09,2.81-4.09,6.28-4.09S41.39,91.29,41.39,93.55Z"/><path class="cls-8" d="M59.14,141.4v22.2H7.37s6-27.11,36.57-27.11C43.94,136.49,46.87,141.4,59.14,141.4Z"/><path class="cls-9" d="M59.14,141.4v6.69s-16.08,1-22.08-11.11c0,0,5-2,8.18-1.17C45.24,135.81,48.32,141.4,59.14,141.4Z"/><path class="cls-8" d="M59.14,141.4v22.2h51.77s-6-27.11-36.57-27.11C74.34,136.49,71.41,141.4,59.14,141.4Z"/><path class="cls-9" d="M59.14,141.4v6.69s16.08,1,22.08-11.11c0,0-5-2-8.18-1.17C73,135.81,70,141.4,59.14,141.4Z"/><path class="cls-3" d="M59,0C.09,0,6.1,51.88,6.37,61.22s7.37,10.59,7.64,0,8.46-23.83,45-23.83,44.76,13.24,45,23.83,7.37,9.34,7.64,0S118,0,59,0Z"/></g></g></svg>