<svg xmlns="http://www.w3.org/2000/svg" viewBox="0 0 72.76 106.27"><defs><style>.cls-1{fill:#fdcc9b;}.cls-2{fill:#f4b882;}.cls-3{fill:#fff;}.cls-4{fill:#352215;}.cls-5{fill:#63453d;}.cls-6{fill:#a9bf52;}</style></defs><title>Asset 2</title><g id="Layer_2" data-name="Layer 2"><g id="OBJECTS"><rect class="cls-1" x="28.97" y="83.19" width="14.82" height="16.71"/><path class="cls-1" d="M12.53,57.54c0,3.83-2.77,6.95-6.23,7S0,61.45,0,57.62s2.77-7,6.23-7S12.51,53.71,12.53,57.54Z"/><path class="cls-2" d="M9.9,57.55a3.86,3.86,0,0,1-3.61,4.06,4.05,4.05,0,0,1,0-8.06A3.84,3.84,0,0,1,9.9,57.55Z"/><path class="cls-1" d="M72.76,57.14c0,3.84-2.77,7-6.23,7s-6.28-3.06-6.3-6.89,2.76-7,6.22-7S72.73,53.31,72.76,57.14Z"/><path class="cls-2" d="M70.13,57.16a3.66,3.66,0,1,1-3.66-4A3.87,3.87,0,0,1,70.13,57.16Z"/><path class="cls-1" d="M66.35,59.62c.08,14.83-10.82,27-24.21,27.13l-11.53.07C17.22,86.91,6.2,74.84,6.12,60L6.06,48.4c-.08-14.84,10.81-27,24.2-27.13l11.53-.08c13.4-.09,24.42,12,24.5,26.82Z"/><path class="cls-2" d="M39.73,67c0,1.29-1.48,2.35-3.33,2.36S33,68.31,33,67s1.49-2.35,3.33-2.36S39.73,65.68,39.73,67Z"/><path class="cls-3" d="M36.38,71.67H26.06s.92,8.85,10.32,8.85,10.33-8.85,10.33-8.85Z"/><path class="cls-4" d="M50.86,59.85c0-1.12.46-2.73,1.69-2.81s1.66,1.82,1.69,2.81a.56.56,0,1,0,1.12,0c0-1.87-.92-3.93-2.81-4.06s-2.77,2.39-2.82,4.06a.57.57,0,1,0,1.13,0Z"/><path class="cls-4" d="M18.19,59.85c0-1.12.46-2.73,1.69-2.81s1.66,1.82,1.69,2.81a.56.56,0,1,0,1.12,0c-.05-1.87-.92-3.93-2.81-4.06s-2.77,2.39-2.82,4.06a.57.57,0,1,0,1.13,0Z"/><path class="cls-5" d="M48.37,51.42c2.52-2.39,5.85-2,8.33.23.6.55,1.35-.51.75-1.06-2.87-2.61-6.87-3-9.81-.24-.59.56.14,1.64.73,1.07Z"/><path class="cls-5" d="M24.05,51.42c-2.52-2.39-5.85-2-8.33.23-.6.55-1.35-.51-.75-1.06,2.87-2.61,6.87-3,9.81-.24.59.56-.13,1.64-.73,1.07Z"/><path class="cls-6" d="M43.79,91.55c-2.5,4.57-12.32,4.57-14.82,0,0,0-23.55-.6-29,14.72H72.59C67.17,91,43.79,91.55,43.79,91.55Z"/><path class="cls-5" d="M7.88,55.78a25.93,25.93,0,0,1,2.64-8.59c1.17-2.1,3.36-7.18,6.47-10,5.28-4.76,22.27,1.66,38.5-3.53a10,10,0,0,0,2.36,7.12c2.88,3.57,8.93,8.14,8.76,13.93,0,0,1.78-4,4-2.52,0,0,4.17-20.61-7.33-24.77,0,0,.38-10.21-8.62-15.44C44,5.84,38.8.84,38.8.84S40.16,5,42.18,6.4A13.43,13.43,0,0,1,32.53,0s-3.14,4.49,1.74,7.1c0,0-3.77,0-5.18-2.51,0,0-1.36,4.38,5.44,5.56,0,0-8.21.39-7.48-5.88A44.84,44.84,0,0,0,15.17,15.64s2-4.46,3.13-5.42c0,0-4.66,2.37-7.61,10.91A48.35,48.35,0,0,0,4.43,35.31C2.74,42.73,2.17,47.38,3.18,51.53,3.18,51.53,7,51.07,7.88,55.78Z"/></g></g></svg>