<svg xmlns="http://www.w3.org/2000/svg" xmlns:xlink="http://www.w3.org/1999/xlink" viewBox="0 0 80.18 114.57"><defs><style>.cls-1{fill:none;}.cls-2{fill:#ffe1d7;}.cls-3{fill:#b2a176;}.cls-4{fill:#9e8b63;}.cls-5{fill:#efb6ab;}.cls-6{fill:#ffccc0;}.cls-7{fill:#a83838;}.cls-8{clip-path:url(#clip-path);}.cls-9{fill:#f9f8f7;}.cls-10{fill:#214789;}.cls-11{fill:#e6f0f4;}.cls-12{fill:#394042;}.cls-13{fill:#545c5e;}</style><clipPath id="clip-path"><path class="cls-1" d="M49.75,89.22C47.17,91,42,92.63,40.09,92.57a12.73,12.73,0,0,1-9-3.94c-1.44.7-13.39,26.9-7.45,25.83l36.05-.11C62.54,114.35,51.2,89.92,49.75,89.22Z"/></clipPath></defs><title>Asset 12</title><g id="Layer_2" data-name="Layer 2"><g id="OBJECTS"><path class="cls-2" d="M40.09,7.58a36.2,36.2,0,0,1,23.46,7.78C69.18,20.15,72.28,28,74,34.8v5.35a112.1,112.1,0,0,0-2,13.52c8.73-.56,11.27,7.32,3.66,12.11-3.1,2-6.38.07-7,1-4.12,5.92-6.47,8-9.43,9.66-6.46,3.72-14.86,4-14.86,4-.45.94,0,7.17,0,7.17A41,41,0,0,1,49.12,89c-1,4.11-8.32,5.21-8.32,5.21S36,95.1,31.05,89a41.63,41.63,0,0,1,4.79-1.37s.43-6.23,0-7.17a33.61,33.61,0,0,1-13.94-4c-2.95-1.69-6.23-3.76-10.35-9.68-.65-.93-3.93,1-7-1C-3.09,61-.56,53.11,8.17,53.67a110.14,110.14,0,0,0-2-13.52V34.8C7.89,28,11,20.15,16.63,15.36a35.61,35.61,0,0,1,20-7.68Z"/><path class="cls-3" d="M77.1,46.23c-.16,1.9-1.79,8.12-3.63,9C70.85,56.38,71.83,38.6,71.38,36c-1.18-6.85-3.65-17.59-12.83-16.17C50.32,21.06,43.68,25,35.21,21.86c-5.44-2-11.72-4.94-16.85-.55-4.78,4.09-5.48,12-6,17.85-.19,2-2.82,17-2.75,17-6-7.48-6.47-18.62-4.5-27.63C6.9,20.24,11.19,11.81,18.22,6.7c10.67-7.76,24.9-8.26,37.09-4.15s19.61,13.35,21,26.33C77,34.6,77.6,40.47,77.1,46.23Z"/><path class="cls-4" d="M29.53,33.93c1-.37,2.73-1,2.48-1.71S30.65,32,30.2,32a4.46,4.46,0,0,0-2.63,1c-.36.36-.91,1.06-.29,1.37a1.84,1.84,0,0,0,1.62-.21Z"/><path d="M31.47,51c1.58-.32,1.34-2.59.91-3.68a2.48,2.48,0,0,0-1.26-1.53,1.41,1.41,0,0,0-1.7.93C29,48,29.39,51.36,31.47,51Z"/><path class="cls-5" d="M41,41.79a9.12,9.12,0,0,0,.21,1.13c.16.71.49,1.7.85,2.9s.84,2.59,1.27,4.1a46.54,46.54,0,0,1,1.18,4.82,15.54,15.54,0,0,1,.25,2.57,6,6,0,0,1-.14,1.32,3.57,3.57,0,0,1-.27.68,2.34,2.34,0,0,1-.24.31l0,0-.07.07,0,0-.12.09-.23.19-.34.17a2.33,2.33,0,0,1-.68.19,3.37,3.37,0,0,1-1.24-.11,6.22,6.22,0,0,1-1.91-1,8.12,8.12,0,0,1-1.32-1.15,9.33,9.33,0,0,1-.85-1,4.27,4.27,0,0,1-.45-.73l-.12-.28a6.12,6.12,0,0,0,.72.89,10.52,10.52,0,0,0,2.33,1.84,5.49,5.49,0,0,0,1.76.72,2.76,2.76,0,0,0,1,0,1.47,1.47,0,0,0,.42-.15l.18-.08.22-.18c.47-.33.51-1.12.52-1.88a14.38,14.38,0,0,0-.28-2.4c-.27-1.62-.68-3.24-1-4.76s-.69-3-1-4.19a26.12,26.12,0,0,1-.5-3A6.06,6.06,0,0,1,41,41.79Z"/><path class="cls-4" d="M49.78,33.93c-1-.37-2.73-1-2.48-1.71S48.65,32,49.1,32a4.41,4.41,0,0,1,2.63,1c.37.36.91,1.06.29,1.37a1.84,1.84,0,0,1-1.62-.21Z"/><path d="M47.84,51c-1.58-.32-1.34-2.59-.92-3.68a2.49,2.49,0,0,1,1.27-1.53,1.42,1.42,0,0,1,1.7.93C50.29,48,49.92,51.36,47.84,51Z"/><path class="cls-5" d="M27.55,61.66a8.73,8.73,0,0,0,.83,1,10.21,10.21,0,0,0,1.09,1,7.49,7.49,0,0,0,.72.54,9,9,0,0,0,.82.54,12.09,12.09,0,0,0,2,1,16.17,16.17,0,0,0,2.35.77,8.68,8.68,0,0,0,1.27.28,11.34,11.34,0,0,0,1.32.2,24.62,24.62,0,0,0,2.7.17A27.2,27.2,0,0,0,43.38,67a11.48,11.48,0,0,0,1.31-.19A10.35,10.35,0,0,0,46,66.51a15.12,15.12,0,0,0,4.32-1.75c.29-.18.56-.36.81-.55a8.76,8.76,0,0,0,.71-.54,9.62,9.62,0,0,0,1.06-1,7.76,7.76,0,0,0,.8-1A5.51,5.51,0,0,1,53,62.78a10.2,10.2,0,0,1-1,1.16,8.65,8.65,0,0,1-1.47,1.28,14,14,0,0,1-4.4,2.14c-.43.14-.88.23-1.33.33a9,9,0,0,1-1.39.23,27.07,27.07,0,0,1-2.82.19,26.91,26.91,0,0,1-2.87-.21,10.79,10.79,0,0,1-1.38-.25,11.61,11.61,0,0,1-1.32-.34,15.15,15.15,0,0,1-4.39-2.15,10.24,10.24,0,0,1-1.48-1.27,10.83,10.83,0,0,1-1-1.13A6,6,0,0,1,27.55,61.66Z"/><path class="cls-6" d="M8.88,61.28c-.32-2.4-2.37-5.4-4.44-4.16-.59.35-.67,1.3-.71,1.9-.1,1.85.73,4.2,2.69,4.75S9.11,63,8.88,61.28Z"/><path class="cls-6" d="M71.25,61.28c.32-2.4,2.37-5.4,4.45-4.16.58.35.67,1.3.7,1.9.1,1.85-.73,4.2-2.68,4.75S71,63,71.25,61.28Z"/><path class="cls-7" d="M60.93,106.2c-.2-3.76-.88-7.65-2.33-9.76-2.4-3.35-4.29-5.76-9.52-7.65-2.07,3.5-7.18,4.77-9,4.77-3.48,0-7.87-2.61-9-4.77-5.23,1.89-7.13,4.3-9.52,7.65-1.46,2.11-2.13,6-2.33,9.76a47.43,47.43,0,0,0,.25,7.84c.07.56,4.05.33,8.64.33l16.11,0,8,0c4.59,0,8.74,0,8.81-.53A50.84,50.84,0,0,0,60.93,106.2Z"/><g class="cls-8"><polygon class="cls-9" points="47.22 114.51 32.56 114.5 32.66 88.56 47.23 88.33 47.22 114.51"/></g><polygon class="cls-10" points="19.1 106.94 19.1 114.41 32.61 114.57 32.61 109.06 19.1 106.94"/><path class="cls-11" d="M20,100s2.51,2.06,12.59,2.5v6.53s-8.7.44-13.51-2.12A42.12,42.12,0,0,1,20,100Z"/><path class="cls-10" d="M22,95.8s2.93,3.2,2.8,18.67l-5.65-.06S17.8,100.93,22,95.8Z"/><polygon class="cls-10" points="60.88 106.94 60.88 114.41 47.23 114.4 47.22 108.9 60.88 106.94"/><path class="cls-11" d="M60,100s-2.67,2-12.75,2.47v6.59s8.85.41,13.66-2.15A42.93,42.93,0,0,0,60,100Z"/><path class="cls-10" d="M57.87,95.44s-2.59,3.47-2.46,19l5.6,0S62.13,100,57.87,95.44Z"/><path class="cls-12" d="M53.25,105.41a.95.95,0,1,1-1-.94A.94.94,0,0,1,53.25,105.41Z"/><path class="cls-13" d="M40.09,93.07c-5.62,0-7.74-2.6-7.83-2.71l.78-.62s2,2.33,7.05,2.33a11.54,11.54,0,0,0,7.29-2.39l.67.74A12.25,12.25,0,0,1,40.09,93.07Z"/><path class="cls-10" d="M36,82.64c-2.46-.13-4.76,1.32-5.88,1.85C29.53,86.07,27,90,26.8,91.81c-.19,2.72,3.22.46,3.85-1,.82,3.86,1.2,6.41,2,10.27,0-9.22.09-6.53.43-11A4.63,4.63,0,0,1,35.8,87.6Z"/><path class="cls-10" d="M44.1,82.63c2.47-.13,5,1.33,6.12,1.86.57,1.58,2.92,5,3.11,6.81.19,2.72-3.07,1-3.7-.44C48.8,94.72,48,97.13,47.23,101c0-9.22.08-6.6-.26-11.1a4.26,4.26,0,0,0-2.68-2.3Z"/></g></g></svg>