<svg xmlns="http://www.w3.org/2000/svg" viewBox="0 0 80.18 112.87"><defs><style>.cls-1{fill:#e9a532;}.cls-2{fill:#ffd7c7;}.cls-3{fill:#fff;}.cls-4{fill:#bed8e3;}.cls-5{fill:#a07f4a;}.cls-6{fill:#937241;}.cls-7{fill:#e59a80;}.cls-8{fill:#f2bdaa;}.cls-9{fill:#f1ce58;}.cls-10{fill:#272425;}</style></defs><title>Asset 16</title><g id="Layer_2" data-name="Layer 2"><g id="OBJECTS"><path class="cls-1" d="M31,85.46s16.24-1.13,17.68,0-1.4,5.39-1.4,5.39L37.3,97,32,90.11Z"/><path class="cls-2" d="M40.09,5.94a36.2,36.2,0,0,1,23.46,7.78C69.18,18.51,72.28,26.4,74,33.16v5.35A112.1,112.1,0,0,0,72,52c8.73-.57,11.27,7.32,3.66,12.11-3.1,2-6.38.07-7,1-4.12,5.92-6.47,8-9.43,9.66-6.46,3.72-14.86,4-14.86,4-.45.94,0,7.17,0,7.17a39.18,39.18,0,0,1,4.79,1.37,8.23,8.23,0,0,1-4.5,4.37,22.49,22.49,0,0,1-4,.41h-.53a21.73,21.73,0,0,1-4.54-.4,8.26,8.26,0,0,1-4.5-4.37A39.7,39.7,0,0,1,35.84,86s.43-6.23,0-7.17a33.61,33.61,0,0,1-13.94-4c-2.95-1.69-6.23-3.76-10.35-9.68-.65-.93-3.93,1-7-1C-3.09,59.35-.56,51.46,8.17,52a110.14,110.14,0,0,0-2-13.52V33.16C7.89,26.4,11,18.51,16.63,13.72A35.61,35.61,0,0,1,36.61,6Z"/><path class="cls-3" d="M35.6,90.11s2.72,1.68,9.18.34l-4.14,10.17Z"/><path class="cls-4" d="M40.2,92.55A8.21,8.21,0,0,1,35,91l.33-.38s3.59,3,10.36.25l.19.46A15.22,15.22,0,0,1,40.2,92.55Z"/><path class="cls-5" d="M18.76,8.52a8.12,8.12,0,0,1,.88-.88,32.42,32.42,0,0,1,5.92-4.43A26.93,26.93,0,0,1,39.91.05c7.71.45,14,3.87,21.43.21.23,1.23-.61,2.36-1.28,3.31,1.49-.23,3-1.79,3.67-.38.58,1.24-.6,2.56-1,3.65a3.74,3.74,0,0,0,3.76-.27,2.57,2.57,0,0,1-1.77,2.49c3.07-1.34,7.65,4.87,8.81,7,1.74,3.18,4,7.1,4.47,10.72.7,4.85,1.27,10,.26,14.8a47.7,47.7,0,0,1-3,9.55c-.33.76-1.12,2.46-2.13,2.5-1.45.06-1.47-2-1.68-3a82.65,82.65,0,0,0-2.6-10.07C67.63,37,65.35,34,63.65,30.67a29.6,29.6,0,0,1-3.2-11.38c-3.21,1.76-5.66,4-9.57,4.65-5.05.86-10.53,1.15-15.14-1.25,1.12,1.58,3.38,2.45,4.71,3.87-3.55.35-7.94-.92-11.35-1.91a13.87,13.87,0,0,1-5.8-3.28c.56,1.77,2.62,2.64,3.25,4.3-2.56-.36-7.91-2.14-8.5-4.93a37.76,37.76,0,0,1,.31,5.44,20.42,20.42,0,0,1-2.07,6.2c-1.36,3-3,5.85-3.61,9.16a55.67,55.67,0,0,1-1.28,6.19,16.8,16.8,0,0,0-1,4.15c-.09,2.93-1.08,3.26-1,3.31-8.37-10.45-11.31-24.42-3-36,2.41-3.38,6.08-4.08,9.06-6.68A41.9,41.9,0,0,0,18.76,8.52Z"/><path class="cls-6" d="M29.53,32.29c1-.37,2.73-1,2.48-1.71s-1.35-.26-1.81-.18a4.46,4.46,0,0,0-2.63,1c-.36.36-.91,1.06-.29,1.37a1.84,1.84,0,0,0,1.62-.21Z"/><path d="M31.47,49.31c1.58-.32,1.34-2.59.91-3.68a2.43,2.43,0,0,0-1.27-1.53,1.4,1.4,0,0,0-1.69.93C29,46.38,29.39,49.72,31.47,49.31Z"/><path class="cls-7" d="M37,55.25a8.54,8.54,0,0,0,.41,1.11,7.34,7.34,0,0,0,1.75,2.48,2.59,2.59,0,0,0,1.69.69,2.16,2.16,0,0,0,1-.22.86.86,0,0,0,.22-.12,1.67,1.67,0,0,0,.48-.49,3.21,3.21,0,0,0,.31-2.11,4.2,4.2,0,0,0-.3-1.13L42,54.26c-.33-.8-.59-1.65-.87-2.46s-.49-1.64-.72-2.43-.36-1.57-.52-2.31a15,15,0,0,1-.25-2.13,24.94,24.94,0,0,1,.23-3.16L40,40.58s0,.43.07,1.2,0,1.85.14,3.11a12.52,12.52,0,0,0,.4,2c.22.71.41,1.46.65,2.23s.49,1.56.78,2.36.56,1.6.89,2.41l.46,1.21a5.66,5.66,0,0,1,.35,1.36,4.09,4.09,0,0,1-.54,2.72,2.52,2.52,0,0,1-.5.53,2.35,2.35,0,0,1-.63.35,3.14,3.14,0,0,1-1.28.19,3.26,3.26,0,0,1-2-1,5.5,5.5,0,0,1-1-1.52,9.33,9.33,0,0,1-.5-1.3A5.78,5.78,0,0,1,37,55.25Z"/><path class="cls-2" d="M19.2,104.74a49.74,49.74,0,0,0,.25,7.84c.07.55,4,.15,8.6.15v-8Z"/><path class="cls-6" d="M49.78,32.29c-1-.37-2.73-1-2.48-1.71s1.35-.26,1.8-.18a4.49,4.49,0,0,1,2.64,1c.35.36.9,1.06.28,1.37a1.84,1.84,0,0,1-1.62-.21Z"/><path d="M47.84,49.31c-1.58-.32-1.34-2.59-.92-3.68a2.49,2.49,0,0,1,1.27-1.53,1.42,1.42,0,0,1,1.7.93C50.29,46.38,49.92,49.72,47.84,49.31Z"/><path class="cls-2" d="M61,104.74a50.84,50.84,0,0,1,0,7.64c-.07.55-4.27.35-8.86.35v-8Z"/><path class="cls-7" d="M26.59,61a7.82,7.82,0,0,0,.84,1,11.17,11.17,0,0,0,1.08,1,7.07,7.07,0,0,0,.72.53c.25.19.53.37.82.55a14.06,14.06,0,0,0,2,1,16.89,16.89,0,0,0,2.34.77,10.62,10.62,0,0,0,1.27.28c.43.08.87.16,1.32.2a24.64,24.64,0,0,0,2.71.17,27.16,27.16,0,0,0,2.75-.15c.44,0,.88-.11,1.32-.19A10.58,10.58,0,0,0,45,65.83a14.72,14.72,0,0,0,4.32-1.76c.29-.18.57-.36.82-.55a5.75,5.75,0,0,0,.71-.54,9.6,9.6,0,0,0,1.06-1,6.7,6.7,0,0,0,.79-1,5.28,5.28,0,0,1-.64,1.13,11.16,11.16,0,0,1-2.43,2.44,14.09,14.09,0,0,1-4.4,2.13,9.57,9.57,0,0,1-1.33.33,10.34,10.34,0,0,1-1.39.24,27.07,27.07,0,0,1-2.82.19,26.51,26.51,0,0,1-2.86-.22A9,9,0,0,1,35.46,67a11.25,11.25,0,0,1-1.33-.34,14.41,14.41,0,0,1-2.41-1,13.86,13.86,0,0,1-2-1.2,9.13,9.13,0,0,1-1.48-1.27,10.83,10.83,0,0,1-1-1.13A6,6,0,0,1,26.59,61Z"/><path class="cls-8" d="M8.88,59.64c-.32-2.4-2.37-5.4-4.45-4.16-.58.35-.66,1.3-.69,1.9-.11,1.85.72,4.2,2.68,4.75S9.11,61.32,8.88,59.64Z"/><path class="cls-8" d="M71.37,59.64c.33-2.4,2.38-5.4,4.45-4.16.58.35.67,1.3.7,1.9.11,1.85-.73,4.2-2.68,4.75S71.15,61.32,71.37,59.64Z"/><path class="cls-9" d="M39.84,96.24c.69-1.61,3.21-6.66,3.46-8,2-.68,3-.63,5.82-.91,5.23,1.88,7.13,4.3,9.52,7.65,1.46,2.1,2.13,6,2.34,9.76H52.12v8l-7.91,0H40.44c-2.49,0-9.54,0-12.39,0v-8H19.2c.21-3.76.88-7.66,2.34-9.76,2.39-3.35,4.29-5.77,9.51-7.65a11,11,0,0,1,4.55.7c1.07.22,4.24,8.21,4.24,8.21Z"/><path class="cls-1" d="M39.84,96.24,36.61,88S33.87,86.92,31,85.46L26.5,88.94,33,93.69,36.3,90Z"/><path class="cls-1" d="M38.87,98a1,1,0,1,1,1,1A1,1,0,0,1,38.87,98Z"/><path class="cls-1" d="M38.87,103a1,1,0,1,1,1,.95A1,1,0,0,1,38.87,103Z"/><path class="cls-1" d="M39.82,96.24,43.05,88s2.74-1.11,5.62-2.57l4.5,3.48-6.49,4.75L43.36,90Z"/><path class="cls-10" d="M25.46,56.61A10.83,10.83,0,1,1,36.29,45.78,10.84,10.84,0,0,1,25.46,56.61Zm0-20.66a9.83,9.83,0,1,0,9.83,9.83A9.83,9.83,0,0,0,25.46,36Z"/><path class="cls-10" d="M53.84,56.61A10.83,10.83,0,1,1,64.67,45.78,10.84,10.84,0,0,1,53.84,56.61Zm0-20.66a9.83,9.83,0,1,0,9.83,9.83A9.84,9.84,0,0,0,53.84,36Z"/><path class="cls-10" d="M43.51,46.28a.49.49,0,0,1-.39-.19A4.17,4.17,0,0,0,40,44.25c-2.06-.07-3.82,1.84-3.84,1.86a.48.48,0,0,1-.7,0,.49.49,0,0,1,0-.7c.08-.1,2.08-2.3,4.6-2.2a5.13,5.13,0,0,1,3.88,2.22.49.49,0,0,1-.08.7A.51.51,0,0,1,43.51,46.28Z"/><rect class="cls-10" x="13.55" y="44.16" width="1.59" height="1.62"/><rect class="cls-10" x="64.17" y="44.16" width="1.59" height="1.62"/><path class="cls-10" d="M6.33,53.05A.51.51,0,0,1,6,52.9a.5.5,0,0,1,0-.71l8-7.58a.5.5,0,0,1,.71,0,.49.49,0,0,1,0,.7l-8,7.59A.5.5,0,0,1,6.33,53.05Z"/><path class="cls-10" d="M74.84,53.05a.5.5,0,0,1-.31-.1l-9.87-7.58a.5.5,0,0,1-.09-.7.51.51,0,0,1,.7-.1l9.87,7.59a.5.5,0,0,1,.09.7A.48.48,0,0,1,74.84,53.05Z"/></g></g></svg>