<svg xmlns="http://www.w3.org/2000/svg" viewBox="0 0 80.8 111.19"><defs><style>.cls-1{fill:#7f3d27;}.cls-2{fill:#ffd7c7;}.cls-3{fill:#e59a80;}.cls-4{fill:#f2bdaa;}.cls-5{fill:#722c20;}.cls-6{fill:#f9c2c2;}.cls-7{fill:#d4b0de;}</style></defs><title>Asset 6</title><g id="Layer_2" data-name="Layer 2"><g id="OBJECTS"><path class="cls-1" d="M31.51,3C39.91-1.61,49.17-.18,58,2.52c5,1.54,9.45,4.94,13.59,8,9.75,7.25,10.84,25.54,7.54,36.08-1.58,5-2.43,10.78-3.4,16C74.48,69.3,70,87.83,69.43,91.74c-.28,2-2-4.7-2.77-6.09-.14,3.84-1.55,13.68-1.55,13.68-1,.14-2.32-2.52-3.18-3.23,0,.29.22,3.41.22,3.7-.28,0-3.66-1.44-3.8-1.44-1,.29-1.64-.31-2.35.11-1.57.86,0,0-2,0a48.53,48.53,0,0,1-6.41-.85c-3.42-.86-3.56.57-6.55,1.56-1.42.57-2.85,0-4.27.29s-1.42,1-2.42,1.42-.57.86-2,.86c-1.71,0-3.13-1.57-4.84-1.85-2-.29-2.57,1.14-4.27,1.14-1.71-.15-2.85-2.43-4-3.28-.85,1-1,2.56-1.85,3.42a9.31,9.31,0,0,1-2.56-8.26,11.84,11.84,0,0,1-5.55,7,86.78,86.78,0,0,0-.73-16.62c-1.12-8.19-3.26-12.71-4.83-21-2.13-12.38-6.69-27.9-1-40.14C6.74,13.77,19,6.08,27.67,5.08,27.67,5.08,30.52,3.52,31.51,3Z"/><path class="cls-2" d="M44.44,84.28s-.43-6.23,0-7.17c0,0,8.4-.27,14.86-4,3-1.7,5.31-3.74,9.43-9.66.64-.93,3.92,1,7-1,7.61-4.79,5.07-12.68-3.66-12.11a112.1,112.1,0,0,1,2-13.52V31.47C72.39,24.71,69.29,16.83,63.66,12A36.2,36.2,0,0,0,40.2,4.26l-3.48.1A37.88,37.88,0,0,0,26.27,6.61l-2.21.91A33.06,33.06,0,0,0,16.74,12C11.1,16.83,8,24.71,6.31,31.47v5.36a110.14,110.14,0,0,1,2,13.52C-.45,49.78-3,57.67,4.62,62.46c3.1,2,6.38.07,7,1,4.12,5.92,6.47,8,9.42,9.66,6.47,3.72,14.87,4,14.87,4,.44.94,0,7.17,0,7.17-2.07,1.73-3.46,1.9-4.44,2.46,0,0,6.27,7.09,9.57,7.58,0,0,6.88-6.2,7.64-7.65A13.48,13.48,0,0,1,44.44,84.28Z"/><path class="cls-2" d="M60.67,99c.15,2.77.65,9.83.42,11.66-.07.55-2.35.48-6.94.49l-.14-8.5Z"/><path class="cls-3" d="M27.8,59.54a6.62,6.62,0,0,0,.77.89,9.21,9.21,0,0,0,1,.89,13.42,13.42,0,0,0,1.42,1,12.22,12.22,0,0,0,1.81.91,14.9,14.9,0,0,0,2.14.7,9,9,0,0,0,1.17.25,9.37,9.37,0,0,0,1.2.18,23.1,23.1,0,0,0,2.48.16c.85,0,1.72,0,2.52-.14a9.9,9.9,0,0,0,1.2-.17A10.83,10.83,0,0,0,44.66,64a13.47,13.47,0,0,0,4-1.59,12.28,12.28,0,0,0,1.41-1,8.87,8.87,0,0,0,1-.91,6.84,6.84,0,0,0,.74-.92,5.13,5.13,0,0,1-.59,1,9.72,9.72,0,0,1-2.21,2.25,12.9,12.9,0,0,1-4,2,9.47,9.47,0,0,1-1.22.31,8.85,8.85,0,0,1-1.27.21,25.63,25.63,0,0,1-2.59.18,22.59,22.59,0,0,1-2.63-.2,9.14,9.14,0,0,1-1.27-.23,9.75,9.75,0,0,1-1.21-.31,14,14,0,0,1-4-2,9,9,0,0,1-1.35-1.17,10.26,10.26,0,0,1-.9-1A5.87,5.87,0,0,1,27.8,59.54Z"/><path class="cls-4" d="M9,58c-.32-2.4-2.37-5.4-4.44-4.16-.59.35-.67,1.3-.71,1.9-.1,1.85.73,4.2,2.69,4.75S9.22,59.64,9,58Z"/><path class="cls-4" d="M71.36,58c.33-2.4,2.38-5.4,4.45-4.16.58.35.67,1.3.7,1.9.1,1.85-.73,4.2-2.68,4.75S71.14,59.64,71.36,58Z"/><path class="cls-5" d="M28.21,30.85s0-.09,0-.25a2.54,2.54,0,0,1,0-.26A.7.7,0,0,1,28.3,30a3,3,0,0,1,.23-.42,1.7,1.7,0,0,1,.34-.37,1.51,1.51,0,0,1,.43-.32l.48-.24.52-.13a1.83,1.83,0,0,1,.52,0,2.74,2.74,0,0,1,.89.12,1.9,1.9,0,0,1,.57.27l.2.13-.24.06c-.15,0-.34,0-.57.11l-.36.08c-.13,0-.25.08-.39.1s-.53.16-.8.24-.25.11-.38.16a1.27,1.27,0,0,0-.35.17c-.1.07-.24.11-.33.17a1.74,1.74,0,0,1-.26.19.6.6,0,0,0-.24.21c-.06.08-.13.14-.18.2Z"/><path class="cls-3" d="M38.92,45.09l.17.62.29.63c.15.24.29.51.49.78a9.46,9.46,0,0,0,.67.84c.24.3.54.58.82.88s.63.56,1,.83l.54.37c.19.1.34.2.56.3a2.92,2.92,0,0,1,.67.44,1,1,0,0,1,.32.41,1,1,0,0,1,.14.47,2.36,2.36,0,0,1,0,.81v.09l0,.08h0v0l0,0-.06.15-.11.31a7.14,7.14,0,0,1-.41.65,5.43,5.43,0,0,1-.48.48,4,4,0,0,1-1,.67,4.15,4.15,0,0,1-.95.33,3.61,3.61,0,0,1-.76.06,3.3,3.3,0,0,1-.48-.12l-.16-.05a4.82,4.82,0,0,0,.63,0,5.27,5.27,0,0,0,.66-.23,3.5,3.5,0,0,0,.76-.46,1.66,1.66,0,0,0,.39-.32,2.73,2.73,0,0,0,.38-.38c.1-.14.24-.28.33-.43s.16-.27.24-.44l.09-.32,0-.15v-.06h0c0-.06,0,.08,0,.06v-.07a2.43,2.43,0,0,0,0-.54.25.25,0,0,0,0-.17.24.24,0,0,0-.11-.12,2.8,2.8,0,0,0-.49-.28c-.2-.1-.44-.25-.65-.38l-.58-.43a8.34,8.34,0,0,1-1-1,9.12,9.12,0,0,1-.79-1,7.36,7.36,0,0,1-.57-1,8.42,8.42,0,0,1-.35-.92c-.06-.29-.11-.55-.13-.75Z"/><path class="cls-6" d="M18.84,53.91c1.25.65,4.8,1.17,4.81-1s-3.7-2.29-5.07-1.69C16.78,52,17.29,53.1,18.84,53.91Z"/><path class="cls-1" d="M9.36,42.66c11.06-4.45,17.72-16.59,19.88-27.61,7.83,6.83,19.07,11.1,29.61,9.11A12.78,12.78,0,0,0,61,32c1.28,1.85,3.42,4.7,5.41,5.84a19.11,19.11,0,0,1,4,3.52c.71,1,.81,3.47.88,4.21.2,2.28-.36,5,.07,7.13,5.2-6.48,4.89-19.85,2.05-28.53C71,16.33,63.4,8.36,55.71,5.23,49.74,3,39.89,3,33.77,3.75c-4.42.43-19.7,7.12-21.84,10.11,0,0-6.18,8.73-7.54,17.18C3.82,34.63,6,48.42,7.17,52.69c0,0,.71,2.55,1.14.82S9.36,42.66,9.36,42.66Z"/><path d="M31.58,47.63c1.58-.32,1.34-2.59.91-3.68a2.45,2.45,0,0,0-1.26-1.53,1.41,1.41,0,0,0-1.7.92C29.13,44.7,29.5,48,31.58,47.63Z"/><path class="cls-5" d="M51.39,30.85l-.17-.17c0-.06-.12-.12-.18-.2a.6.6,0,0,0-.24-.21,2.48,2.48,0,0,1-.26-.19c-.08-.06-.23-.1-.33-.17a1.27,1.27,0,0,0-.35-.17c-.13,0-.25-.12-.38-.16s-.53-.18-.8-.24-.26-.09-.39-.1l-.36-.08c-.23-.07-.42-.07-.57-.11L47.12,29l.2-.13a1.85,1.85,0,0,1,.58-.27,2.66,2.66,0,0,1,.89-.12,1.79,1.79,0,0,1,.51,0l.52.13.49.24a1.61,1.61,0,0,1,.42.32,2,2,0,0,1,.35.37,4.33,4.33,0,0,1,.22.42.7.7,0,0,1,.09.35,2.54,2.54,0,0,1,0,.26C51.4,30.76,51.39,30.85,51.39,30.85Z"/><path class="cls-6" d="M60.76,53.91c-1.25.65-4.79,1.17-4.81-1s3.7-2.29,5.07-1.69C62.82,52,62.31,53.1,60.76,53.91Z"/><path d="M48,47.63C46.37,47.31,46.61,45,47,44a2.47,2.47,0,0,1,1.27-1.53,1.42,1.42,0,0,1,1.7.92C50.4,44.7,50,48,48,47.63Z"/><path class="cls-7" d="M48.67,86.35c3.58,1.17,12.48,5.35,12,12.72-.06.94-6.67,3.29-6.65,4l.14,8.13c-4.85,0-7.66-.12-9.83-.12l-3.77,0-7.64.07c-1.71,0-3.84.07-6.66.07l.14-8.13c0-.7-6.59-3-6.66-4-.48-7.37,8.42-11.55,12-12.72,0,0,8.29,8.21,9.52,7.52S48.67,86.35,48.67,86.35Z"/><path class="cls-2" d="M19.73,99c-.15,2.77-.65,9.83-.42,11.66.07.55,2.35.48,6.94.49l.14-8.57Z"/></g></g></svg>