<svg xmlns="http://www.w3.org/2000/svg" viewBox="0 0 80.93 114.53"><defs><style>.cls-1{fill:#5b6468;}.cls-2{fill:#edc3ae;}.cls-3{fill:#56331e;}.cls-4{fill:#e59a80;}.cls-5{fill:#ddac97;}</style></defs><title>Asset 7</title><g id="Layer_2" data-name="Layer 2"><g id="OBJECTS"><path class="cls-1" d="M40.71,93.76c1.14-.21,5.52-2.44,9-4.77,5.22,1.88,7.12,4.3,9.51,7.65,1.46,2.1,2.14,6,2.34,9.76H52.75v8l-7.92,0-3.76,0c-2.49,0-9.54,0-12.39,0v-8H19.82c.21-3.76.88-7.66,2.34-9.76,2.39-3.35,4.29-5.77,9.52-7.65,3.52,2.2,9,4.77,9,4.77Z"/><path class="cls-2" d="M40.71,7.6a36.23,36.23,0,0,1,23.47,7.78c5.63,4.79,8.73,12.67,10.42,19.43v5.36a110.14,110.14,0,0,0-2,13.52c8.73-.57,11.26,7.32,3.66,12.11-3.1,2-6.38.07-7,1-4.12,5.92-6.47,8-9.42,9.66-6.47,3.72-14.87,4-14.87,4-.44.94,0,7.17,0,7.17A39.7,39.7,0,0,1,49.75,89c-2.52,2-9,4.77-9,4.77-1.63,0-4.82-2.17-9-4.77a39.18,39.18,0,0,1,4.79-1.37s.43-6.23,0-7.17a33.55,33.55,0,0,1-13.93-4c-2.95-1.7-6.24-3.76-10.36-9.68-.64-.93-3.92,1-7-1C-2.47,61,.07,53.12,8.8,53.69a112.1,112.1,0,0,0-2-13.52V34.81c1.69-6.76,4.79-14.64,10.42-19.43a35.64,35.64,0,0,1,20-7.68Z"/><path class="cls-3" d="M19.42,10.2a27.61,27.61,0,0,1,5.09-4.51C28.83,3,34.51-.19,39.61,0A33.37,33.37,0,0,1,59.87,8.25a14.1,14.1,0,0,1,2.29,2.86c.61.91.85,1.36,1.72,1.75,1.69.76,3.69,1,5.46,1.81,3.2,1.42,6,3,7.76,6.12,2.75,4.68,3.38,10.35,3.46,15.68,0,1.88.52,3.64.32,5.57-.38,3.72-1.26,7.54-3.63,10.46C76,54,72.6,57.69,71.79,53.82c-1.05-5-.23-10.16-4.35-13.83-5.3-4.7-8.43-13.33-6.08-20.58-5.29,3.92-14.7,5.1-21.17,5.29C33.73,25.1,23,23.14,18.44,18c1.37,5.1,3.13,8.82,2.15,14.5-.78,4.71-2.54,9.41-7.44,10.78-.2,5.1,0,9.41-3.14,13.53C5.31,51,.6,43.72,0,35.88c-.39-9.8,7.65-17.06,15.68-21.37C15.69,14.51,18.83,11,19.42,10.2Z"/><path class="cls-3" d="M30.15,34c1-.37,2.73-1,2.48-1.71s-1.35-.26-1.8-.18a4.43,4.43,0,0,0-2.63,1c-.37.36-.91,1.06-.29,1.37a1.84,1.84,0,0,0,1.62-.21Z"/><path d="M32.1,51c1.57-.32,1.33-2.59.91-3.68a2.47,2.47,0,0,0-1.27-1.53,1.42,1.42,0,0,0-1.7.92C29.64,48,30,51.38,32.1,51Z"/><path class="cls-4" d="M40.59,61.16s.2-.17.57-.44c.17-.14.39-.31.61-.52a8.66,8.66,0,0,0,.7-.75,3.45,3.45,0,0,0,.8-2.21,7,7,0,0,0-.79-2.7c-.41-.92-.93-1.82-1.34-2.71a14.33,14.33,0,0,1-1-2.53,6.82,6.82,0,0,1-.23-1.92,3.41,3.41,0,0,1,0-.54l0-.18s0,.26.12.7a8.19,8.19,0,0,0,.58,1.75c.31.69.74,1.47,1.22,2.31s1,1.73,1.47,2.7a6.74,6.74,0,0,1,.75,3.15,3.27,3.27,0,0,1-.42,1.5,4,4,0,0,1-.83,1.07,5.8,5.8,0,0,1-.89.66l-.75.39Z"/><path class="cls-2" d="M19.82,106.4a48.42,48.42,0,0,0,.26,7.84c.07.55,4,.15,8.6.15v-8Z"/><path class="cls-3" d="M50.4,34c-1-.37-2.73-1-2.48-1.71s1.36-.26,1.81-.18a4.46,4.46,0,0,1,2.63,1c.36.36.91,1.06.29,1.37A1.84,1.84,0,0,1,51,34.18Z"/><path d="M48.46,51c-1.58-.32-1.33-2.59-.91-3.68a2.43,2.43,0,0,1,1.27-1.53,1.41,1.41,0,0,1,1.69.92C50.91,48,50.54,51.38,48.46,51Z"/><path class="cls-2" d="M61.6,106.4a50.84,50.84,0,0,1,0,7.64c-.07.55-4.26.35-8.85.35v-8Z"/><path class="cls-4" d="M27.22,62.64a7.51,7.51,0,0,0,.83,1,12.51,12.51,0,0,0,1.08,1,8.39,8.39,0,0,0,.72.53c.26.19.53.37.83.55a13.93,13.93,0,0,0,2,1,17.82,17.82,0,0,0,2.34.77,10.37,10.37,0,0,0,1.28.28c.43.08.87.16,1.32.2.88.13,1.83.13,2.7.17a24.54,24.54,0,0,0,2.76-.16,11.46,11.46,0,0,0,1.31-.18,10.36,10.36,0,0,0,1.28-.27A14.39,14.39,0,0,0,50,65.73a9,9,0,0,0,.82-.55,5.75,5.75,0,0,0,.71-.54,8.77,8.77,0,0,0,1.06-1,7.76,7.76,0,0,0,.8-1,5.85,5.85,0,0,1-.65,1.12,9.37,9.37,0,0,1-.95,1.15,9.54,9.54,0,0,1-1.47,1.29,14.2,14.2,0,0,1-4.4,2.13,9.94,9.94,0,0,1-1.33.33,9.16,9.16,0,0,1-1.39.23,24.78,24.78,0,0,1-2.82.2,26.89,26.89,0,0,1-2.87-.22,9,9,0,0,1-1.38-.24,13.41,13.41,0,0,1-1.32-.34,13.76,13.76,0,0,1-2.41-1,12.82,12.82,0,0,1-2-1.2,9.13,9.13,0,0,1-1.48-1.27,12.45,12.45,0,0,1-1-1.13A6.41,6.41,0,0,1,27.22,62.64Z"/><path class="cls-5" d="M9.51,61.3c-.33-2.4-2.38-5.4-4.45-4.16-.58.35-.67,1.3-.7,1.9-.11,1.85.73,4.2,2.68,4.75S9.73,63,9.51,61.3Z"/><path class="cls-5" d="M71.88,61.3c.32-2.4,2.37-5.4,4.44-4.16.59.35.67,1.3.7,1.9.11,1.85-.72,4.2-2.68,4.75S71.65,63,71.88,61.3Z"/></g></g></svg>