<svg xmlns="http://www.w3.org/2000/svg" viewBox="0 0 72.76 92.23"><defs><style>.cls-1{fill:#bf8158;}.cls-2{fill:#aa6944;}.cls-3{fill:#352215;}.cls-4{fill:#2d2c2b;}.cls-5{fill:#a9703b;}.cls-6{fill:#fcb316;}.cls-7{fill:#350304;}</style></defs><title>Asset 4</title><g id="Layer_2" data-name="Layer 2"><g id="OBJECTS"><rect class="cls-1" x="28.97" y="69.16" width="14.82" height="16.71"/><path class="cls-1" d="M12.53,43.5c0,3.83-2.77,7-6.23,7S0,47.41,0,43.58s2.77-7,6.23-7S12.51,39.67,12.53,43.5Z"/><path class="cls-2" d="M9.9,43.51a3.86,3.86,0,0,1-3.61,4.06,4.05,4.05,0,0,1,0-8.06A3.84,3.84,0,0,1,9.9,43.51Z"/><path class="cls-1" d="M72.76,43.11c0,3.83-2.77,7-6.23,7s-6.28-3.06-6.3-6.89,2.76-7,6.22-7S72.73,39.27,72.76,43.11Z"/><path class="cls-2" d="M70.13,43.12a3.66,3.66,0,1,1-3.66-4A3.87,3.87,0,0,1,70.13,43.12Z"/><path class="cls-1" d="M66.35,45.58c.08,14.84-10.82,27-24.21,27.13l-11.53.07C17.22,72.87,6.2,60.81,6.12,46L6.06,34.36C6,19.53,16.87,7.32,30.26,7.23l11.53-.08c13.4-.08,24.42,12,24.5,26.82Z"/><path class="cls-2" d="M39.73,52.93c0,1.29-1.48,2.35-3.33,2.36S33,54.27,33,53s1.48-2.34,3.33-2.36S39.73,51.64,39.73,52.93Z"/><path class="cls-3" d="M54.8,45.82c0,1.89-1,3.44-2.25,3.44s-2.26-1.55-2.26-3.44,1-3.45,2.26-3.45S54.8,43.92,54.8,45.82Z"/><path class="cls-3" d="M22.13,45.82c0,1.89-1,3.44-2.25,3.44s-2.26-1.55-2.26-3.44,1-3.45,2.26-3.45S22.13,43.92,22.13,45.82Z"/><path class="cls-4" d="M48.37,37.38c2.52-2.39,5.85-2,8.33.23.6.55,1.35-.5.75-1-2.87-2.62-6.87-3-9.81-.24-.59.55.14,1.63.73,1.06Z"/><path class="cls-4" d="M24.05,37.38c-2.52-2.39-5.85-2-8.33.23-.6.55-1.35-.5-.75-1,2.87-2.62,6.87-3,9.81-.24.59.55-.13,1.63-.73,1.06Z"/><path class="cls-5" d="M28.49,59.47c2.26,5.79,13.42,5.86,15.44-.18a.7.7,0,1,0-1.33-.41C41,63.74,31.43,63.19,29.68,58.7c-.35-.9-1.54-.12-1.19.77Z"/><path class="cls-6" d="M43.79,77.51c-2.5,4.57-12.32,4.57-14.82,0,0,0-23.55-.6-29,14.72H72.59C67.17,76.91,43.79,77.51,43.79,77.51Z"/><path class="cls-7" d="M36.62,0S1.18-1.18,3.29,37.87c0,0,3.53.3,4.44,5.28,0,0-.17-18.51,4.42-20.81s16.06,2.53,24.47,2.53S56.51,20,61.09,22.34s4.42,20.81,4.42,20.81c.9-5,4.44-5.28,4.44-5.28C72.06-1.18,36.62,0,36.62,0Z"/></g></g></svg>