<svg xmlns="http://www.w3.org/2000/svg" viewBox="0 0 72.75 97.67"><defs><style>.cls-1{fill:#bf8158;}.cls-2{fill:#aa6944;}.cls-3{fill:#352215;}.cls-4{fill:#350304;}.cls-5{fill:#00acc2;}.cls-6{fill:#fff;}</style></defs><title>Asset 7</title><g id="Layer_2" data-name="Layer 2"><g id="OBJECTS"><rect class="cls-1" x="28.97" y="74.6" width="14.82" height="16.71"/><path class="cls-1" d="M12.53,48.94c0,3.83-2.77,7-6.23,7S0,52.86,0,49s2.77-7,6.23-7S12.51,45.11,12.53,48.94Z"/><path class="cls-2" d="M9.9,49a3.85,3.85,0,0,1-3.61,4,4.05,4.05,0,0,1,0-8.06A3.84,3.84,0,0,1,9.9,49Z"/><path class="cls-1" d="M72.75,48.55c0,3.83-2.76,7-6.22,7s-6.28-3.07-6.3-6.9,2.76-7,6.22-7S72.73,44.72,72.75,48.55Z"/><path class="cls-2" d="M70.13,48.57a3.66,3.66,0,1,1-3.66-4A3.86,3.86,0,0,1,70.13,48.57Z"/><path class="cls-1" d="M66.35,51c.08,14.84-10.82,27-24.21,27.14l-11.53.07c-13.39.09-24.41-12-24.49-26.81L6.06,39.81C6,25,16.87,12.76,30.26,12.67l11.53-.07c13.4-.09,24.42,12,24.5,26.81Z"/><path class="cls-2" d="M39.73,58.37c0,1.3-1.48,2.35-3.33,2.37S33,59.71,33,58.42s1.48-2.35,3.33-2.36S39.73,57.08,39.73,58.37Z"/><path class="cls-3" d="M54.8,51.26c0,1.89-1,3.45-2.25,3.45s-2.26-1.56-2.26-3.45,1-3.44,2.26-3.44S54.8,49.37,54.8,51.26Z"/><path class="cls-3" d="M22.13,51.26c0,1.89-1,3.45-2.25,3.45s-2.26-1.56-2.26-3.45,1-3.44,2.26-3.44S22.13,49.37,22.13,51.26Z"/><path class="cls-4" d="M48.37,42.83c2.52-2.4,5.85-2,8.33.22.6.55,1.35-.5.75-1-2.87-2.61-6.87-3-9.81-.24-.59.56.14,1.63.73,1.07Z"/><path class="cls-4" d="M24.05,42.83c-2.52-2.4-5.85-2-8.33.22-.6.55-1.35-.5-.75-1,2.87-2.61,6.87-3,9.81-.24.59.56-.13,1.63-.73,1.07Z"/><path class="cls-5" d="M43.79,83c-2.5,4.56-12.32,4.56-14.82,0,0,0-23.55-.61-29,14.71H72.59C67.17,82.35,43.79,83,43.79,83Z"/><path class="cls-6" d="M36.61,64.69H28.32S29.06,71,36.61,71s8.3-6.26,8.3-6.26Z"/><path class="cls-4" d="M66.15,16.79C64.47,0,36,0,36,0S10.37,0,5.82,16.79C4.68,21,.27,34.58,4.26,41.77,7.82,52.62,6.79,48.91,7.45,53c0,0,2.66-4.29,2.25-8.13-.46-4.33,1.32-8,.8-12.61s.87-7.76,8.15-9.05,11.27.86,17.34.86,10-2.16,17.33-.86,8.67,4.46,8.15,9.05,1.27,8.28.8,12.61C61.86,48.72,65.22,53,65.22,53c-.22-2.49,2.49-11.24,2.49-11.24C71.7,34.58,66.58,21.09,66.15,16.79Z"/></g></g></svg>